<?xml version="1.0" encoding="UTF-8"?>
<svg version="1.1" xmlns="http://www.w3.org/2000/svg" width="625" height="225">
<path d="M0 0 C206.25 0 412.5 0 625 0 C625 74.25 625 148.5 625 225 C418.75 225 212.5 225 0 225 C0 150.75 0 76.5 0 0 Z " fill="#BAEBF2" transform="translate(0,0)"/>
<path d="M0 0 C206.25 0 412.5 0 625 0 C625 74.25 625 148.5 625 225 C418.75 225 212.5 225 0 225 C0 150.75 0 76.5 0 0 Z M340 16 C338.68883345 16.56560126 337.37636076 17.12818578 336.0625 17.6875 C334.5465625 18.3371875 334.5465625 18.3371875 333 19 C333 19.66 333 20.32 333 21 C332.01 21 331.02 21 330 21 C330 21.66 330 22.32 330 23 C328.9171875 23.1546875 328.9171875 23.1546875 327.8125 23.3125 C324.72206579 24.06793947 322.58256159 25.15531315 320 27 C320 27.66 320 28.32 320 29 C319.44828125 29.268125 318.8965625 29.53625 318.328125 29.8125 C315.74911961 31.12796584 313.24917932 32.53849162 310.75 34 C309.41195312 34.7734375 309.41195312 34.7734375 308.046875 35.5625 C307.03367187 36.2740625 307.03367187 36.2740625 306 37 C306 37.66 306 38.32 306 39 C305.319375 39.20625 304.63875 39.4125 303.9375 39.625 C301.30145433 40.85889372 299.96073978 41.83011423 297.875 43.75 C293.37843669 47.7362467 288.32493304 50.27621607 283 53 C281.70645014 53.69423081 280.41351374 54.38960552 279.12109375 55.0859375 C264.7340928 62.7221017 248.90155873 65.79867495 232.6953125 61.953125 C223.66830993 58.76096757 214.71763397 54.2148663 207.3828125 48.03125 C206.0202919 46.80072537 206.0202919 46.80072537 204 47 C204 46.34 204 45.68 204 45 C201.36315253 42.60179695 201.36315253 42.60179695 198 42 C198 41.34 198 40.68 198 40 C195.36315253 37.60179695 195.36315253 37.60179695 192 37 C192 36.34 192 35.68 192 35 C190.9275 34.4225 189.855 33.845 188.75 33.25 C186.45689516 31.95270563 184.94481146 30.94113223 183.125 29 C180.54088083 26.56788784 178.04852669 25.54228787 174.7890625 24.19921875 C172.10771923 23.04631625 169.52920304 21.74839489 166.92895508 20.42529297 C144.67902539 9.39491579 116.01710664 8.08603265 92.36328125 15.453125 C85.35908609 17.85845002 78.64920482 20.74986604 72 24 C71.31389648 24.32935547 70.62779297 24.65871094 69.92089844 24.99804688 C57.5084855 30.73834893 57.5084855 30.73834893 46 38 C46 38.66 46 39.32 46 40 C45.43667969 40.26039062 44.87335937 40.52078125 44.29296875 40.7890625 C35.09037104 45.64903744 28.50889051 53.35077577 23 62 C23 62.66 23 63.32 23 64 C22.34 64 21.68 64 21 64 C19.3983531 66.10595375 19.3983531 66.10595375 17.875 68.75 C17.33617187 69.63171875 16.79734375 70.5134375 16.2421875 71.421875 C14.71062544 74.12362615 14.71062544 74.12362615 15 78 C14.34 78 13.68 78 13 78 C10.8696686 82.73542236 9.2151901 87.34137262 7.875 92.375 C7.54242188 93.59960938 7.20984375 94.82421875 6.8671875 96.0859375 C3.03369438 112.05780648 4.19509984 128.44842581 9 144 C9.66 144 10.32 144 11 144 C11.226875 144.721875 11.45375 145.44375 11.6875 146.1875 C14.84979004 152.96383579 21.5162633 156.75813165 28 160 C30.65866441 160.12660307 33.27843165 160.18978467 35.9375 160.1875 C37.07916626 160.1884668 37.07916626 160.1884668 38.24389648 160.18945312 C44.31899751 160.13297041 50.08497209 159.43084908 56 158 C56 157.34 56 156.68 56 156 C56.51304688 155.85304687 57.02609375 155.70609375 57.5546875 155.5546875 C61.72862366 154.33201933 65.86972392 153.06062301 69.96875 151.60546875 C105.34469633 139.11889775 135.68160778 141.22534045 170 156 C171.55959654 156.75684503 173.11288203 157.52699439 174.65625 158.31640625 C177.67377692 160.14990535 177.67377692 160.14990535 180 160 C180 160.66 180 161.32 180 162 C180.64066406 162.25394531 181.28132812 162.50789062 181.94140625 162.76953125 C185.96876339 164.37207128 189.9822002 165.97605653 193.9375 167.75 C196.91162721 169.1889485 196.91162721 169.1889485 200 169 C200 169.66 200 170.32 200 171 C200.845625 171.31453125 201.69125 171.6290625 202.5625 171.953125 C209.57745241 174.59967523 216.37815022 177.29887967 222.86523438 181.09008789 C236.73112317 187.00021684 258.25735527 181.62756031 272 177 C272.65194336 176.78118164 273.30388672 176.56236328 273.97558594 176.33691406 C279.89378761 174.29583349 285.57839691 171.86145068 291.12109375 168.95703125 C293.15235716 167.92239604 295.21739498 167.02290215 297.3125 166.125 C301.71857352 164.19357051 305.88423358 161.91647253 310.08984375 159.5859375 C316.56470509 156.05735534 323.11430928 152.65412079 330 150 C330 149.34 330 148.68 330 148 C330.825 147.9175 331.65 147.835 332.5 147.75 C336.06514186 146.98604103 338.60676776 145.78633594 341.80078125 144.11328125 C344.1449737 142.92661189 346.50986706 141.87992712 348.9375 140.875 C349.68902344 140.56304687 350.44054687 140.25109375 351.21484375 139.9296875 C358.29832851 137.56521433 365.04940254 136.6571142 372.5 136.6875 C373.29019531 136.67138672 374.08039063 136.65527344 374.89453125 136.63867188 C383.91291343 136.63129186 390.68134792 138.98518096 397.27734375 145.1484375 C399.54801155 147.58901921 401.21835498 150.19048285 403 153 C403.66 153 404.32 153 405 153 C405.10054688 153.79277344 405.10054688 153.79277344 405.203125 154.6015625 C406.34479172 158.03775548 408.52177193 160.58005496 410.75 163.375 C411.18054688 163.92671875 411.61109375 164.4784375 412.0546875 165.046875 C420.81626756 176.29258329 420.81626756 176.29258329 432 185 C432.66 185 433.32 185 434 185 C434.33 185.99 434.66 186.98 435 188 C436.95324533 189.20828966 436.95324533 189.20828966 439.3125 190.125 C440.09238281 190.45757812 440.87226563 190.79015625 441.67578125 191.1328125 C443.77353512 191.91550386 445.81764866 192.51059398 448 193 C448 193.66 448 194.32 448 195 C451.83028269 196.15620128 455.66470106 197.29805944 459.5 198.4375 C460.57765625 198.76298828 461.6553125 199.08847656 462.765625 199.42382812 C473.61530409 202.63242225 483.22532234 203.13697704 494.5 203.0625 C495.799375 203.05798828 497.09875 203.05347656 498.4375 203.04882812 C501.62502001 203.0371093 504.81251613 203.01917604 508 203 C510.31 208.94 512.62 214.88 515 221 C519.03286448 220.43181135 519.03286448 220.43181135 520.703125 217.78515625 C521.21359375 216.88667969 521.7240625 215.98820313 522.25 215.0625 C523.03117188 213.71865234 523.03117188 213.71865234 523.828125 212.34765625 C525.14887267 210.13907285 525.14887267 210.13907285 525 208 C529.81123996 212.03523352 534.13242719 216.04467233 538 221 C543.00918744 219.52670958 545.51807722 216.72484762 549 213 C547.42219077 209.28954753 545.09296752 206.70093616 542.375 203.75 C541.55773437 202.85796875 540.74046875 201.9659375 539.8984375 201.046875 C539.27195312 200.37140625 538.64546875 199.6959375 538 199 C541.07565814 195.55648906 544.89375374 193.75656988 548.91796875 191.59765625 C549.60503906 191.07042969 550.29210937 190.54320312 551 190 C551 188.68 551 187.36 551 186 C548.03 184.515 548.03 184.515 545 183 C545.33 182.01 545.66 181.02 546 180 C546.66 180 547.32 180 548 180 C549.18711166 178.88072329 550.36578973 177.75066944 551.4921875 176.5703125 C552.59921926 175.41739341 553.73369257 174.29066237 554.8828125 173.1796875 C555.51960937 172.56351563 556.15640625 171.94734375 556.8125 171.3125 C557.41707031 170.73113281 558.02164063 170.14976562 558.64453125 169.55078125 C560.21936724 168.09230108 560.21936724 168.09230108 560 166 C560.639375 165.731875 561.27875 165.46375 561.9375 165.1875 C564.33131686 164.11332248 564.33131686 164.11332248 565 161 C565.99 160.67 566.98 160.34 568 160 C569.72177886 158.07947346 569.72177886 158.07947346 571.375 155.75 C574.03922533 152.21078699 576.77438186 149.0512604 580 146 C582.59881631 143.47761946 584.98575467 141.02136799 587 138 C587 137.34 587 136.68 587 136 C587.66 136 588.32 136 589 136 C591.96235695 132.36676311 591.96235695 132.36676311 593 128 C593.66 128 594.32 128 595 128 C599.50846037 122.47259967 602.87263061 115.87916686 606.38671875 109.69921875 C608 107 608 107 609.5390625 105.1640625 C615.94930945 95.66866996 617.27700924 81.02750688 616 70 C615.2533021 67.05987703 614.3403425 64.7365326 613 62 C612.34 62 611.68 62 611 62 C610.938125 60.824375 610.938125 60.824375 610.875 59.625 C609.0401272 52.02338411 603.54074798 43.55525256 598 38 C595.90623099 37.24862992 595.90623099 37.24862992 594 37 C594 36.34 594 35.68 594 35 C593.34 35 592.68 35 592 35 C592 34.34 592 33.68 592 33 C590.27255984 32.34956281 588.5429631 31.70485156 586.8125 31.0625 C585.84957031 30.70285156 584.88664063 30.34320312 583.89453125 29.97265625 C568.93409201 24.94546412 555.71474444 29.73730504 542 36 C536.42550692 38.78724654 531.23006367 42.07139076 526.0859375 45.58203125 C524.22600502 46.84636738 522.33873894 48.0494524 520.4375 49.25 C519.633125 49.8275 518.82875 50.405 518 51 C518 51.66 518 52.32 518 53 C517.44828125 53.268125 516.8965625 53.53625 516.328125 53.8125 C513.74911961 55.12796584 511.24917932 56.53849162 508.75 58 C507.41195312 58.7734375 507.41195312 58.7734375 506.046875 59.5625 C505.37140625 60.036875 504.6959375 60.51125 504 61 C504 61.66 504 62.32 504 63 C502.824375 63.1546875 502.824375 63.1546875 501.625 63.3125 C498.63861174 63.87888398 495.99975115 64.62199499 493.125 65.5625 C482.15831193 68.8852428 472.81723644 65.8209033 462.8515625 60.6640625 C458.52196793 58.13747717 454.38238992 55.33568393 450.26489258 52.47827148 C446.93788899 50.1882903 443.85862609 48.31560775 440 47 C440 46.34 440 45.68 440 45 C437.85823664 43.40029553 437.85823664 43.40029553 435.1875 41.875 C434.29417969 41.33617188 433.40085937 40.79734375 432.48046875 40.2421875 C430.01528103 38.77611163 430.01528103 38.77611163 427 39 C427 38.34 427 37.68 427 37 C425.17658687 35.57691886 425.17658687 35.57691886 422.79296875 34.171875 C421.9009375 33.62192871 421.00890625 33.07198242 420.08984375 32.50537109 C419.13207031 31.92609863 418.17429687 31.34682617 417.1875 30.75 C416.22585938 30.1617041 415.26421875 29.5734082 414.2734375 28.96728516 C408.64449421 25.54250352 402.99507826 22.20409095 397.15625 19.1484375 C395.60243949 18.32086451 394.08443414 17.42479872 392.59375 16.48828125 C384.00341849 11.55919043 374.81978334 10.63436118 365.125 10.625 C364.24585938 10.62346924 363.36671875 10.62193848 362.4609375 10.62036133 C354.25525677 10.75945383 347.50450759 12.58886019 340 16 Z " fill="#FEFEFE" transform="translate(0,0)"/>
<path d="M0 0 C6.39746505 1.98344347 12.42837906 4.43310077 18.5 7.25 C27.57600627 11.40228142 36.74312303 15.27086951 46 19 C46 19.99 46 20.98 46 22 C43.24081107 23.97084924 40.34378066 25.58994447 37.40625 27.28125 C36.6121875 27.8484375 35.818125 28.415625 35 29 C34.66168736 32.15526726 34.66168736 32.15526726 37.125 34.3125 C38.07375 35.199375 39.0225 36.08625 40 37 C41.10805226 38.10026735 42.21226039 39.2044202 43.3125 40.3125 C44.199375 41.199375 45.08625 42.08625 46 43 C44.48601545 46.78496138 43.9855604 47.0072198 40 49 C35.71 44.71 31.42 40.42 27 36 C23.55435092 40.28350552 23.55435092 40.28350552 20.75 44.8125 C20.1725 45.864375 19.595 46.91625 19 48 C16.27205652 46.63602826 16.13690041 45.29062148 15.046875 42.46875 C14.67763916 41.52064453 14.30840332 40.57253906 13.92797852 39.59570312 C13.53924561 38.57412109 13.1505127 37.55253906 12.75 36.5 C12.35031006 35.46294922 11.95062012 34.42589844 11.53881836 33.35742188 C7.32721943 22.36578358 3.14484969 11.35071332 0 0 Z " fill="#BCEAF0" transform="translate(499,168)"/>
<path d="M0 0 C5.44381087 0.60970682 9.9639011 2.46769771 14.9375 4.625 C15.77651855 4.98327881 16.61553711 5.34155762 17.47998047 5.71069336 C22.57373268 7.90153892 27.61537876 10.18633319 32.625 12.5625 C40.62322559 16.35619389 48.79030268 19.69401418 57 23 C57 24.32 57 25.64 57 27 C54.91796875 28.59765625 54.91796875 28.59765625 52.1875 30.0625 C48.83958937 31.88380203 46.74230564 33.25769436 44 36 C47.63 39.96 51.26 43.92 55 48 C53.193388 51.61322401 52.33581029 52.83748791 49.375 55.25 C48.74335937 55.77078125 48.11171875 56.2915625 47.4609375 56.828125 C46.97882812 57.21484375 46.49671875 57.6015625 46 58 C42.63602074 56.57621053 40.80356448 54.87389574 38.5 52.0625 C36.20138336 49.26759113 33.97005419 47.07773528 31 45 C30.773125 45.66 30.54625 46.32 30.3125 47 C29.18777446 49.57080124 27.98486244 51.90048176 26.5625 54.3125 C26.15128906 55.00988281 25.74007812 55.70726562 25.31640625 56.42578125 C24.66478516 57.20501953 24.66478516 57.20501953 24 58 C23.01 58 22.02 58 21 58 C16.38 45.79 11.76 33.58 7 21 C5.188065 24.01989166 3.51325083 26.85709443 2 30 C0.35 30 -1.3 30 -3 30 C-0.45253165 21.81170886 -0.45253165 21.81170886 3.125 19.8125 C3.74375 19.544375 4.3625 19.27625 5 19 C4.14046253 14.54051738 3.25193117 10.27915571 1.375 6.125 C0 3 0 3 0 0 Z M5 5 C9.35409953 18.15055735 13.87075837 31.24490573 18.8125 44.1875 C19.1022168 44.95956787 19.39193359 45.73163574 19.69042969 46.52709961 C20.96849823 50.47952014 20.96849823 50.47952014 24 53 C26.31 49.04 28.62 45.08 31 41 C35.91935902 45.11619836 40.52647956 49.40410362 45 54 C47.57327433 52.78969026 47.57327433 52.78969026 50 51 C50 46.26212775 49.23856826 45.66429502 46.125 42.3125 C45.40570312 41.52488281 44.68640625 40.73726562 43.9453125 39.92578125 C42.14320495 37.94183693 42.14320495 37.94183693 40 37 C40.18359375 35.19140625 40.18359375 35.19140625 41 33 C43.28515625 31.40234375 43.28515625 31.40234375 46.0625 29.9375 C48.79716352 28.55744957 48.79716352 28.55744957 51 27 C51 26.01 51 25.02 51 24 C50.44763672 23.764021 49.89527344 23.52804199 49.32617188 23.28491211 C46.71714794 22.16980836 44.10854601 21.05372128 41.5 19.9375 C40.54834961 19.53063965 39.59669922 19.1237793 38.61621094 18.70458984 C33.48120301 16.50547063 28.35914939 14.28144694 23.25390625 12.01416016 C17.25413334 9.35198022 11.28899735 6.90915991 5 5 Z " fill="#6E8189" transform="translate(494,163)"/>
<path d="M0 0 C1.65 0 3.3 0 5 0 C4.58384403 9.63401065 2.34560829 18.69393547 0 28 C-1.98 28 -3.96 28 -6 28 C-6 27.01 -6 26.02 -6 25 C-6.52722656 25.31195313 -7.05445313 25.62390625 -7.59765625 25.9453125 C-10.57759901 27.25358005 -13.19973539 27.5680674 -16.4375 27.875 C-17.54996094 27.99617188 -18.66242188 28.11734375 -19.80859375 28.2421875 C-23.79369874 27.93976827 -25.28092403 26.87902161 -28 24 C-28.68488035 19.28193538 -28.49059941 17.06296538 -26.5 12.75 C-23.3942358 9.33365938 -20.3918816 7.41136315 -16 6 C-12.40086444 6 -11.37803636 6.66283244 -8.6875 9.0625 C-8.130625 9.701875 -7.57375 10.34125 -7 11 C-6.34 10.67 -5.68 10.34 -5 10 C-4.26924352 7.6859378 -3.59861742 5.35171131 -3 3 C-2.01 3 -1.02 3 0 3 C0 2.01 0 1.02 0 0 Z " fill="#B8E6EF" transform="translate(268,81)"/>
<path d="M0 0 C1.32 0 2.64 0 4 0 C4.33 0.66 4.66 1.32 5 2 C5.66 1.34 6.32 0.68 7 0 C9.625 -0.125 9.625 -0.125 12 0 C11.67 2.31 11.34 4.62 11 7 C11.99 6.67 12.98 6.34 14 6 C14.33 4.35 14.66 2.7 15 1 C18.465 0.505 18.465 0.505 22 0 C22.33 0.66 22.66 1.32 23 2 C23.66 1.34 24.32 0.68 25 0 C28 -0.25 28 -0.25 31 0 C33 2 33 2 33.265625 3.84765625 C33.22600561 9.46370483 32.43690437 14.57312009 31 20 C29.02 20 27.04 20 25 20 C25.144375 19.25234375 25.28875 18.5046875 25.4375 17.734375 C25.623125 16.74953125 25.80875 15.7646875 26 14.75 C26.185625 13.77546875 26.37125 12.8009375 26.5625 11.796875 C27.10303017 8.81315721 27.10303017 8.81315721 27 5 C26.01 5 25.02 5 24 5 C22.08460953 9.96260257 20.39038565 14.86626838 19 20 C17.52168779 20.19412181 16.04230684 20.38012131 14.5625 20.5625 C13.73878906 20.66691406 12.91507813 20.77132812 12.06640625 20.87890625 C11.38449219 20.91886719 10.70257813 20.95882812 10 21 C9.67 20.67 9.34 20.34 9 20 C8.01 20 7.02 20 6 20 C5.34 19.01 4.68 18.02 4 17 C3.608125 17.495 3.21625 17.99 2.8125 18.5 C0.44908285 20.45593143 -1.01435003 20.24207973 -4 20 C-2.28571429 2.28571429 -2.28571429 2.28571429 0 0 Z " fill="#B6E6EE" transform="translate(152,89)"/>
<path d="M0 0 C1.26328125 0.03609375 2.5265625 0.0721875 3.828125 0.109375 C5.27445312 0.17898437 5.27445312 0.17898437 6.75 0.25 C6.75 1.57 6.75 2.89 6.75 4.25 C5.76 4.25 4.77 4.25 3.75 4.25 C3.6675 5.343125 3.585 6.43625 3.5 7.5625 C2.75 11.25 2.75 11.25 1.0625 13.125 C-1.69784782 14.46787191 -4.21182759 14.90475314 -7.25 15.25 C-4.28 16.24 -1.31 17.23 1.75 18.25 C2.3482906 24.47222222 2.3482906 24.47222222 -0.125 27.6875 C-4.45725585 29.85362792 -8.4813401 29.9450928 -13.25 29.25 C-14.24 28.59 -15.23 27.93 -16.25 27.25 C-16.625 24.25 -16.625 24.25 -16.25 21.25 C-15.26 20.59 -14.27 19.93 -13.25 19.25 C-11.88556625 15.01307415 -11.22652613 11.95421605 -11.375 7.5 C-11.25 4.25 -11.25 4.25 -9.6953125 2.0625 C-6.35200408 -0.4156072 -4.11194201 -0.15229415 0 0 Z " fill="#6E7D85" transform="translate(467.25,88.75)"/>
<path d="M0 0 C0.99 0 1.98 0 3 0 C4.32 0 5.64 0 7 0 C7.36128656 6.439933 6.00226992 12.19698955 4.5 18.4375 C4.14228516 19.96407227 4.14228516 19.96407227 3.77734375 21.52148438 C3.19176879 24.01603368 2.59916458 26.50868641 2 29 C0.35 29 -1.3 29 -3 29 C-2.67 25.7 -2.34 22.4 -2 19 C-4.31 19.33 -6.62 19.66 -9 20 C-11.40438664 17.49543058 -11.98543735 16.13106382 -12.375 12.625 C-11.89244102 7.96026321 -10.34701775 4.92431107 -7.6875 1.125 C-5.14891437 -0.56739042 -2.98041263 -0.18627579 0 0 Z " fill="#747F87" transform="translate(203,89)"/>
<path d="M0 0 C4.95 1.485 4.95 1.485 10 3 C10 4.32 10 5.64 10 7 C7.91796875 8.59765625 7.91796875 8.59765625 5.1875 10.0625 C1.83958937 11.88380203 -0.25769436 13.25769436 -3 16 C2.445 21.94 2.445 21.94 8 28 C6.193388 31.61322401 5.33581029 32.83748791 2.375 35.25 C1.74335937 35.77078125 1.11171875 36.2915625 0.4609375 36.828125 C-0.02117188 37.21484375 -0.50328125 37.6015625 -1 38 C-4.36397926 36.57621053 -6.19643552 34.87389574 -8.5 32.0625 C-10.79861664 29.26759113 -13.02994581 27.07773528 -16 25 C-16.226875 25.66 -16.45375 26.32 -16.6875 27 C-17.81222554 29.57080124 -19.01513756 31.90048176 -20.4375 34.3125 C-20.84871094 35.00988281 -21.25992188 35.70726562 -21.68359375 36.42578125 C-22.33521484 37.20501953 -22.33521484 37.20501953 -23 38 C-23.99 38 -24.98 38 -26 38 C-26.89372793 35.9246318 -27.76441696 33.83932994 -28.625 31.75 C-29.11226563 30.58984375 -29.59953125 29.4296875 -30.1015625 28.234375 C-31 25 -31 25 -30.1484375 22.578125 C-29.76945312 22.05734375 -29.39046875 21.5365625 -29 21 C-26.61958877 24.57061685 -25.45448941 27.96709754 -24 32 C-21.36 28.04 -18.72 24.08 -16 20 C-11.08064098 24.11619836 -6.47352044 28.40410362 -2 33 C-0.35 32.01 1.3 31.02 3 30 C1.66342976 27.09663689 0.15277429 24.7897189 -1.9375 22.375 C-2.44152344 21.78460938 -2.94554687 21.19421875 -3.46484375 20.5859375 C-5.11186048 18.77228458 -5.11186048 18.77228458 -8 17 C-7.84765625 15.234375 -7.84765625 15.234375 -7 13 C-4.49609375 11.078125 -4.49609375 11.078125 -1.4375 9.25 C-0.42558594 8.63640625 0.58632813 8.0228125 1.62890625 7.390625 C2.41136719 6.93171875 3.19382812 6.4728125 4 6 C2.0745356 3.7763932 2.0745356 3.7763932 -1 3 C-0.67 2.01 -0.34 1.02 0 0 Z " fill="#7D7E81" transform="translate(541,183)"/>
<path d="M0 0 C0.99 0.66 1.98 1.32 3 2 C3 1.34 3 0.68 3 0 C4.32 0 5.64 0 7 0 C6.48446121 6.49850211 5.53332291 12.66226532 4 19 C1.23735711 19.59732819 -1.16032769 20 -4 20 C-5.2375 20.0928125 -5.2375 20.0928125 -6.5 20.1875 C-9 20 -9 20 -10.62890625 18.7890625 C-12.87633242 15.8565235 -12.46255431 13.08945514 -12.36328125 9.515625 C-11.81625426 5.72761015 -10.50050323 3.86822429 -8 1 C-5.22899606 -0.38550197 -3.0665294 -0.1877467 0 0 Z " fill="#6E7D87" transform="translate(362,89)"/>
<path d="M0 0 C3.35800085 1.11933362 4.1056451 2.02405444 6.3125 4.6875 C9.38656536 8.31751335 12.59601162 11.67903572 16 15 C14.48601545 18.78496138 13.9855604 19.0072198 10 21 C5.71 16.71 1.42 12.42 -3 8 C-6.44564908 12.28350552 -6.44564908 12.28350552 -9.25 16.8125 C-9.8275 17.864375 -10.405 18.91625 -11 20 C-13.92586433 18.53706784 -14.05946588 16.59729902 -15.125 13.5625 C-15.47820313 12.57378906 -15.83140625 11.58507812 -16.1953125 10.56640625 C-17 8 -17 8 -17 6 C-15.78763672 5.85304687 -15.78763672 5.85304687 -14.55078125 5.703125 C-8.51486746 4.85853393 -4.57493735 4.2797801 0 0 Z " fill="#F5F8F8" transform="translate(529,196)"/>
<path d="M0 0 C2.4375 1.5 2.4375 1.5 4 3 C3.875 5.8125 3.875 5.8125 3 9 C-1.00949774 11.797324 -4.1735095 12.34474932 -9 12 C-8.01 13.485 -8.01 13.485 -7 15 C-5.02252878 15.36297936 -5.02252878 15.36297936 -2.875 15.1875 C-1.59625 15.125625 -0.3175 15.06375 1 15 C1 16.32 1 17.64 1 19 C-1.64440639 19.8814688 -3.28060752 20.16174818 -6 20.1875 C-6.680625 20.20167969 -7.36125 20.21585938 -8.0625 20.23046875 C-10 20 -10 20 -13 18 C-14.23740871 14.28777388 -14.55756126 10.85772118 -14 7 C-10.29536969 1.12368985 -6.90310254 -0.60553531 0 0 Z " fill="#75848C" transform="translate(140,89)"/>
<path d="M0 0 C1.9375 1.125 1.9375 1.125 3 3 C3.1875 6.1875 3.1875 6.1875 3 9 C-1.22949995 11.41685712 -4.12335991 12.34833144 -9 12 C-8.34 13.32 -7.68 14.64 -7 16 C-3.535 15.505 -3.535 15.505 0 15 C0 16.32 0 17.64 0 19 C-3.60572704 20.20190901 -6.2102435 20.32670315 -10 20 C-12.9375 18.5 -12.9375 18.5 -15 16 C-15.71219605 11.09376052 -15.53374588 9.02936705 -13.25 4.625 C-9.22795114 -0.06739034 -6.17518153 -0.56138014 0 0 Z " fill="#6E818B" transform="translate(255,89)"/>
<path d="M0 0 C2.4375 1.5 2.4375 1.5 4 3 C3.6375 8.4375 3.6375 8.4375 0.875 10.875 C-2.57585312 12.22533383 -5.32551663 12.21614608 -9 12 C-9 12.99 -9 13.98 -9 15 C-5.7 15 -2.4 15 1 15 C1 16.32 1 17.64 1 19 C-2.71016634 20.18725323 -6.12790678 20.34572261 -10 20 C-12.4375 18.5625 -12.4375 18.5625 -14 16 C-14.77717991 12.13609612 -14.91022119 8.61891739 -12.94140625 5.1171875 C-8.91458669 0.17029344 -6.25038659 -0.43106114 0 0 Z " fill="#6D7D82" transform="translate(491,89)"/>
<path d="M0 0 C1.32 0 2.64 0 4 0 C4 0.99 4 1.98 4 3 C4.515625 2.484375 5.03125 1.96875 5.5625 1.4375 C9.00862154 -0.59482809 11.20643396 0.06950267 15 1 C17.84253161 6.68506322 15.31980915 14.14334688 14 20 C12.02 20 10.04 20 8 20 C8.61512818 14.99109914 9.2717552 9.99367864 10 5 C8.68 5 7.36 5 6 5 C5.51787786 6.56159059 5.03944127 8.12431928 4.5625 9.6875 C4.29566406 10.55761719 4.02882813 11.42773438 3.75390625 12.32421875 C3.03655471 14.87025921 2.482459 17.4003423 2 20 C0.02 20 -1.96 20 -4 20 C-2.9413873 13.24289769 -1.77874156 6.60675438 0 0 Z " fill="#728389" transform="translate(377,89)"/>
<path d="M0 0 C1.32 0 2.64 0 4 0 C4.33 0.99 4.66 1.98 5 3 C5.350625 2.484375 5.70125 1.96875 6.0625 1.4375 C8 0 8 0 11.6875 0.3125 C12.780625 0.539375 13.87375 0.76625 15 1 C16.39674115 7.28533518 15.57087098 12.78107244 14 19 C13 20 13 20 10.4375 20.0625 C9.633125 20.041875 8.82875 20.02125 8 20 C8.96355353 9.44191344 8.96355353 9.44191344 10 5 C8.68 5.33 7.36 5.66 6 6 C4.68 10.62 3.36 15.24 2 20 C0.02 20 -1.96 20 -4 20 C-2.07289294 6.3667426 -2.07289294 6.3667426 0 0 Z " fill="#717F83" transform="translate(316,89)"/>
<path d="M0 0 C2.375 1.5 2.375 1.5 4 3 C3.875 5.8125 3.875 5.8125 3 9 C-0.68695208 11.51383097 -3.56137104 12.39164373 -8 12 C-7.67 12.99 -7.34 13.98 -7 15 C-4.36 15 -1.72 15 1 15 C1 16.32 1 17.64 1 19 C-3.54340533 20.51446844 -7.36760267 20.52097787 -11.9375 19.0625 C-14.33175691 16.66824309 -14.3969676 15.9650415 -14.5625 12.6875 C-14.30524627 8.17453464 -13.02054506 5.4400652 -10 2 C-6.80244251 -0.34487549 -3.89275089 -0.40549488 0 0 Z " fill="#6E7A83" transform="translate(432,89)"/>
<path d="M0 0 C2.375 1.5 2.375 1.5 4 3 C3.875 5.8125 3.875 5.8125 3 9 C-0.68695208 11.51383097 -3.56137104 12.39164373 -8 12 C-7.67 12.99 -7.34 13.98 -7 15 C-4.36 15 -1.72 15 1 15 C1 16.32 1 17.64 1 19 C-3.54340533 20.51446844 -7.36760267 20.52097787 -11.9375 19.0625 C-14.33175691 16.66824309 -14.3969676 15.9650415 -14.5625 12.6875 C-14.30524627 8.17453464 -13.02054506 5.4400652 -10 2 C-6.80244251 -0.34487549 -3.89275089 -0.40549488 0 0 Z " fill="#707F87" transform="translate(304,89)"/>
<path d="M0 0 C1.32 0 2.64 0 4 0 C4.33 0.66 4.66 1.32 5 2 C5.99 1.34 6.98 0.68 8 0 C11.6875 0.375 11.6875 0.375 15 1 C15.22262303 7.7281627 14.95021536 13.53991163 13 20 C11.02 20 9.04 20 7 20 C7.66 15.38 8.32 10.76 9 6 C7.68 6.33 6.36 6.66 5 7 C2.83020434 10.97795871 2.04047376 15.61514628 1 20 C-0.65 20 -2.3 20 -4 20 C-3.56615452 12.96871122 -2.25678003 6.670985 0 0 Z " fill="#707E84" transform="translate(503,89)"/>
<path d="M0 0 C1.98 0 3.96 0 6 0 C5.855625 0.74765625 5.71125 1.4953125 5.5625 2.265625 C5.376875 3.25046875 5.19125 4.2353125 5 5.25 C4.814375 6.22453125 4.62875 7.1990625 4.4375 8.203125 C3.89696983 11.18684279 3.89696983 11.18684279 4 15 C5.32 15 6.64 15 8 15 C8.20496094 14.16855469 8.40992188 13.33710937 8.62109375 12.48046875 C8.89050781 11.39378906 9.15992188 10.30710937 9.4375 9.1875 C9.70433594 8.10855469 9.97117188 7.02960938 10.24609375 5.91796875 C10.76077412 3.9259157 11.34937175 1.95188476 12 0 C13.65 0 15.3 0 17 0 C16.33644956 6.74609618 15.28134207 13.34448534 14 20 C12.35 20 10.7 20 9 20 C9 19.34 9 18.68 9 18 C8.01 18.66 7.02 19.32 6 20 C2.9375 20.3125 2.9375 20.3125 0 20 C-2.91879341 15.62180989 -2.44570491 11.48211525 -1.546875 6.4765625 C-1.06767908 4.30648956 -0.55769585 2.15111255 0 0 Z " fill="#717A7D" transform="translate(218,89)"/>
<path d="M0 0 C1.65 0 3.3 0 5 0 C5.33 0.66 5.66 1.32 6 2 C6.66 1.34 7.32 0.68 8 0 C11 -0.25 11 -0.25 14 0 C16 2 16 2 16.265625 3.84765625 C16.22600561 9.46370483 15.43690437 14.57312009 14 20 C12.02 20 10.04 20 8 20 C8.144375 19.25234375 8.28875 18.5046875 8.4375 17.734375 C8.623125 16.74953125 8.80875 15.7646875 9 14.75 C9.185625 13.77546875 9.37125 12.8009375 9.5625 11.796875 C10.10303017 8.81315721 10.10303017 8.81315721 10 5 C9.01 5 8.02 5 7 5 C5.08460953 9.96260257 3.39038565 14.86626838 2 20 C0.35 20 -1.3 20 -3 20 C-2.33644956 13.25390382 -1.28134207 6.65551466 0 0 Z " fill="#717B80" transform="translate(169,89)"/>
<path d="M0 0 C1.65 0 3.3 0 5 0 C4.29843593 7.15595346 2.69214979 14.01855181 1 21 C3.97 21 6.94 21 10 21 C9.67 22.65 9.34 24.3 9 26 C4.38 26 -0.24 26 -5 26 C-4.50089384 16.89131259 -2.52719744 8.71001535 0 0 Z " fill="#738188" transform="translate(109,83)"/>
<path d="M0 0 C4.29 0 8.58 0 13 0 C11.93960591 5.30197044 11.0164255 6.53194489 7.4375 10.3125 C6.19806641 11.63701172 6.19806641 11.63701172 4.93359375 12.98828125 C4.29550781 13.65214844 3.65742188 14.31601563 3 15 C5.31 15.33 7.62 15.66 10 16 C10 17.32 10 18.64 10 20 C5.05 20 0.1 20 -5 20 C-4.00616015 16.02464059 -3.03333643 14.39376693 -0.5625 11.25 C0.05496094 10.45078125 0.67242187 9.6515625 1.30859375 8.828125 C1.86675781 8.22484375 2.42492187 7.6215625 3 7 C3.66 7 4.32 7 5 7 C5 6.34 5 5.68 5 5 C2.03 4.505 2.03 4.505 -1 4 C-0.67 2.68 -0.34 1.36 0 0 Z " fill="#687B82" transform="translate(401,89)"/>
<path d="M0 0 C1.65 0 3.3 0 5 0 C4.58384403 9.63401065 2.34560829 18.69393547 0 28 C-1.98 28 -3.96 28 -6 28 C-5.19063588 23.89520843 -4.37697366 19.79128053 -3.5625 15.6875 C-3.33240234 14.52025391 -3.10230469 13.35300781 -2.86523438 12.15039062 C-2.64287109 11.03212891 -2.42050781 9.91386719 -2.19140625 8.76171875 C-1.98717041 7.73006592 -1.78293457 6.69841309 -1.57250977 5.63549805 C-1 3 -1 3 0 0 Z " fill="#74838A" transform="translate(268,81)"/>
<path d="M0 0 C1.98 0 3.96 0 6 0 C4.93117107 6.75248392 3.75333747 13.47907139 2.4375 20.1875 C2.18871094 21.45980469 1.93992187 22.73210937 1.68359375 24.04296875 C1 27 1 27 0 28 C-1.66617115 28.04063832 -3.33388095 28.042721 -5 28 C-4.37922374 21.52432348 -3.33183542 15.28837757 -1.9375 8.9375 C-1.75123047 8.07189453 -1.56496094 7.20628906 -1.37304688 6.31445312 C-0.91933733 4.20877549 -0.46023996 2.10425993 0 0 Z " fill="#707E82" transform="translate(281,81)"/>
<path d="M0 0 C0.66 0.33 1.32 0.66 2 1 C0.68 7.27 -0.64 13.54 -2 20 C-1.34 20.33 -0.68 20.66 0 21 C-0.99 21.33 -1.98 21.66 -3 22 C-3 20.35 -3 18.7 -3 17 C-3.66 17 -4.32 17 -5 17 C-5 17.66 -5 18.32 -5 19 C-7.3125 20.6875 -7.3125 20.6875 -10 22 C-10.99 21.67 -11.98 21.34 -13 21 C-12.67 20.34 -12.34 19.68 -12 19 C-11.01 19 -10.02 19 -9 19 C-9 17.68 -9 16.36 -9 15 C-11.64 15.33 -14.28 15.66 -17 16 C-17.66 14.68 -18.32 13.36 -19 12 C-18.38511719 11.86722656 -17.77023438 11.73445313 -17.13671875 11.59765625 C-16.32847656 11.42105469 -15.52023438 11.24445313 -14.6875 11.0625 C-13.88699219 10.88847656 -13.08648437 10.71445313 -12.26171875 10.53515625 C-9.854599 10.00113841 -9.854599 10.00113841 -7 9 C-6.01 10.485 -6.01 10.485 -5 12 C-4.34 8.37 -3.68 4.74 -3 1 C-2.01 0.67 -1.02 0.34 0 0 Z " fill="#B8E6EC" transform="translate(150,89)"/>
<path d="M0 0 C0.99 0 1.98 0 3 0 C3.66 0 4.32 0 5 0 C5 0.99 5 1.98 5 3 C4.2575 3.12375 3.515 3.2475 2.75 3.375 C0.06785738 3.98457787 -1.72480219 4.47076868 -4 6 C-4.91599427 8.40404738 -4.91599427 8.40404738 -5.25 11.125 C-5.39953125 12.03507812 -5.5490625 12.94515625 -5.703125 13.8828125 C-5.80109375 14.58148438 -5.8990625 15.28015625 -6 16 C-4.68 16 -3.36 16 -2 16 C-2.66 17.32 -3.32 18.64 -4 20 C-6.3125 20.25 -6.3125 20.25 -9 20 C-11.69972275 17.67265281 -11.980322 16.17710196 -12.375 12.625 C-11.89244102 7.96026321 -10.34701775 4.92431107 -7.6875 1.125 C-5.14891437 -0.56739042 -2.98041263 -0.18627579 0 0 Z " fill="#717E85" transform="translate(203,89)"/>
<path d="M0 0 C0.33 0.66 0.66 1.32 1 2 C2.65 2 4.3 2 6 2 C6.33 1.34 6.66 0.68 7 0 C7.33 0.99 7.66 1.98 8 3 C7.525625 3.70125 7.05125 4.4025 6.5625 5.125 C4.43272338 9.04378898 4.05581677 12.62472234 5 17 C7.33749166 19.15602694 7.33749166 19.15602694 10 20 C9.01 20.66 8.02 21.32 7 22 C6 21 5 20 4 19 C3.319375 18.34 2.63875 17.68 1.9375 17 C0 15 0 15 -2 12 C-2.99 11.67 -3.98 11.34 -5 11 C-4.67 11.99 -4.34 12.98 -4 14 C-3.34 14.33 -2.68 14.66 -2 15 C-2.33 15.99 -2.66 16.98 -3 18 C-3 17.34 -3 16.68 -3 16 C-5.64 16 -8.28 16 -11 16 C-10.61328125 15.55269531 -10.2265625 15.10539062 -9.828125 14.64453125 C-8.21216041 12.76857235 -6.60585165 10.88461807 -5 9 C-4.236875 8.113125 -3.47375 7.22625 -2.6875 6.3125 C-1.07977426 4.10932028 -0.39528066 2.66814445 0 0 Z " fill="#BCE4EA" transform="translate(414,89)"/>
<path d="M0 0 C1.32 0 2.64 0 4 0 C4.33 0.66 4.66 1.32 5 2 C5.66 1.34 6.32 0.68 7 0 C9.625 -0.125 9.625 -0.125 12 0 C11.67 1.65 11.34 3.3 11 5 C9.58847656 5.29003906 9.58847656 5.29003906 8.1484375 5.5859375 C4.7365622 6.7118112 4.7365622 6.7118112 3.5390625 10.0390625 C3.23742187 11.22242187 2.93578125 12.40578125 2.625 13.625 C2.30789062 14.81351563 1.99078125 16.00203125 1.6640625 17.2265625 C1.44492188 18.14179687 1.22578125 19.05703125 1 20 C-0.65 20 -2.3 20 -4 20 C-2.28571429 2.28571429 -2.28571429 2.28571429 0 0 Z " fill="#6C7B80" transform="translate(152,89)"/>
<path d="M0 0 C9.0136951 3.49040959 17.83721505 7.22498744 26.5625 11.38671875 C30.01347494 13.00632403 33.48854775 14.51748636 37 16 C36.505 17.485 36.505 17.485 36 19 C29.25344897 17.33320504 23.09257239 14.76806083 16.84521484 11.77490234 C10.31382477 8.6457261 3.67530691 5.80794882 -3 3 C-2.01 2.01 -1.02 1.02 0 0 Z " fill="#6F858C" transform="translate(504,166)"/>
<path d="M0 0 C1.65 0 3.3 0 5 0 C4.51358785 6.84817102 3.64006048 13.33042073 2 20 C0.02 20 -1.96 20 -4 20 C-2.07289294 6.3667426 -2.07289294 6.3667426 0 0 Z " fill="#738288" transform="translate(444,89)"/>
<path d="M0 0 C1.65 0 3.3 0 5 0 C5 0.99 5 1.98 5 3 C6.32 3.66 7.64 4.32 9 5 C7.68 5.33 6.36 5.66 5 6 C5.66 7.32 6.32 8.64 7 10 C10.465 9.505 10.465 9.505 14 9 C14 10.32 14 11.64 14 13 C10.39427296 14.20190901 7.7897565 14.32670315 4 14 C1.0625 12.5 1.0625 12.5 -1 10 C-1.59842983 6.51947705 -1.60902074 3.21804148 0 0 Z " fill="#737E84" transform="translate(241,95)"/>
<path d="M0 0 C0.33 1.32 0.66 2.64 1 4 C-1.31 4 -3.62 4 -6 4 C-6.06058594 4.74765625 -6.12117188 5.4953125 -6.18359375 6.265625 C-6.26738281 7.25046875 -6.35117187 8.2353125 -6.4375 9.25 C-6.51871094 10.22453125 -6.59992188 11.1990625 -6.68359375 12.203125 C-6.95074584 14.56461753 -7.35371968 16.71901065 -8 19 C-9.32 18.34 -10.64 17.68 -12 17 C-12.68862988 7.32092452 -12.68862988 7.32092452 -10.125 3.4375 C-6.83448446 -0.33691488 -4.86138404 -0.10568226 0 0 Z " fill="#717C80" transform="translate(362,89)"/>
<path d="M0 0 C2.64 0 5.28 0 8 0 C8 1.32 8 2.64 8 4 C7.01 4 6.02 4 5 4 C4.9175 5.093125 4.835 6.18625 4.75 7.3125 C4 11 4 11 2.125 12.9375 C0 14 0 14 -3 14 C-3 13.34 -3 12.68 -3 12 C-3.66 12 -4.32 12 -5 12 C-5 9.69 -5 7.38 -5 5 C-3.35 4.67 -1.7 4.34 0 4 C0 5.32 0 6.64 0 8 C0.66 8 1.32 8 2 8 C1.67 6.865625 1.34 5.73125 1 4.5625 C0 1 0 1 0 0 Z " fill="#6F7A81" transform="translate(466,89)"/>
<path d="M0 0 C1.32 0.33 2.64 0.66 4 1 C2.84870075 11.77409891 2.84870075 11.77409891 -0.25 16.25 C-3.45909873 18.29215374 -5.26475997 18.43433024 -9 18 C-8.67 17.34 -8.34 16.68 -8 16 C-7.01 16 -6.02 16 -5 16 C-4.89042969 15.18015625 -4.78085937 14.3603125 -4.66796875 13.515625 C-4.50941406 12.43796875 -4.35085938 11.3603125 -4.1875 10.25 C-4.03667969 9.18265625 -3.88585937 8.1153125 -3.73046875 7.015625 C-2.98679593 3.94548906 -2.07234528 2.33919522 0 0 Z " fill="#B6DEE2" transform="translate(509,94)"/>
<path d="M0 0 C-0.48578543 3.12290635 -0.9986012 5.99580359 -2 9 C-1.34 9.33 -0.68 9.66 0 10 C-0.33 10.33 -0.66 10.66 -1 11 C-0.34 11.33 0.32 11.66 1 12 C1 13.32 1 14.64 1 16 C-4.72210596 14.13236819 -10.37661751 12.14710968 -16 10 C-16 9.67 -16 9.34 -16 9 C-13.03 9 -10.06 9 -7 9 C-7.103125 8.071875 -7.20625 7.14375 -7.3125 6.1875 C-7.1578125 4.6096875 -7.1578125 4.6096875 -7 3 C-4.61107499 1.11400657 -3.08148442 0 0 0 Z " fill="#B9E1E6" transform="translate(510,153)"/>
<path d="M0 0 C2.64 0.33 5.28 0.66 8 1 C8 1.66 8 2.32 8 3 C7.01 3 6.02 3 5 3 C5.99 4.485 5.99 4.485 7 6 C8.97747122 6.36297936 8.97747122 6.36297936 11.125 6.1875 C12.40375 6.125625 13.6825 6.06375 15 6 C15 7.32 15 8.64 15 10 C12.35559361 10.8814688 10.71939248 11.16174818 8 11.1875 C7.319375 11.20167969 6.63875 11.21585938 5.9375 11.23046875 C4 11 4 11 1 9 C0.48828125 6.8359375 0.48828125 6.8359375 0.3125 4.375 C0.24675781 3.55773437 0.18101563 2.74046875 0.11328125 1.8984375 C0.07589844 1.27195312 0.03851563 0.64546875 0 0 Z " fill="#6D7880" transform="translate(126,98)"/>
<path d="M0 0 C0.99 0 1.98 0 3 0 C4.76462683 3.08809695 5 4.23312136 5 8 C4.01 8.33 3.02 8.66 2 9 C1.01 10.485 1.01 10.485 0 12 C-0.99 12.33 -1.98 12.66 -3 13 C-3 14.32 -3 15.64 -3 17 C-5.91517292 15.92598892 -7.77810176 15.22189824 -10 13 C-10 12.01 -10 11.02 -10 10 C-6.71303767 9.20046862 -5.28976808 8.90341064 -2 10 C0.09350689 6.5980513 0.17942163 3.94727588 0 0 Z " fill="#B2DDE1" transform="translate(490,147)"/>
<path d="M0 0 C-1.485 1.485 -1.485 1.485 -3 3 C-1.68 3.66 -0.36 4.32 1 5 C1 6.32 1 7.64 1 9 C-1.97 9 -4.94 9 -8 9 C-8.33 8.34 -8.66 7.68 -9 7 C-9 8.65 -9 10.3 -9 12 C-9.99 11.67 -10.98 11.34 -12 11 C-12.46233492 7.0239197 -12.30954571 5.43148796 -9.9375 2.125 C-6.34962488 -0.47048413 -4.3322929 -0.4247346 0 0 Z " fill="#77878B" transform="translate(463,105)"/>
<path d="M0 0 C1.32 0 2.64 0 4 0 C3.03644647 10.55808656 3.03644647 10.55808656 2 15 C0.35 15 -1.3 15 -3 15 C-4.79924513 9.92940008 -2.97953776 5.74305086 -1 1 C-0.67 0.67 -0.34 0.34 0 0 Z " fill="#B6E3EB" transform="translate(322,94)"/>
<path d="M0 0 C1.1446875 0.1546875 1.1446875 0.1546875 2.3125 0.3125 C0.9925 0.6425 -0.3275 0.9725 -1.6875 1.3125 C-1.80996094 2.58996094 -1.93242187 3.86742188 -2.05859375 5.18359375 C-2.6300752 10.32692683 -3.64111225 15.32427101 -4.75 20.375 C-4.93626953 21.24060547 -5.12253906 22.10621094 -5.31445312 22.99804688 C-5.76816267 25.10372451 -6.22726004 27.20824007 -6.6875 29.3125 C-8.6875 27.3125 -8.6875 27.3125 -8.953125 25.32421875 C-8.92248396 20.76636385 -8.52449331 17.52677878 -6.6875 13.3125 C-6.51273525 11.98264947 -6.36941529 10.64845851 -6.25 9.3125 C-5.74638784 4.80559792 -5.1047046 0.5935703 0 0 Z " fill="#C2E3E4" transform="translate(282.6875,79.6875)"/>
<path d="M0 0 C0.33 0.99 0.66 1.98 1 3 C-0.39403068 4.5641085 -1.79031505 6.1262085 -3.1875 7.6875 C-3.96480469 8.55761719 -4.74210938 9.42773438 -5.54296875 10.32421875 C-7.96313516 12.95985308 -10.45499149 15.48493277 -13 18 C-14.18427135 19.18291576 -15.36781399 20.36656134 -16.55078125 21.55078125 C-20.03385417 25.03385417 -23.51692708 28.51692708 -27 32 C-27.66 31.67 -28.32 31.34 -29 31 C-28.56429687 30.57589844 -28.12859375 30.15179688 -27.6796875 29.71484375 C-24.06365262 26.15359728 -20.66513674 22.50701962 -17.40234375 18.62109375 C-15.38930694 16.29404563 -13.17507076 14.17507076 -11 12 C-10.09592665 10.90256992 -9.20009916 9.79829661 -8.3125 8.6875 C-7.549375 7.800625 -6.78625 6.91375 -6 6 C-5.34 6 -4.68 6 -4 6 C-3.566875 5.071875 -3.566875 5.071875 -3.125 4.125 C-2 2 -2 2 0 0 Z " fill="#E9FCFD" transform="translate(581,144)"/>
<path d="M0 0 C0.66 0 1.32 0 2 0 C1.00318287 6.45810245 -0.01636492 12.76571832 -2 19 C-2.33 19 -2.66 19 -3 19 C-4.28571429 11.57142857 -4.28571429 11.57142857 -3 8 C-3.66 8 -4.32 8 -5 8 C-5 8.66 -5 9.32 -5 10 C-5.99 9.67 -6.98 9.34 -8 9 C-7.01 6.36 -6.02 3.72 -5 1 C-3.68 1.66 -2.36 2.32 -1 3 C-0.67 2.01 -0.34 1.02 0 0 Z " fill="#BCE6E7" transform="translate(442,89)"/>
<path d="M0 0 C0.99 0.66 1.98 1.32 3 2 C3 2.99 3 3.98 3 5 C2.34 5 1.68 5 1 5 C0.67 6.32 0.34 7.64 0 9 C-0.33 7.35 -0.66 5.7 -1 4 C-2.98 4.33 -4.96 4.66 -7 5 C-7 5.66 -7 6.32 -7 7 C-8.65 7.33 -10.3 7.66 -12 8 C-11.68306247 5.06832781 -11.36774166 3.41017339 -9.375 1.1875 C-6.09896279 -0.45051861 -3.61413643 -0.32855786 0 0 Z " fill="#6B7981" transform="translate(140,89)"/>
<path d="M0 0 C0.66 0.33 1.32 0.66 2 1 C-2.5 5 -2.5 5 -7 5 C-7 5.66 -7 6.32 -7 7 C-7.53367187 7.1959375 -8.06734375 7.391875 -8.6171875 7.59375 C-14.54464408 9.97293673 -19.0609218 13.18284327 -23.93359375 17.29296875 C-26 19 -26 19 -28 20 C-28.66 19.34 -29.32 18.68 -30 18 C-28.68 17.34 -27.36 16.68 -26 16 C-26 15.34 -26 14.68 -26 14 C-20.39641147 9.77036827 -13.74041283 6.75145197 -7.5 3.5625 C-6.79359375 3.19624512 -6.0871875 2.82999023 -5.359375 2.45263672 C-3.60333942 1.57164116 -1.8041507 0.77772384 0 0 Z " fill="#CBEBEF" transform="translate(72,24)"/>
<path d="M0 0 C0.33 0 0.66 0 1 0 C0.62066107 6.27905762 0.19682082 12.45343486 -1.0625 18.625 C-2.48647201 25.89363327 -2.45506708 32.75930906 -1 40 C-0.88321201 42.67678073 -0.9545494 45.31841457 -1 48 C-1.33 48 -1.66 48 -2 48 C-3.68638793 42.13110232 -4.32101932 36.90583274 -4.25 30.8125 C-4.24468262 29.98387451 -4.23936523 29.15524902 -4.23388672 28.30151367 C-4.08556539 18.61087384 -2.5626865 9.33550083 0 0 Z " fill="#C9E8ED" transform="translate(9,88)"/>
<path d="M0 0 C0.66 0 1.32 0 2 0 C0.80039297 8.02715768 -0.49746145 16.0237581 -2 24 C-2.33 23.34 -2.66 22.68 -3 22 C-3.66 22 -4.32 22 -5 22 C-5.31465522 16.02155081 -4.6020798 12.50439958 -2 7 C-1.25010014 4.6821277 -0.62505335 2.3559703 0 0 Z " fill="#BFE5E2" transform="translate(265,84)"/>
<path d="M0 0 C-1.20381448 2.49361571 -2.45428722 4.68143083 -4 7 C-4.24149965 9.1508644 -4.24149965 9.1508644 -4.125 11.4375 C-4.10695313 12.19933594 -4.08890625 12.96117188 -4.0703125 13.74609375 C-4.04710937 14.48988281 -4.02390625 15.23367187 -4 16 C-4 17.32 -4 18.64 -4 20 C-6.94851556 17.65511755 -7.93035506 16.57666013 -8.390625 12.765625 C-8.34421875 11.60546875 -8.2978125 10.4453125 -8.25 9.25 C-8.21390625 8.07953125 -8.1778125 6.9090625 -8.140625 5.703125 C-8.09421875 4.81109375 -8.0478125 3.9190625 -8 3 C-2.25 0 -2.25 0 0 0 Z " fill="#BDE7E8" transform="translate(482,89)"/>
<path d="M0 0 C1.010625 0.0825 2.02125 0.165 3.0625 0.25 C3.7225 1.24 4.3825 2.23 5.0625 3.25 C5.7225 3.91 6.3825 4.57 7.0625 5.25 C7.6875 7.375 7.6875 7.375 8.0625 9.25 C4.3125 12.25 4.3125 12.25 2.0625 12.25 C1.7325 11.26 1.4025 10.27 1.0625 9.25 C0.7325 10.24 0.4025 11.23 0.0625 12.25 C0.0625 10.93 0.0625 9.61 0.0625 8.25 C1.0525 8.25 2.0425 8.25 3.0625 8.25 C3.0625 6.93 3.0625 5.61 3.0625 4.25 C1.0825 4.58 -0.8975 4.91 -2.9375 5.25 C-3.5 3.3125 -3.5 3.3125 -3.9375 1.25 C-2.9375 0.25 -2.9375 0.25 0 0 Z " fill="#B1E5EB" transform="translate(448.9375,80.75)"/>
<path d="M0 0 C1.32 0.33 2.64 0.66 4 1 C3.34 1 2.68 1 2 1 C2.03480469 1.71285156 2.06960938 2.42570312 2.10546875 3.16015625 C2.27931846 9.31112456 1.90464152 13.55379715 -1 19 C-1.66 18.67 -2.32 18.34 -3 18 C-3 4.5 -3 4.5 0 0 Z " fill="#BDE2E0" transform="translate(455,90)"/>
<path d="M0 0 C1.32 0.33 2.64 0.66 4 1 C3.125 8.75 3.125 8.75 2 11 C0.35 11 -1.3 11 -3 11 C-3.36923077 4.6 -3.36923077 4.6 -1.5 1.5625 C-1.005 1.046875 -0.51 0.53125 0 0 Z " fill="#BAE9F0" transform="translate(200,93)"/>
<path d="M0 0 C0 0.99 0 1.98 0 3 C1.32 3.33 2.64 3.66 4 4 C2.125 8.75 2.125 8.75 1 11 C0.34 10.67 -0.32 10.34 -1 10 C-1 8.02 -1 6.04 -1 4 C-3.64 4.33 -6.28 4.66 -9 5 C-9.33 3.68 -9.66 2.36 -10 1 C-8.71073008 0.63720544 -7.41846728 0.28503302 -6.125 -0.0625 C-5.40570313 -0.25972656 -4.68640625 -0.45695312 -3.9453125 -0.66015625 C-2 -1 -2 -1 0 0 Z " fill="#B9E6F1" transform="translate(434,100)"/>
<path d="M0 0 C0 0.99 0 1.98 0 3 C1.32 3.33 2.64 3.66 4 4 C2.125 8.75 2.125 8.75 1 11 C0.34 10.67 -0.32 10.34 -1 10 C-1 8.02 -1 6.04 -1 4 C-3.64 4.33 -6.28 4.66 -9 5 C-9.33 3.68 -9.66 2.36 -10 1 C-8.71073008 0.63720544 -7.41846728 0.28503302 -6.125 -0.0625 C-5.40570313 -0.25972656 -4.68640625 -0.45695312 -3.9453125 -0.66015625 C-2 -1 -2 -1 0 0 Z " fill="#B9E6F1" transform="translate(306,100)"/>
<path d="M0 0 C0.66 0 1.32 0 2 0 C2.33 0.99 2.66 1.98 3 3 C2.01 4.485 2.01 4.485 1 6 C0.72214568 7.95379499 0.72214568 7.95379499 0.8125 10 C0.81894531 10.680625 0.82539062 11.36125 0.83203125 12.0625 C0.94302254 14.21758209 0.94302254 14.21758209 2 17 C2.66 17.33 3.32 17.66 4 18 C4 18.66 4 19.32 4 20 C3.01 20.33 2.02 20.66 1 21 C1 20.34 1 19.68 1 19 C0.34 18.67 -0.32 18.34 -1 18 C-1 17.01 -1 16.02 -1 15 C-1.66 14.34 -2.32 13.68 -3 13 C-3.34247495 8.46220695 -3.04161132 5.08322264 -1 1 C-0.67 0.67 -0.34 0.34 0 0 Z " fill="#C0E7E7" transform="translate(126,90)"/>
<path d="M0 0 C2.69082872 0.17635452 5.32851446 0.61835921 8 1 C6.75748267 4.72755198 4.79248421 6.27400351 2 9 C1.46375 9.763125 0.9275 10.52625 0.375 11.3125 C-0.305625 12.1478125 -0.305625 12.1478125 -1 13 C-1.99 13 -2.98 13 -4 13 C-3.04301263 10.53917533 -2.10195379 8.18244362 -0.8125 5.875 C0.31725799 3.83950715 0.31725799 3.83950715 -1 1 C-0.67 0.67 -0.34 0.34 0 0 Z " fill="#C1E4E5" transform="translate(399,92)"/>
<path d="M0 0 C0.17942163 3.94727588 0.09350689 6.5980513 -2 10 C-3.65 10 -5.3 10 -7 10 C-7.22432841 6.70985003 -7.30380397 4.57722754 -5.75 1.625 C-4 0 -4 0 0 0 Z " fill="#C7E4E9" transform="translate(362,94)"/>
<path d="M0 0 C9.9 0.33 19.8 0.66 30 1 C26.68693713 4.31306287 22.32803233 3.60183622 17.8125 3.8125 C16.87857422 3.87630859 15.94464844 3.94011719 14.98242188 4.00585938 C9.10401576 4.29957284 5.2062117 3.78672742 0 1 C0 0.67 0 0.34 0 0 Z " fill="#E8FBFC" transform="translate(476,202)"/>
<path d="M0 0 C0.33 0.66 0.66 1.32 1 2 C1.5775 1.814375 2.155 1.62875 2.75 1.4375 C5.20692525 0.95976454 6.64397534 1.24270636 9 2 C9 2.99 9 3.98 9 5 C8.34 5 7.68 5 7 5 C7.33 6.65 7.66 8.3 8 10 C5.36 9.67 2.72 9.34 0 9 C0.66 8.34 1.32 7.68 2 7 C1.67 6.34 1.34 5.68 1 5 C0.01 4.67 -0.98 4.34 -2 4 C-1.34 2.68 -0.68 1.36 0 0 Z " fill="#78858C" transform="translate(244,91)"/>
<path d="M0 0 C1.32 0 2.64 0 4 0 C3.54775239 5.91492272 2.8417395 11.35199888 1 17 C0.34 17 -0.32 17 -1 17 C-1.33 13.7 -1.66 10.4 -2 7 C-1.01 6.67 -0.02 6.34 1 6 C1 5.34 1 4.68 1 4 C0.34 3.67 -0.32 3.34 -1 3 C-0.67 2.01 -0.34 1.02 0 0 Z " fill="#6D7D87" transform="translate(365,89)"/>
<path d="M0 0 C0.66 0.99 1.32 1.98 2 3 C1.505 3.639375 1.01 4.27875 0.5 4.9375 C-1.47745614 8.97480629 -1.95447219 12.57704403 -1 17 C1.33749166 19.15602694 1.33749166 19.15602694 4 20 C3.01 20.66 2.02 21.32 1 22 C0.54625 21.525625 0.0925 21.05125 -0.375 20.5625 C-1.93258204 18.90972192 -1.93258204 18.90972192 -4 18 C-4 13.38 -4 8.76 -4 4 C-3.34 4 -2.68 4 -2 4 C-2 3.34 -2 2.68 -2 2 C-1.34 2 -0.68 2 0 2 C0 1.34 0 0.68 0 0 Z " fill="#BFE3E4" transform="translate(292,89)"/>
<path d="M0 0 C0 0.66 0 1.32 0 2 C-3.67924233 3.92366477 -7.21642442 5.75417237 -11.1875 7 C-14.39400156 8.14008944 -16.46315652 9.76160869 -19 12 C-19.99 11.34 -20.98 10.68 -22 10 C-5.73333333 0 -5.73333333 0 0 0 Z " fill="#C8E9ED" transform="translate(552,33)"/>
<path d="M0 0 C1.98 0 3.96 0 6 0 C6 0.99 6 1.98 6 3 C3.91796875 4.640625 3.91796875 4.640625 1.1875 6.25 C-0.15248047 7.06210938 -0.15248047 7.06210938 -1.51953125 7.890625 C-4 9 -4 9 -7 8 C-7 7.34 -7 6.68 -7 6 C-6.360625 5.71125 -5.72125 5.4225 -5.0625 5.125 C-2.84793921 4.17176549 -2.84793921 4.17176549 -2 2 C-1.34 2 -0.68 2 0 2 C0 1.34 0 0.68 0 0 Z " fill="#F4F5F8" transform="translate(539,187)"/>
<path d="M0 0 C1.98 0 3.96 0 6 0 C5.71617054 1.75128818 5.42260471 3.50100003 5.125 5.25 C4.96257812 6.22453125 4.80015625 7.1990625 4.6328125 8.203125 C4.05144152 10.77264117 3.29159735 12.72071056 2 15 C2 12.36 2 9.72 2 7 C1.01 7 0.02 7 -1 7 C-0.67 4.69 -0.34 2.38 0 0 Z " fill="#6F8188" transform="translate(218,89)"/>
<path d="M0 0 C2.475 0.99 2.475 0.99 5 2 C4.67 2.99 4.34 3.98 4 5 C4.33 5.33 4.66 5.66 5 6 C5.144375 6.969375 5.28875 7.93875 5.4375 8.9375 C5.71820338 12.09669202 5.71820338 12.09669202 8 14 C4 14 4 14 2 13 C1.61781233 11.34385343 1.28604898 9.67542976 1 8 C0.16666667 5.83333333 0.16666667 5.83333333 -2 5 C-1.34 5 -0.68 5 0 5 C0 3.35 0 1.7 0 0 Z " fill="#BFE6E6" transform="translate(446,104)"/>
<path d="M0 0 C0.33 0.66 0.66 1.32 1 2 C1.99 1.67 2.98 1.34 4 1 C5.39439664 0.93334624 6.79169875 0.91461801 8.1875 0.9375 C10.0746875 0.9684375 10.0746875 0.9684375 12 1 C12 2.32 12 3.64 12 5 C8.31620978 6.17881287 4.84458427 6.21358801 1 6 C0.34 5.34 -0.32 4.68 -1 4 C-0.625 1.875 -0.625 1.875 0 0 Z " fill="#6E8188" transform="translate(480,103)"/>
<path d="M0 0 C0.33 0.66 0.66 1.32 1 2 C3.31 2 5.62 2 8 2 C7.67 3.32 7.34 4.64 7 6 C1.375 7.125 1.375 7.125 -2 6 C-2.33 6.99 -2.66 7.98 -3 9 C-3.75 7.3125 -3.75 7.3125 -4 5 C-2.0625 2.25 -2.0625 2.25 0 0 Z " fill="#798287" transform="translate(481,91)"/>
<path d="M0 0 C0.33 0.66 0.66 1.32 1 2 C0.00390625 4.3828125 0.00390625 4.3828125 -1.4375 7.125 C-1.91058594 8.03507813 -2.38367188 8.94515625 -2.87109375 9.8828125 C-3.24363281 10.58148438 -3.61617188 11.28015625 -4 12 C-5.65 12 -7.3 12 -9 12 C-7.13601933 6.00863357 -5.55561689 3.07020933 0 0 Z " fill="#B2D9DF" transform="translate(500,181)"/>
<path d="M0 0 C0.66 0.99 1.32 1.98 2 3 C3.97747122 3.36297936 3.97747122 3.36297936 6.125 3.1875 C7.40375 3.125625 8.6825 3.06375 10 3 C10 4.32 10 5.64 10 7 C6.47940432 8.17353189 3.693507 8.20146402 0 8 C-0.66 7.34 -1.32 6.68 -2 6 C-2 5.34 -2 4.68 -2 4 C-1.34 4 -0.68 4 0 4 C0 2.68 0 1.36 0 0 Z " fill="#6F7E86" transform="translate(423,101)"/>
<path d="M0 0 C0.66 0 1.32 0 2 0 C1.48446121 6.49850211 0.53332291 12.66226532 -1 19 C-1.66 19 -2.32 19 -3 19 C-3 14.38 -3 9.76 -3 5 C-2.34 5 -1.68 5 -1 5 C-0.67 3.35 -0.34 1.7 0 0 Z " fill="#BDE1DF" transform="translate(167,90)"/>
<path d="M0 0 C0.12375 0.61875 0.2475 1.2375 0.375 1.875 C0.87197356 4.19120832 0.87197356 4.19120832 3 6 C-0.37097383 7.49821059 -2.20442119 8 -6 8 C-6.6875 5.6875 -6.6875 5.6875 -7 3 C-4.87164172 -0.24854684 -4.06968429 0 0 0 Z " fill="#6B8389" transform="translate(431,93)"/>
<path d="M0 0 C0.33 2.31 0.66 4.62 1 7 C0.67 6.01 0.34 5.02 0 4 C-0.66 4 -1.32 4 -2 4 C-2 3.34 -2 2.68 -2 2 C-3.32 1.34 -4.64 0.68 -6 0 C-6 0.99 -6 1.98 -6 3 C-5.34 3 -4.68 3 -4 3 C-4.33 3.99 -4.66 4.98 -5 6 C-5 5.34 -5 4.68 -5 4 C-6.96756452 4.03122943 -6.96756452 4.03122943 -9 5 C-10.3045656 7.99615946 -10.3045656 7.99615946 -11 11 C-11.33 11 -11.66 11 -12 11 C-11.52148997 3.82234957 -11.52148997 3.82234957 -9.375 0.4375 C-5.99823287 -1.60633274 -3.74063573 -0.86322363 0 0 Z " fill="#738A91" transform="translate(331,90)"/>
<path d="M0 0 C0.66 0.66 1.32 1.32 2 2 C1.67 2.33 1.34 2.66 1 3 C2.32 3.33 3.64 3.66 5 4 C5 4.99 5 5.98 5 7 C3.865625 7.12375 2.73125 7.2475 1.5625 7.375 C-0.2009375 7.684375 -0.2009375 7.684375 -2 8 C-2.33 8.66 -2.66 9.32 -3 10 C-3.33 7.36 -3.66 4.72 -4 2 C-2.68 1.34 -1.36 0.68 0 0 Z " fill="#6F8086" transform="translate(298,89)"/>
<path d="M0 0 C1.35949488 4.07848463 0.14486103 7.17680945 -0.9375 11.1875 C-1.13279297 11.93708984 -1.32808594 12.68667969 -1.52929688 13.45898438 C-2.01214375 15.30793459 -2.50510633 17.15423776 -3 19 C-3.33 19 -3.66 19 -4 19 C-3.91621094 18.08476563 -3.83242188 17.16953125 -3.74609375 16.2265625 C-3.64425781 15.03804687 -3.54242188 13.84953125 -3.4375 12.625 C-3.33308594 11.44164063 -3.22867187 10.25828125 -3.12109375 9.0390625 C-2.75846404 6.08101369 -2.75846404 6.08101369 -4 4 C-2.68 2.68 -1.36 1.36 0 0 Z M-7 4 C-6.01 4.66 -5.02 5.32 -4 6 C-4.99 7.32 -5.98 8.64 -7 10 C-7.66 9.67 -8.32 9.34 -9 9 C-8.34 7.35 -7.68 5.7 -7 4 Z " fill="#BEE2E4" transform="translate(315,89)"/>
<path d="M0 0 C1.32 0.33 2.64 0.66 4 1 C3.855625 1.969375 3.71125 2.93875 3.5625 3.9375 C3.01241862 7.67346936 2.6787214 11.4160505 2.37890625 15.1796875 C2.25386719 15.78039062 2.12882813 16.38109375 2 17 C1.34 17.33 0.68 17.66 0 18 C-0.02705729 16.22925083 -0.04642195 14.45838289 -0.0625 12.6875 C-0.07410156 11.70136719 -0.08570313 10.71523437 -0.09765625 9.69921875 C0 7 0 7 1 4 C0.01 4.33 -0.98 4.66 -2 5 C-1.34 3.35 -0.68 1.7 0 0 Z " fill="#BBDDDE" transform="translate(176,93)"/>
<path d="M0 0 C2.30123461 3.45185191 2.09722333 5.05207597 1.4921875 9.05859375 C0.86201191 11.54428635 -0.23521758 13.15848791 -2 15 C-3.56033623 13.43966377 -3.20707559 11.91052864 -3.25 9.75 C-3.22417607 5.70209821 -2.5319768 3.27047003 0 0 Z " fill="#778086" transform="translate(421,92)"/>
<path d="M0 0 C0.66 0.33 1.32 0.66 2 1 C1.5520266 3.31452922 1.09133539 5.62660039 0.625 7.9375 C0.36976563 9.22527344 0.11453125 10.51304688 -0.1484375 11.83984375 C-0.42945313 12.88269531 -0.71046875 13.92554687 -1 15 C-1.99 15.495 -1.99 15.495 -3 16 C-3 11.05 -3 6.1 -3 1 C-2.01 0.67 -1.02 0.34 0 0 Z " fill="#C3E0E2" transform="translate(150,89)"/>
<path d="M0 0 C0.99 0 1.98 0 3 0 C3 1.98 3 3.96 3 6 C2.67 6 2.34 6 2 6 C1.67 8.64 1.34 11.28 1 14 C0.01 13.67 -0.98 13.34 -2 13 C-2.05447047 11.58376784 -2.09300508 10.16691809 -2.125 8.75 C-2.14820313 7.96109375 -2.17140625 7.1721875 -2.1953125 6.359375 C-1.9828378 3.79268059 -1.28654105 2.2083933 0 0 Z " fill="#B9EAF1" transform="translate(383,94)"/>
<path d="M0 0 C2 3 2 3 1.5390625 5.69921875 C1.23742187 6.68535156 0.93578125 7.67148438 0.625 8.6875 C0.32851562 9.68136719 0.03203125 10.67523438 -0.2734375 11.69921875 C-0.51320312 12.45847656 -0.75296875 13.21773437 -1 14 C-2.65 14 -4.3 14 -6 14 C-6 12.35 -6 10.7 -6 9 C-5.01 9 -4.02 9 -3 9 C-2.01 6.03 -1.02 3.06 0 0 Z " fill="#6D7E89" transform="translate(172,95)"/>
<path d="M0 0 C0.66 0.33 1.32 0.66 2 1 C1.566875 1.99 1.566875 1.99 1.125 3 C-0.23437299 6.62499465 -1.10624639 10.23346693 -2 14 C-3.65 14 -5.3 14 -7 14 C-6.67 13.01 -6.34 12.02 -6 11 C-5.34 11 -4.68 11 -4 11 C-3.896875 9.9275 -3.79375 8.855 -3.6875 7.75 C-3.02599507 4.14179128 -2.42516579 2.63604977 0 0 Z " fill="#6B7B85" transform="translate(506,95)"/>
<path d="M0 0 C0.66 0.33 1.32 0.66 2 1 C2.33 1.99 2.66 2.98 3 4 C2.34 4.66 1.68 5.32 1 6 C0.83322718 9.58343976 0.83322718 9.58343976 1 13 C-0.32 13 -1.64 13 -3 13 C-2.34 9.7 -1.68 6.4 -1 3 C-2.98 3.66 -4.96 4.32 -7 5 C-7.33 3.68 -7.66 2.36 -8 1 C-5.36 1.33 -2.72 1.66 0 2 C0 1.34 0 0.68 0 0 Z " fill="#7B878C" transform="translate(363,91)"/>
<path d="M0 0 C1.90389849 2.85584773 2.69462177 4.9311762 3.625 8.1875 C3.88539063 9.08855469 4.14578125 9.98960937 4.4140625 10.91796875 C4.60742188 11.60503906 4.80078125 12.29210937 5 13 C4.01 13.33 3.02 13.66 2 14 C1.27273948 12.4252706 0.56879578 10.83975721 -0.125 9.25 C-0.51945312 8.36828125 -0.91390625 7.4865625 -1.3203125 6.578125 C-2 4 -2 4 -1.1171875 1.671875 C-0.74851562 1.12015625 -0.37984375 0.5684375 0 0 Z " fill="#808183" transform="translate(512,204)"/>
<path d="M0 0 C-0.33 1.65 -0.66 3.3 -1 5 C-8.75 6.125 -8.75 6.125 -11 5 C-11 4.01 -11 3.02 -11 2 C-9.5422647 1.664061 -8.08378894 1.33133376 -6.625 1 C-5.40683594 0.7215625 -5.40683594 0.7215625 -4.1640625 0.4375 C-2 0 -2 0 0 0 Z " fill="#BFE1EC" transform="translate(493,99)"/>
<path d="M0 0 C0.99 0.66 1.98 1.32 3 2 C2.25339288 7.72398793 1.17122859 13.34853777 0 19 C-0.66 19 -1.32 19 -2 19 C-2 18.34 -2 17.68 -2 17 C-2.66 16.67 -3.32 16.34 -4 16 C-3.34 15.34 -2.68 14.68 -2 14 C-1.54152311 11.63969304 -1.17856869 9.2601826 -0.875 6.875 C-0.70742188 5.59367187 -0.53984375 4.31234375 -0.3671875 2.9921875 C-0.24601562 2.00476563 -0.12484375 1.01734375 0 0 Z " fill="#C0E3E2" transform="translate(499,90)"/>
<path d="M0 0 C0.33 0 0.66 0 1 0 C1.07347656 1.03060547 1.07347656 1.03060547 1.1484375 2.08203125 C1.22320312 2.98308594 1.29796875 3.88414063 1.375 4.8125 C1.44460938 5.70582031 1.51421875 6.59914063 1.5859375 7.51953125 C1.86645036 10.24398499 1.86645036 10.24398499 4 13 C3.34 13.66 2.68 14.32 2 15 C0.35 13.68 -1.3 12.36 -3 11 C-2.69217504 9.35328588 -2.37860766 7.70764424 -2.0625 6.0625 C-1.88847656 5.14597656 -1.71445312 4.22945313 -1.53515625 3.28515625 C-1 1 -1 1 0 0 Z " fill="#BEDEDF" transform="translate(349,96)"/>
<path d="M0 0 C0.66 0.33 1.32 0.66 2 1 C-0.33333333 3.33333333 -2.66666667 5.66666667 -5 8 C-5.78890625 8.86625 -5.78890625 8.86625 -6.59375 9.75 C-7.0578125 10.1625 -7.521875 10.575 -8 11 C-10.1875 10.6875 -10.1875 10.6875 -12 10 C-10.68 9.34 -9.36 8.68 -8 8 C-8 7.34 -8 6.68 -8 6 C-6.02678947 4.6273318 -4.02456848 3.29572383 -2 2 C-1.34 1.34 -0.68 0.68 0 0 Z M-14 11 C-13.34 11.33 -12.68 11.66 -12 12 C-12.66 12.66 -13.32 13.32 -14 14 C-14.99 13.67 -15.98 13.34 -17 13 C-16.01 12.34 -15.02 11.68 -14 11 Z " fill="#C6E9EB" transform="translate(526,45)"/>
<path d="M0 0 C2.97 0 5.94 0 9 0 C9 1.32 9 2.64 9 4 C6.24921116 4.91692961 4.64051087 5.10886083 1.8125 5.0625 C-0.0746875 5.0315625 -0.0746875 5.0315625 -2 5 C-1.34 3.35 -0.68 1.7 0 0 Z " fill="#6C8589" transform="translate(132,104)"/>
<path d="M0 0 C0.33 0 0.66 0 1 0 C0.67 3.63 0.34 7.26 0 11 C-1.65 11.33 -3.3 11.66 -5 12 C-4.67 10.35 -4.34 8.7 -4 7 C-3.34 7 -2.68 7 -2 7 C-1.855625 6.030625 -1.71125 5.06125 -1.5625 4.0625 C-1 1 -1 1 0 0 Z " fill="#6C8289" transform="translate(330,97)"/>
<path d="M0 0 C0.33 0 0.66 0 1 0 C1.12375 0.969375 1.2475 1.93875 1.375 2.9375 C1.684375 4.4534375 1.684375 4.4534375 2 6 C2.66 6.33 3.32 6.66 4 7 C4 8.65 4 10.3 4 12 C2.02 12 0.04 12 -2 12 C-1.34 8.04 -0.68 4.08 0 0 Z " fill="#73858B" transform="translate(375,97)"/>
<path d="M0 0 C0.33 0.66 0.66 1.32 1 2 C0.34 2 -0.32 2 -1 2 C-1.19425873 4.79134852 -1.38069517 7.58283687 -1.5625 10.375 C-1.61857422 11.1690625 -1.67464844 11.963125 -1.73242188 12.78125 C-2.15352804 17.01590885 -2.15352804 17.01590885 -1 21 C-1.99 20.67 -2.98 20.34 -4 20 C-4 14.06 -4 8.12 -4 2 C-2.68 1.34 -1.36 0.68 0 0 Z " fill="#C0E0DE" transform="translate(219,87)"/>
<path d="M0 0 C4.24822374 0.47202486 6.19989709 2.96655518 9 6 C8.67 6.99 8.34 7.98 8 9 C6.35 9.33 4.7 9.66 3 10 C3.2475 9.4225 3.495 8.845 3.75 8.25 C3.87375 7.13625 3.87375 7.13625 4 6 C2.10413616 3.85410577 2.10413616 3.85410577 0 2 C0 1.34 0 0.68 0 0 Z " fill="#7A7A7C" transform="translate(540,205)"/>
<path d="M0 0 C0.33 0.66 0.66 1.32 1 2 C2.0209375 1.6596875 2.0209375 1.6596875 3.0625 1.3125 C7.15527655 0.87709824 9.33132959 2.20163215 13 4 C12.67 4.99 12.34 5.98 12 7 C10.41375765 6.57316761 8.8310902 6.13303842 7.25 5.6875 C6.36828125 5.44386719 5.4865625 5.20023438 4.578125 4.94921875 C1.94227495 3.97874669 0.14592674 2.78994356 -2 1 C-1.34 0.67 -0.68 0.34 0 0 Z " fill="#718892" transform="translate(528,178)"/>
<path d="M0 0 C3.96 0 7.92 0 12 0 C12 0.99 12 1.98 12 3 C8.04 3 4.08 3 0 3 C0 2.01 0 1.02 0 0 Z " fill="#6C8588" transform="translate(474,173)"/>
<path d="M0 0 C-8.23529412 6.09411765 -8.23529412 6.09411765 -13 8 C-15.17578125 7.5703125 -15.17578125 7.5703125 -17 7 C-15.44038638 6.03697644 -13.87716775 5.07978996 -12.3125 4.125 C-11.44238281 3.59132812 -10.57226562 3.05765625 -9.67578125 2.5078125 C-2.76870281 -1.38435141 -2.76870281 -1.38435141 0 0 Z " fill="#E7FAFC" transform="translate(327,152)"/>
<path d="M0 0 C0.33 0 0.66 0 1 0 C1.22036864 3.85645121 0.60355101 6.49223216 -1 10 C-1.66 10 -2.32 10 -3 10 C-3 10.66 -3 11.32 -3 12 C-2.34 12.33 -1.68 12.66 -1 13 C-1.99 13 -2.98 13 -4 13 C-4.33 13.66 -4.66 14.32 -5 15 C-4.56826496 8.84777564 -3.34594658 5.18082051 0 0 Z " fill="#BBEEF7" transform="translate(510,95)"/>
<path d="M0 0 C0.99 0.33 1.98 0.66 3 1 C3.625 3.3125 3.625 3.3125 4 6 C3.01 7.485 3.01 7.485 2 9 C-0.97 8.505 -0.97 8.505 -4 8 C-3.34 7.67 -2.68 7.34 -2 7 C-2 6.34 -2 5.68 -2 5 C-1.34 5 -0.68 5 0 5 C0 3.35 0 1.7 0 0 Z " fill="#737B83" transform="translate(253,91)"/>
<path d="M0 0 C1.4540625 0.0309375 1.4540625 0.0309375 2.9375 0.0625 C2.9375 1.3825 2.9375 2.7025 2.9375 4.0625 C-1.6825 4.0625 -6.3025 4.0625 -11.0625 4.0625 C-11.0625 3.7325 -11.0625 3.4025 -11.0625 3.0625 C-9.928125 2.753125 -8.79375 2.44375 -7.625 2.125 C-0.5367268 0.01095361 -0.5367268 0.01095361 0 0 Z " fill="#687A83" transform="translate(115.0625,104.9375)"/>
<path d="M0 0 C0.66 0 1.32 0 2 0 C1.85851011 1.6045556 1.71164314 3.20863767 1.5625 4.8125 C1.48128906 5.70582031 1.40007812 6.59914063 1.31640625 7.51953125 C1 10 1 10 0 13 C-1.32 12.34 -2.64 11.68 -4 11 C-3.34 11 -2.68 11 -2 11 C-1.93941406 10.37351562 -1.87882812 9.74703125 -1.81640625 9.1015625 C-1.73261719 8.28429687 -1.64882813 7.46703125 -1.5625 6.625 C-1.48128906 5.81289062 -1.40007812 5.00078125 -1.31640625 4.1640625 C-1 2 -1 2 0 0 Z " fill="#C8E5E5" transform="translate(324,94)"/>
<path d="M0 0 C0.66 0.33 1.32 0.66 2 1 C1.48050781 1.50789063 0.96101563 2.01578125 0.42578125 2.5390625 C-3.6224371 6.53490094 -7.44650891 10.55813614 -11 15 C-11.66 14.67 -12.32 14.34 -13 14 C-11.40064243 12.03756126 -9.79583671 10.08005741 -8.1875 8.125 C-7.73568359 7.56941406 -7.28386719 7.01382813 -6.81835938 6.44140625 C-4.66665152 3.83422739 -2.83377184 1.88918122 0 0 Z " fill="#CDEDF2" transform="translate(37,46)"/>
<path d="M0 0 C0.66 0.33 1.32 0.66 2 1 C-2.14010271 5.54075781 -6.82390176 8.71842138 -12 12 C-12.66 11.67 -13.32 11.34 -14 11 C-12.54634731 9.82750647 -11.08692581 8.66216184 -9.625 7.5 C-8.40683594 6.52546875 -8.40683594 6.52546875 -7.1640625 5.53125 C-5 4 -5 4 -3 4 C-3 3.34 -3 2.68 -3 2 C-2.01 1.34 -1.02 0.68 0 0 Z " fill="#C9EAEF" transform="translate(309,35)"/>
<path d="M0 0 C0.66 0 1.32 0 2 0 C1.69240822 1.97993541 1.3787932 3.95893599 1.0625 5.9375 C0.88847656 7.03964844 0.71445312 8.14179687 0.53515625 9.27734375 C0 12 0 12 -1 13 C-2.66617115 13.04063832 -4.33388095 13.042721 -6 13 C-6 11.35 -6 9.7 -6 8 C-5.67 8.99 -5.34 9.98 -5 11 C-1.87544942 9.35820641 -1.87544942 9.35820641 -1.26953125 6.8359375 C-1.11871094 6.02382812 -0.96789062 5.21171875 -0.8125 4.375 C-0.65394531 3.55773437 -0.49539063 2.74046875 -0.33203125 1.8984375 C-0.22246094 1.27195312 -0.11289062 0.64546875 0 0 Z " fill="#6E848D" transform="translate(282,96)"/>
<path d="M0 0 C1.32 0.33 2.64 0.66 4 1 C4 1.66 4 2.32 4 3 C4.66 3 5.32 3 6 3 C6.33 2.34 6.66 1.68 7 1 C7.33 2.32 7.66 3.64 8 5 C6.35 5 4.7 5 3 5 C3 4.34 3 3.68 3 3 C2.01 3.66 1.02 4.32 0 5 C-3.1875 5.125 -3.1875 5.125 -6 5 C-5.38125 4.731875 -4.7625 4.46375 -4.125 4.1875 C-1.7004767 3.04443152 -1.7004767 3.04443152 0 0 Z " fill="#738B91" transform="translate(224,104)"/>
<path d="M0 0 C1.98 0 3.96 0 6 0 C6 0.66 6 1.32 6 2 C7.32 2 8.64 2 10 2 C10 3.65 10 5.3 10 7 C9.67 5.68 9.34 4.36 9 3 C6.36 3.66 3.72 4.32 1 5 C0.67 3.35 0.34 1.7 0 0 Z " fill="#B6DAE3" transform="translate(246,101)"/>
<path d="M0 0 C2 2 2 2 2 5 C3.98 5 5.96 5 8 5 C8 6.32 8 7.64 8 9 C5.66705225 9.04241723 3.33297433 9.04092937 1 9 C0 8 0 8 -0.09765625 6.15234375 C-0.06510417 4.1015625 -0.03255208 2.05078125 0 0 Z " fill="#C2E3EA" transform="translate(444,80)"/>
<path d="M0 0 C2.64 0 5.28 0 8 0 C8 1.32 8 2.64 8 4 C5.36 4 2.72 4 0 4 C0 2.68 0 1.36 0 0 Z " fill="#BCE3E0" transform="translate(456,110)"/>
<path d="M0 0 C3.83953399 1.27984466 5.65316744 3.81501296 8 7 C6.3125 7.8125 6.3125 7.8125 4 8 C1.48814606 5.8386373 -0.50981219 3.98037561 -2 1 C-1.34 0.67 -0.68 0.34 0 0 Z " fill="#888789" transform="translate(535,198)"/>
<path d="M0 0 C2.64 0 5.28 0 8 0 C8 0.66 8 1.32 8 2 C9.32 2.33 10.64 2.66 12 3 C9 5 9 5 6.51953125 4.5390625 C5.62621094 4.23742187 4.73289062 3.93578125 3.8125 3.625 C2.91144531 3.32851562 2.01039063 3.03203125 1.08203125 2.7265625 C0.39496094 2.48679687 -0.29210937 2.24703125 -1 2 C-0.67 1.34 -0.34 0.68 0 0 Z " fill="#C2E2EB" transform="translate(460,103)"/>
<path d="M0 0 C0.33 0 0.66 0 1 0 C0.67 2.31 0.34 4.62 0 7 C1.32 7 2.64 7 4 7 C4 8.32 4 9.64 4 11 C2.02 11 0.04 11 -2 11 C-1.34 7.37 -0.68 3.74 0 0 Z " fill="#6F878C" transform="translate(179,98)"/>
<path d="M0 0 C0.99 0.33 1.98 0.66 3 1 C3 5.33333333 3 9.66666667 3 14 C1.51171875 12.85546875 1.51171875 12.85546875 0 11 C-0.29296875 8.30078125 -0.29296875 8.30078125 -0.1875 5.3125 C-0.16042969 4.31863281 -0.13335937 3.32476562 -0.10546875 2.30078125 C-0.07066406 1.54152344 -0.03585937 0.78226562 0 0 Z " fill="#BBDDDB" transform="translate(475,95)"/>
<path d="M0 0 C0.99 0 1.98 0 3 0 C2.67 3.63 2.34 7.26 2 11 C1.01 10.67 0.02 10.34 -1 10 C-1.125 2.25 -1.125 2.25 0 0 Z " fill="#6C7B7B" transform="translate(109,83)"/>
<path d="M0 0 C0.99 0 1.98 0 3 0 C2.34 3.3 1.68 6.6 1 10 C0.34 10 -0.32 10 -1 10 C-1.33 10.66 -1.66 11.32 -2 12 C-1.85831863 10.56208484 -1.71148957 9.1246763 -1.5625 7.6875 C-1.48128906 6.88699219 -1.40007812 6.08648437 -1.31640625 5.26171875 C-1 3 -1 3 0 0 Z " fill="#7B8381" transform="translate(501,96)"/>
<path d="M0 0 C0.66 0 1.32 0 2 0 C4.34955038 3.52432557 4.77861795 5.79374114 5 10 C3.5625 12.4375 3.5625 12.4375 2 14 C0.02905192 9.07262981 -0.1799928 5.21979128 0 0 Z " fill="#B2E7EA" transform="translate(392,91)"/>
<path d="M0 0 C1.65 0 3.3 0 5 0 C5 0.99 5 1.98 5 3 C6.32 3.66 7.64 4.32 9 5 C9 5.33 9 5.66 9 6 C2.25 6.125 2.25 6.125 0 5 C0 3.35 0 1.7 0 0 Z " fill="#6F777A" transform="translate(241,95)"/>
<path d="M0 0 C0.83144531 0.05671875 1.66289062 0.1134375 2.51953125 0.171875 C4.55544876 0.3122831 6.59035843 0.46717665 8.625 0.625 C8.625 0.955 8.625 1.285 8.625 1.625 C7.03171875 1.71587891 7.03171875 1.71587891 5.40625 1.80859375 C-5.01215103 2.41770238 -5.01215103 2.41770238 -15.375 3.625 C-15.375 2.965 -15.375 2.305 -15.375 1.625 C-10.03234751 -0.64000801 -5.64125682 -0.44986099 0 0 Z " fill="#E6F9FB" transform="translate(362.375,9.375)"/>
<path d="M0 0 C0.93423645 3.01031744 1.04449911 3.86650268 0 7 C0.66 7 1.32 7 2 7 C2 8.32 2 9.64 2 11 C2.66 11 3.32 11 4 11 C4.33 11.99 4.66 12.98 5 14 C3.02 13.34 1.04 12.68 -1 12 C-1.02712066 10.56260487 -1.04645067 9.12506137 -1.0625 7.6875 C-1.07410156 6.88699219 -1.08570313 6.08648437 -1.09765625 5.26171875 C-1 3 -1 3 0 0 Z " fill="#B7E0EC" transform="translate(283,98)"/>
<path d="M0 0 C1 2 1 2 1 5 C1.66 5.33 2.32 5.66 3 6 C2.67 6.99 2.34 7.98 2 9 C2 8.34 2 7.68 2 7 C-0.64 7 -3.28 7 -6 7 C-4.02 4.69 -2.04 2.38 0 0 Z " fill="#B6D9DF" transform="translate(409,98)"/>
<path d="M0 0 C0.66 0 1.32 0 2 0 C2.33 2.97 2.66 5.94 3 9 C1.68 8.67 0.36 8.34 -1 8 C-1.125 2.25 -1.125 2.25 0 0 Z " fill="#72767E" transform="translate(377,95)"/>
<path d="M0 0 C0.66 0 1.32 0 2 0 C2.625 2.375 2.625 2.375 3 5 C2.34 5.66 1.68 6.32 1 7 C0.01 7 -0.98 7 -2 7 C-2 6.34 -2 5.68 -2 5 C-2.66 4.67 -3.32 4.34 -4 4 C-3.01 3.67 -2.02 3.34 -1 3 C-0.67 2.01 -0.34 1.02 0 0 Z " fill="#768089" transform="translate(407,93)"/>
<path d="M0 0 C0.66 0.33 1.32 0.66 2 1 C1.05016642 2.50539661 0.08988109 4.00420347 -0.875 5.5 C-1.40867187 6.3353125 -1.94234375 7.170625 -2.4921875 8.03125 C-2.98976563 8.6809375 -3.48734375 9.330625 -4 10 C-4.66 10 -5.32 10 -6 10 C-6.33 10.99 -6.66 11.98 -7 13 C-7.33 12.01 -7.66 11.02 -8 10 C-6.34765625 7.51953125 -6.34765625 7.51953125 -4.0625 4.8125 C-3.31097656 3.91144531 -2.55945313 3.01039062 -1.78515625 2.08203125 C-0.90150391 1.05142578 -0.90150391 1.05142578 0 0 Z " fill="#C5E8EC" transform="translate(599,118)"/>
<path d="M0 0 C1 2 1 2 0.44140625 3.9453125 C0.15136719 4.66460937 -0.13867188 5.38390625 -0.4375 6.125 C-0.72496094 6.84945312 -1.01242187 7.57390625 -1.30859375 8.3203125 C-1.53675781 8.87460938 -1.76492188 9.42890625 -2 10 C-3.32 10 -4.64 10 -6 10 C-5.49477778 5.62140745 -2.82172778 3.18348776 0 0 Z " fill="#738286" transform="translate(402,99)"/>
<path d="M0 0 C0.99 0.33 1.98 0.66 3 1 C2.64950425 4.24208567 2.43778819 5.61527704 -0.0625 7.8125 C-0.701875 8.204375 -1.34125 8.59625 -2 9 C-2.25 3.375 -2.25 3.375 0 0 Z " fill="#B0E0EB" transform="translate(357,95)"/>
<path d="M0 0 C1.65 0 3.3 0 5 0 C5 1.32 5 2.64 5 4 C4.01 4.495 4.01 4.495 3 5 C2.67 5.99 2.34 6.98 2 8 C1.34 7.67 0.68 7.34 0 7 C0 4.69 0 2.38 0 0 Z " fill="#6A7A7F" transform="translate(444,89)"/>
<path d="M0 0 C0.66 0 1.32 0 2 0 C1.5020163 3.73487777 1.12508244 5.81237635 -1 9 C-1.66 9 -2.32 9 -3 9 C-2.5020163 5.26512223 -2.12508244 3.18762365 0 0 Z " fill="#6B858E" transform="translate(508,153)"/>
<path d="M0 0 C2.64 0 5.28 0 8 0 C8 0.99 8 1.98 8 3 C6.02 3.33 4.04 3.66 2 4 C1.34 2.68 0.68 1.36 0 0 Z " fill="#C6E2E9" transform="translate(131,101)"/>
<path d="M0 0 C-1.32 0.33 -2.64 0.66 -4 1 C-4 2.32 -4 3.64 -4 5 C-5.65 5 -7.3 5 -9 5 C-9.33 3.68 -9.66 2.36 -10 1 C-8.71073008 0.63720544 -7.41846728 0.28503302 -6.125 -0.0625 C-5.40570313 -0.25972656 -4.68640625 -0.45695312 -3.9453125 -0.66015625 C-2 -1 -2 -1 0 0 Z " fill="#BBDCE3" transform="translate(434,100)"/>
<path d="M0 0 C-1.32 0.33 -2.64 0.66 -4 1 C-4 2.32 -4 3.64 -4 5 C-5.65 5 -7.3 5 -9 5 C-9.33 3.68 -9.66 2.36 -10 1 C-8.71073008 0.63720544 -7.41846728 0.28503302 -6.125 -0.0625 C-5.40570313 -0.25972656 -4.68640625 -0.45695312 -3.9453125 -0.66015625 C-2 -1 -2 -1 0 0 Z " fill="#BBDCE3" transform="translate(306,100)"/>
<path d="M0 0 C2.125 0.375 2.125 0.375 4 1 C3.25 8.75 3.25 8.75 1 11 C1 8.36 1 5.72 1 3 C0.01 2.67 -0.98 2.34 -2 2 C-1.34 1.34 -0.68 0.68 0 0 Z " fill="#BAD5D4" transform="translate(200,93)"/>
<path d="M0 0 C0.66 0.33 1.32 0.66 2 1 C2.05447047 2.41623216 2.09300508 3.83308191 2.125 5.25 C2.14820313 6.03890625 2.17140625 6.8278125 2.1953125 7.640625 C1.9828378 10.20731941 1.28654105 11.7916067 0 14 C-1.31764706 3.95294118 -1.31764706 3.95294118 0 0 Z " fill="#6D828D" transform="translate(183,90)"/>
<path d="M0 0 C1.32 0 2.64 0 4 0 C3.67 1.98 3.34 3.96 3 6 C1.68 6 0.36 6 -1 6 C-1.042721 4.33388095 -1.04063832 2.66617115 -1 1 C-0.67 0.67 -0.34 0.34 0 0 Z " fill="#BCDBDE" transform="translate(462,93)"/>
<path d="M0 0 C1.65 0 3.3 0 5 0 C4.67 2.31 4.34 4.62 4 7 C2 5.75 2 5.75 0 4 C0 2.68 0 1.36 0 0 Z " fill="#707683" transform="translate(387,90)"/>
<path d="M0 0 C0.33 1.32 0.66 2.64 1 4 C-0.98 4 -2.96 4 -5 4 C-5 3.34 -5 2.68 -5 2 C-5.99 1.67 -6.98 1.34 -8 1 C-5.29120665 -0.35439668 -2.99066732 -0.06501451 0 0 Z " fill="#6E8287" transform="translate(362,89)"/>
<path d="M0 0 C1.546875 0.0309375 1.546875 0.0309375 3.125 0.0625 C4.115 0.0625 5.105 0.0625 6.125 0.0625 C6.785 0.0625 7.445 0.0625 8.125 0.0625 C8.125 1.0525 8.125 2.0425 8.125 3.0625 C1.5 4.3125 1.5 4.3125 -1.875 2.0625 C-2.535 1.7325 -3.195 1.4025 -3.875 1.0625 C-2.875 0.0625 -2.875 0.0625 0 0 Z " fill="#758991" transform="translate(199.875,88.9375)"/>
<path d="M0 0 C-2.25 2.5625 -2.25 2.5625 -5 5 C-7.3125 4.8125 -7.3125 4.8125 -9 4 C-9 3.01 -9 2.02 -9 1 C-6.04335481 -0.4783226 -3.25770263 -0.06032783 0 0 Z " fill="#6B828B" transform="translate(491,89)"/>
<path d="M0 0 C1.65 0 3.3 0 5 0 C4.67 1.65 4.34 3.3 4 5 C2.35 4.67 0.7 4.34 -1 4 C-0.67 2.68 -0.34 1.36 0 0 Z " fill="#6E838B" transform="translate(446,81)"/>
<path d="M0 0 C0.99 0 1.98 0 3 0 C4.76462683 3.08809695 5 4.23312136 5 8 C4.01 8 3.02 8 2 8 C0.74335022 5.09399739 0 3.20395416 0 0 Z " fill="#6E8A93" transform="translate(490,147)"/>
<path d="M0 0 C1.32014582 3.96043746 0.27727477 6.09721599 -1 10 C-1.33 10.66 -1.66 11.32 -2 12 C-4 10 -4 10 -4.25 7.5625 C-4 5 -4 5 -2 2 C-1.34 2 -0.68 2 0 2 C0 1.34 0 0.68 0 0 Z " fill="#707574" transform="translate(481,95)"/>
<path d="M0 0 C0.66 0 1.32 0 2 0 C2 0.66 2 1.32 2 2 C2.66 2 3.32 2 4 2 C4 2.66 4 3.32 4 4 C1.38058783 5.74627478 -0.03824877 6.38722388 -3 7 C-3 6.01 -3 5.02 -3 4 C-2.34 4 -1.68 4 -1 4 C-0.67 2.68 -0.34 1.36 0 0 Z " fill="#6E767D" transform="translate(459,99)"/>
<path d="M0 0 C0.33 0 0.66 0 1 0 C1 1.65 1 3.3 1 5 C1.66 5.33 2.32 5.66 3 6 C2.34 6 1.68 6 1 6 C1.061875 7.11375 1.12375 8.2275 1.1875 9.375 C1.0946875 11.169375 1.0946875 11.169375 1 13 C0.01 13.66 -0.98 14.32 -2 15 C-1.38487182 9.99109914 -0.7282448 4.99367864 0 0 Z " fill="#B0DAEB" transform="translate(210,89)"/>
<path d="M0 0 C0.66 0 1.32 0 2 0 C1.125 5.75 1.125 5.75 0 8 C-0.99 8 -1.98 8 -3 8 C-2.45276317 4.62537285 -1.9451 2.91765 0 0 Z " fill="#668488" transform="translate(495,184)"/>
<path d="M0 0 C1.2065625 0.0309375 1.2065625 0.0309375 2.4375 0.0625 C0.01567393 3.6952391 -1.06695117 3.74381947 -5.1875 4.75 C-6.19039063 5.00136719 -7.19328125 5.25273437 -8.2265625 5.51171875 C-8.99742187 5.69347656 -9.76828125 5.87523437 -10.5625 6.0625 C-9.05900603 3.05551207 -6.5206052 2.47992541 -3.5625 1.0625 C-2.5625 0.0625 -2.5625 0.0625 0 0 Z " fill="#C8EAED" transform="translate(298.5625,162.9375)"/>
<path d="M0 0 C-0.33 3.3 -0.66 6.6 -1 10 C-1.66 8.68 -2.32 7.36 -3 6 C-3.66 5.67 -4.32 5.34 -5 5 C-5 4.01 -5 3.02 -5 2 C-2 0 -2 0 0 0 Z " fill="#BCDFE1" transform="translate(201,108)"/>
<path d="M0 0 C0.93423645 3.01031744 1.04449911 3.86650268 0 7 C-2.5625 8.6875 -2.5625 8.6875 -5 10 C-4.38545304 6.00544473 -2.29353263 3.25533664 0 0 Z " fill="#EAFCFD" transform="translate(608,106)"/>
<path d="M0 0 C3.125 -0.1875 3.125 -0.1875 6 0 C6 0.99 6 1.98 6 3 C5.67 3.33 5.34 3.66 5 4 C2.66055264 3.71269945 0.3260857 3.38063221 -2 3 C-1.34 2.01 -0.68 1.02 0 0 Z " fill="#697881" transform="translate(461,106)"/>
<path d="M0 0 C0.66 0.33 1.32 0.66 2 1 C1.34 2.98 0.68 4.96 0 7 C0.99 7 1.98 7 3 7 C3.33 6.34 3.66 5.68 4 5 C4 5.99 4 6.98 4 8 C3.34 8 2.68 8 2 8 C1.67 9.32 1.34 10.64 1 12 C0.34 11.67 -0.32 11.34 -1 11 C-1.0270043 9.54176788 -1.04639787 8.08339325 -1.0625 6.625 C-1.07410156 5.81289062 -1.08570313 5.00078125 -1.09765625 4.1640625 C-1 2 -1 2 0 0 Z " fill="#7B858A" transform="translate(457,91)"/>
<path d="M0 0 C0.66 0 1.32 0 2 0 C2.6875 2.8125 2.6875 2.8125 3 6 C1.5625 7.875 1.5625 7.875 0 9 C-1.125 7.3125 -1.125 7.3125 -2 5 C-1.125 2.25 -1.125 2.25 0 0 Z " fill="#6E787D" transform="translate(316,95)"/>
<path d="M0 0 C2.64 0 5.28 0 8 0 C8 1.32 8 2.64 8 4 C7.01 4 6.02 4 5 4 C5 5.65 5 7.3 5 9 C4.67 9 4.34 9 4 9 C4 6.36 4 3.72 4 1 C2.68 0.67 1.36 0.34 0 0 Z " fill="#74919C" transform="translate(466,89)"/>
<path d="M0 0 C0.99 0 1.98 0 3 0 C3 0.66 3 1.32 3 2 C2.34 2 1.68 2 1 2 C0.67 4.97 0.34 7.94 0 11 C-0.99 10.34 -1.98 9.68 -3 9 C-2.01 6.03 -1.02 3.06 0 0 Z " fill="#707781" transform="translate(268,90)"/>
<path d="M0 0 C0.53625 0.391875 1.0725 0.78375 1.625 1.1875 C1.295 1.8475 0.965 2.5075 0.625 3.1875 C-0.1175 3.14625 -0.86 3.105 -1.625 3.0625 C-4.46258952 3.19148134 -5.96273938 3.75801222 -8.375 5.1875 C-8.375 4.1975 -8.375 3.2075 -8.375 2.1875 C-2.95961538 -1.0125 -2.95961538 -1.0125 0 0 Z " fill="#B7DBDF" transform="translate(389.375,86.8125)"/>
<path d="M0 0 C1.65 0 3.3 0 5 0 C5 1.32 5 2.64 5 4 C4.01 4 3.02 4 2 4 C1.67 4.99 1.34 5.98 1 7 C0.67 7 0.34 7 0 7 C0 4.69 0 2.38 0 0 Z " fill="#697A82" transform="translate(268,81)"/>
<path d="M0 0 C4.50802601 1.25805377 7.4912812 2.90407165 11 6 C3.25531915 5.25531915 3.25531915 5.25531915 0 2 C0 1.34 0 0.68 0 0 Z " fill="#C8E9ED" transform="translate(395,19)"/>
<path d="M0 0 C0.33 0.66 0.66 1.32 1 2 C1.66 2 2.32 2 3 2 C3.1875 4.375 3.1875 4.375 3 7 C2.01 7.66 1.02 8.32 0 9 C-0.66 6.69 -1.32 4.38 -2 2 C-1.34 1.34 -0.68 0.68 0 0 Z " fill="#B9E3E7" transform="translate(505,177)"/>
<path d="M0 0 C4.75 0.75 4.75 0.75 7 3 C7 3.99 7 4.98 7 6 C2.32307692 4.52307692 2.32307692 4.52307692 0.6875 1.875 C0.460625 1.25625 0.23375 0.6375 0 0 Z " fill="#6A858B" transform="translate(480,158)"/>
<path d="M0 0 C2.475 0.99 2.475 0.99 5 2 C3.86695008 5.39914975 2.87481525 6.05254451 0 8 C0 7.34 0 6.68 0 6 C-0.66 5.67 -1.32 5.34 -2 5 C-1.34 5 -0.68 5 0 5 C0 3.35 0 1.7 0 0 Z " fill="#B0E6EB" transform="translate(446,104)"/>
<path d="M0 0 C0.99 0 1.98 0 3 0 C2.34 4.29 1.68 8.58 1 13 C-0.98983228 9.02033543 -1.22400716 8.32324868 -0.625 4.25 C-0.51414062 3.45078125 -0.40328125 2.6515625 -0.2890625 1.828125 C-0.19367188 1.22484375 -0.09828125 0.6215625 0 0 Z " fill="#BFDAD9" transform="translate(103,96)"/>
<path d="M0 0 C1.32 0 2.64 0 4 0 C4.66 1.32 5.32 2.64 6 4 C5.34 4 4.68 4 4 4 C3.67 4.66 3.34 5.32 3 6 C3 5.01 3 4.02 3 3 C0.83333333 3.83333333 0.83333333 3.83333333 0 6 C-0.38218767 4.34385343 -0.71395102 2.67542976 -1 1 C-0.67 0.67 -0.34 0.34 0 0 Z " fill="#728589" transform="translate(152,89)"/>
<path d="M0 0 C0.99 0.33 1.98 0.66 3 1 C2.34 4.63 1.68 8.26 1 12 C-1.33333333 2.66666667 -1.33333333 2.66666667 0 0 Z " fill="#BADBD7" transform="translate(227,88)"/>
<path d="M0 0 C0.33 0.99 0.66 1.98 1 3 C-0.4375 5.1875 -0.4375 5.1875 -2 7 C-2 5.68 -2 4.36 -2 3 C-5.96 3 -9.92 3 -14 3 C-14 2.67 -14 2.34 -14 2 C-13.07316406 1.93941406 -12.14632813 1.87882813 -11.19140625 1.81640625 C-9.39509766 1.69072266 -9.39509766 1.69072266 -7.5625 1.5625 C-5.77005859 1.44068359 -5.77005859 1.44068359 -3.94140625 1.31640625 C-1.11429756 1.32343886 -1.11429756 1.32343886 0 0 Z " fill="#B1D5DA" transform="translate(488,170)"/>
<path d="M0 0 C0.66 0 1.32 0 2 0 C2 0.66 2 1.32 2 2 C2.66 2.33 3.32 2.66 4 3 C2.71937515 4.7074998 1.38232443 6.37373596 0 8 C-0.66 8 -1.32 8 -2 8 C-1.47731534 5.23723823 -0.89130413 2.6739124 0 0 Z " fill="#6E777F" transform="translate(403,98)"/>
<path d="M0 0 C1.98 0 3.96 0 6 0 C4.515 2.475 4.515 2.475 3 5 C1.68 4.67 0.36 4.34 -1 4 C-0.67 2.68 -0.34 1.36 0 0 Z " fill="#727E87" transform="translate(177,89)"/>
<path d="M0 0 C-4.51350747 3.52273754 -7.28341664 4.45732667 -13 4 C-10.56272708 2.37515139 -8.62713877 1.34310925 -5.9375 0.3125 C-5.24527344 0.04050781 -4.55304688 -0.23148438 -3.83984375 -0.51171875 C-2 -1 -2 -1 0 0 Z " fill="#CBEBEF" transform="translate(93,17)"/>
<path d="M0 0 C0.66 0 1.32 0 2 0 C1.67 1.98 1.34 3.96 1 6 C0.01 5.67 -0.98 5.34 -2 5 C-2.66 5.66 -3.32 6.32 -4 7 C-4.33 5.35 -4.66 3.7 -5 2 C-2.525 2.495 -2.525 2.495 0 3 C0 2.01 0 1.02 0 0 Z " fill="#68777C" transform="translate(208,89)"/>
<path d="M0 0 C0.66 0.33 1.32 0.66 2 1 C2 1.99 2 2.98 2 4 C0.125 5.0625 0.125 5.0625 -2 6 C-2.66 5.67 -3.32 5.34 -4 5 C-2.25 1.125 -2.25 1.125 0 0 Z " fill="#67777D" transform="translate(198,90)"/>
<path d="M0 0 C1.0625 1.875 1.0625 1.875 2 4 C1.67 4.66 1.34 5.32 1 6 C-1.97 5.505 -1.97 5.505 -5 5 C-5 4.34 -5 3.68 -5 3 C-2.5 1.375 -2.5 1.375 0 0 Z " fill="#768A94" transform="translate(511,89)"/>
<path d="M0 0 C1.2065625 0.0309375 1.2065625 0.0309375 2.4375 0.0625 C2.1075 1.7125 1.7775 3.3625 1.4375 5.0625 C0.1175 5.0625 -1.2025 5.0625 -2.5625 5.0625 C-3.125 3.125 -3.125 3.125 -3.5625 1.0625 C-2.5625 0.0625 -2.5625 0.0625 0 0 Z " fill="#688691" transform="translate(161.5625,88.9375)"/>
<path d="M0 0 C2.475 0.495 2.475 0.495 5 1 C5 1.66 5 2.32 5 3 C5.99 3 6.98 3 8 3 C8.66 4.32 9.32 5.64 10 7 C5.56541027 5.6062718 3.12621626 3.39417765 0 0 Z " fill="#CDEBF0" transform="translate(424,178)"/>
<path d="M0 0 C5.75 1.875 5.75 1.875 8 3 C8 3.66 8 4.32 8 5 C6.35 5.33 4.7 5.66 3 6 C2.67 5.01 2.34 4.02 2 3 C1.34 2.67 0.68 2.34 0 2 C0 1.34 0 0.68 0 0 Z " fill="#C0E2E8" transform="translate(509,172)"/>
<path d="M0 0 C0.33 0.99 0.66 1.98 1 3 C-0.4375 5.6875 -0.4375 5.6875 -2 8 C-4 6 -4 6 -4.125 3.375 C-4.08375 2.59125 -4.0425 1.8075 -4 1 C-2.68 0.67 -1.36 0.34 0 0 Z " fill="#76838A" transform="translate(468,107)"/>
<path d="M0 0 C0.33 0 0.66 0 1 0 C1.12117188 0.63808594 1.24234375 1.27617188 1.3671875 1.93359375 C1.53476563 2.75988281 1.70234375 3.58617188 1.875 4.4375 C2.03742188 5.26121094 2.19984375 6.08492188 2.3671875 6.93359375 C2.57601562 7.61550781 2.78484375 8.29742187 3 9 C3.66 9.33 4.32 9.66 5 10 C5 10.66 5 11.32 5 12 C4.01 12.33 3.02 12.66 2 13 C2 12.34 2 11.68 2 11 C1.34 10.67 0.68 10.34 0 10 C0 6.7 0 3.4 0 0 Z " fill="#B5D4D7" transform="translate(125,98)"/>
<path d="M0 0 C1.65 0 3.3 0 5 0 C5.66 1.32 6.32 2.64 7 4 C4.69 3.67 2.38 3.34 0 3 C0 2.01 0 1.02 0 0 Z " fill="#BED9E1" transform="translate(482,101)"/>
<path d="M0 0 C1.59440475 3.18880951 0.90786761 5.70897992 0 9 C-0.66 9 -1.32 9 -2 9 C-2.6875 6.75 -2.6875 6.75 -3 4 C-1.5625 1.6875 -1.5625 1.6875 0 0 Z " fill="#7A7E84" transform="translate(195,91)"/>
<path d="M0 0 C0.66 0 1.32 0 2 0 C1.39174965 4.34464536 0.73832608 8.67551867 0 13 C-0.33 13 -0.66 13 -1 13 C-1.02708567 11.39592672 -1.04643483 9.7917215 -1.0625 8.1875 C-1.07410156 7.29417969 -1.08570313 6.40085937 -1.09765625 5.48046875 C-1 3 -1 3 0 0 Z " fill="#6F8495" transform="translate(233,91)"/>
<path d="M0 0 C4.875 1.75 4.875 1.75 6 4 C5.0625 6.125 5.0625 6.125 4 8 C4 6.68 4 5.36 4 4 C2.35 3.67 0.7 3.34 -1 3 C-0.67 2.01 -0.34 1.02 0 0 Z " fill="#6C777D" transform="translate(299,89)"/>
<path d="M0 0 C1.65 0.33 3.3 0.66 5 1 C4.34 1.66 3.68 2.32 3 3 C3.32041397 5.60280568 3.32041397 5.60280568 4 8 C3.34 8 2.68 8 2 8 C1.87625 7.360625 1.7525 6.72125 1.625 6.0625 C1.315625 5.0415625 1.315625 5.0415625 1 4 C0.34 3.67 -0.32 3.34 -1 3 C-0.67 2.01 -0.34 1.02 0 0 Z " fill="#6A777A" transform="translate(464,89)"/>
<path d="M0 0 C1.32 0.66 2.64 1.32 4 2 C1.1875 4.0625 1.1875 4.0625 -2 6 C-2.99 5.67 -3.98 5.34 -5 5 C-3.35 3.35 -1.7 1.7 0 0 Z " fill="#EDFEFE" transform="translate(282,50)"/>
<path d="M0 0 C-3.20336822 2.83374881 -5.78087253 3.5205537 -10 4 C-9.67 3.01 -9.34 2.02 -9 1 C-5.8035914 -0.06546953 -3.34252724 -0.07427838 0 0 Z " fill="#C7EAEC" transform="translate(352,139)"/>
<path d="M0 0 C0.33 0.99 0.66 1.98 1 3 C0.67 3.66 0.34 4.32 0 5 C-0.66 5 -1.32 5 -2 5 C-2.66 6.32 -3.32 7.64 -4 9 C-4.33 8.34 -4.66 7.68 -5 7 C-3.56742037 4.27127689 -2.18277634 2.18277634 0 0 Z " fill="#C5E9EC" transform="translate(589,131)"/>
<path d="M0 0 C1.1446875 0.2475 1.1446875 0.2475 2.3125 0.5 C5.03596236 1.09145396 5.03596236 1.09145396 8 1 C6.6875 2.5 6.6875 2.5 5 4 C4.01 4 3.02 4 2 4 C2 3.34 2 2.68 2 2 C1.34 2 0.68 2 0 2 C0 1.34 0 0.68 0 0 Z " fill="#6F858E" transform="translate(461,99)"/>
<path d="M0 0 C1.32 0 2.64 0 4 0 C4 0.99 4 1.98 4 3 C1.69 3.33 -0.62 3.66 -3 4 C-1.75 2 -1.75 2 0 0 Z " fill="#C0D9D8" transform="translate(427,93)"/>
<path d="M0 0 C1.32 0 2.64 0 4 0 C4 0.99 4 1.98 4 3 C1.69 3.33 -0.62 3.66 -3 4 C-1.75 2 -1.75 2 0 0 Z " fill="#C0D9D8" transform="translate(299,93)"/>
<path d="M0 0 C0.66 0.33 1.32 0.66 2 1 C1.43454163 4.95820859 0.19097652 7.6659053 -2 11 C-3 9 -3 9 -2.44140625 6.8359375 C-2.15136719 6.02382812 -1.86132812 5.21171875 -1.5625 4.375 C-1.27503906 3.55773437 -0.98757813 2.74046875 -0.69140625 1.8984375 C-0.46324219 1.27195312 -0.23507812 0.64546875 0 0 Z " fill="#EBFDFD" transform="translate(614,90)"/>
<path d="M0 0 C1.4589426 0.47730838 2.91713496 0.95691042 4.375 1.4375 C5.18710938 1.70433594 5.99921875 1.97117188 6.8359375 2.24609375 C9 3 9 3 11 4 C11 4.66 11 5.32 11 6 C7.32553433 5.29337199 4.26087791 3.81159884 1 2 C0.67 1.34 0.34 0.68 0 0 Z " fill="#E3FBFD" transform="translate(213,52)"/>
<path d="M0 0 C0.66 0.33 1.32 0.66 2 1 C-0.31 3.31 -2.62 5.62 -5 8 C-5.99 7.34 -6.98 6.68 -8 6 C-7.05125 5.38125 -6.1025 4.7625 -5.125 4.125 C-2.05554891 2.18029031 -2.05554891 2.18029031 0 0 Z " fill="#CEEEEF" transform="translate(526,45)"/>
<path d="M0 0 C0.66 0.33 1.32 0.66 2 1 C1.01 1.33 0.02 1.66 -1 2 C-1.33 2.66 -1.66 3.32 -2 4 C-2.33 4.66 -2.66 5.32 -3 6 C-3.99 6.33 -4.98 6.66 -6 7 C-3 1 -3 1 0 0 Z " fill="#C8E8F2" transform="translate(566,159)"/>
<path d="M0 0 C0.33 0 0.66 0 1 0 C1.0270043 1.45823212 1.04639787 2.91660675 1.0625 4.375 C1.07410156 5.18710938 1.08570313 5.99921875 1.09765625 6.8359375 C1 9 1 9 0 11 C-0.66 11 -1.32 11 -2 11 C-1.34 7.37 -0.68 3.74 0 0 Z " fill="#B2D9E5" transform="translate(173,98)"/>
<path d="M0 0 C1.65 0 3.3 0 5 0 C4.01 0.66 3.02 1.32 2 2 C3.32 2.66 4.64 3.32 6 4 C3.69 4.33 1.38 4.66 -1 5 C-0.67 3.35 -0.34 1.7 0 0 Z " fill="#75888E" transform="translate(354,104)"/>
<path d="M0 0 C0.66 0.33 1.32 0.66 2 1 C1.67 1.66 1.34 2.32 1 3 C0.34 3 -0.32 3 -1 3 C-1.33 4.98 -1.66 6.96 -2 9 C-2.66 9 -3.32 9 -4 9 C-3.6875 5.625 -3.6875 5.625 -3 2 C-2.01 1.34 -1.02 0.68 0 0 Z " fill="#6A767E" transform="translate(296,98)"/>
<path d="M0 0 C1.32 0 2.64 0 4 0 C4 0.99 4 1.98 4 3 C2.02 3.33 0.04 3.66 -2 4 C-1.34 2.68 -0.68 1.36 0 0 Z " fill="#BFDEDC" transform="translate(249,93)"/>
<path d="M0 0 C1.98 0 3.96 0 6 0 C5.40072174 3.35595828 4.15377564 5.37801226 2 8 C2 6.35 2 4.7 2 3 C1.34 2.67 0.68 2.34 0 2 C0 1.34 0 0.68 0 0 Z " fill="#B1E6EA" transform="translate(368,93)"/>
<path d="M0 0 C1.65 0 3.3 0 5 0 C4.67 1.65 4.34 3.3 4 5 C3.01 5 2.02 5 1 5 C1.33 3.68 1.66 2.36 2 1 C1.34 0.67 0.68 0.34 0 0 Z " fill="#69808A" transform="translate(409,89)"/>
<path d="M0 0 C0.66 0 1.32 0 2 0 C2 1.65 2 3.3 2 5 C1.34 5 0.68 5 0 5 C0 5.99 0 6.98 0 8 C-0.66 8 -1.32 8 -2 8 C-1.125 1.125 -1.125 1.125 0 0 Z " fill="#B2F0F6" transform="translate(288,88)"/>
<path d="M0 0 C0.66 0.33 1.32 0.66 2 1 C-0.97 3.475 -0.97 3.475 -4 6 C-4.99 5.34 -5.98 4.68 -7 4 C-1.7265625 0.77734375 -1.7265625 0.77734375 0 0 Z " fill="#CAEAF0" transform="translate(327,23)"/>
<path d="M0 0 C0.66 1.32 1.32 2.64 2 4 C1.01 4.99 0.02 5.98 -1 7 C-1.66 6.67 -2.32 6.34 -3 6 C-1.125 1.125 -1.125 1.125 0 0 Z " fill="#818284" transform="translate(522,208)"/>
<path d="M0 0 C1.74627478 2.61941217 2.38722388 4.03824877 3 7 C1.68 6.67 0.36 6.34 -1 6 C-1.625 4.125 -1.625 4.125 -2 2 C-1.34 1.34 -0.68 0.68 0 0 Z " fill="#888789" transform="translate(512,204)"/>
<path d="M0 0 C0.66 0.33 1.32 0.66 2 1 C2 2.32 2 3.64 2 5 C0.68 5.33 -0.64 5.66 -2 6 C-1.125 1.125 -1.125 1.125 0 0 Z " fill="#6C787B" transform="translate(130,91)"/>
<path d="M0 0 C2.69082872 0.17635452 5.32851446 0.61835921 8 1 C7.01 2.485 7.01 2.485 6 4 C6 3.34 6 2.68 6 2 C5.01 2 4.02 2 3 2 C3 2.66 3 3.32 3 4 C2.01 4 1.02 4 0 4 C-0.33 3.01 -0.66 2.02 -1 1 C-0.67 0.67 -0.34 0.34 0 0 Z " fill="#BEDBDF" transform="translate(399,92)"/>
<path d="M0 0 C1.485 0.99 1.485 0.99 3 2 C2.67 3.98 2.34 5.96 2 8 C1.34 7.67 0.68 7.34 0 7 C0 4.69 0 2.38 0 0 Z " fill="#728898" transform="translate(492,90)"/>
<path d="M0 0 C-0.33 1.32 -0.66 2.64 -1 4 C-2.65 4 -4.3 4 -6 4 C-5.67 3.01 -5.34 2.02 -5 1 C-3 0 -3 0 0 0 Z " fill="#C5E0E2" transform="translate(138,93)"/>
<path d="M0 0 C0.66 0 1.32 0 2 0 C2 0.66 2 1.32 2 2 C2.66 2.66 3.32 3.32 4 4 C3.360625 4.12375 2.72125 4.2475 2.0625 4.375 C1.0415625 4.684375 1.0415625 4.684375 0 5 C-0.33 5.66 -0.66 6.32 -1 7 C-1.625 5.1875 -1.625 5.1875 -2 3 C-1.34 2.01 -0.68 1.02 0 0 Z " fill="#748192" transform="translate(133,89)"/>
<path d="M0 0 C0.66 1.32 1.32 2.64 2 4 C2.66 3.67 3.32 3.34 4 3 C4 3.99 4 4.98 4 6 C2 7.6875 2 7.6875 0 9 C-1.15941038 5.52176885 -0.70820884 3.54104422 0 0 Z " fill="#AFE3F0" transform="translate(273,81)"/>
<path d="M0 0 C3.465 1.98 3.465 1.98 7 4 C7 4.66 7 5.32 7 6 C5.35 6 3.7 6 2 6 C1.34 4.02 0.68 2.04 0 0 Z " fill="#C4E9ED" transform="translate(431,40)"/>
<path d="M0 0 C0.66 0.33 1.32 0.66 2 1 C2 1.99 2 2.98 2 4 C0.35 4.33 -1.3 4.66 -3 5 C-3 4.01 -3 3.02 -3 2 C-2.01 1.34 -1.02 0.68 0 0 Z " fill="#F2F2F3" transform="translate(541,195)"/>
<path d="M0 0 C0.99 0 1.98 0 3 0 C3 1.32 3 2.64 3 4 C3.66 4.33 4.32 4.66 5 5 C4.67 5.66 4.34 6.32 4 7 C3.34 7 2.68 7 2 7 C1.34 4.69 0.68 2.38 0 0 Z " fill="#BDDBE2" transform="translate(506,187)"/>
<path d="M0 0 C0.99 0.495 0.99 0.495 2 1 C1.01 1.495 1.01 1.495 0 2 C0 1.34 0 0.68 0 0 Z M-2 2 C-1.01 2.495 -1.01 2.495 0 3 C-0.99 3.495 -0.99 3.495 -2 4 C-2 3.34 -2 2.68 -2 2 Z M-5 5 C-4.34 5.33 -3.68 5.66 -3 6 C-3.33 6.99 -3.66 7.98 -4 9 C-4.99 8.67 -5.98 8.34 -7 8 C-7 7.34 -7 6.68 -7 6 C-6.34 5.67 -5.68 5.34 -5 5 Z " fill="#EFFCFD" transform="translate(539,187)"/>
<path d="M0 0 C0.33 0.99 0.66 1.98 1 3 C-0.65 4.65 -2.3 6.3 -4 8 C-4.66 7.67 -5.32 7.34 -6 7 C-5.34 6.01 -4.68 5.02 -4 4 C-3.34 4 -2.68 4 -2 4 C-1.34 2.68 -0.68 1.36 0 0 Z " fill="#E7FAFC" transform="translate(550,176)"/>
<path d="M0 0 C3.08089673 2.77280706 4.68775452 5.06326356 6 9 C3 8 3 8 1.3125 5.625 C0 3 0 3 0 0 Z " fill="#C5E8EC" transform="translate(12,144)"/>
<path d="M0 0 C0.33 0.99 0.66 1.98 1 3 C1.66 3 2.32 3 3 3 C3.33 2.01 3.66 1.02 4 0 C4.66 0 5.32 0 6 0 C5.67 1.32 5.34 2.64 5 4 C3.68 4.33 2.36 4.66 1 5 C0.67 3.35 0.34 1.7 0 0 Z " fill="#B3CFD4" transform="translate(221,100)"/>
<path d="M0 0 C-0.33 1.32 -0.66 2.64 -1 4 C-2.32 4 -3.64 4 -5 4 C-5 3.01 -5 2.02 -5 1 C-3 0 -3 0 0 0 Z " fill="#C3DEE1" transform="translate(489,93)"/>
<path d="M0 0 C0.99 0.33 1.98 0.66 3 1 C3.33 2.65 3.66 4.3 4 6 C3.01 6.495 3.01 6.495 2 7 C2 6.34 2 5.68 2 5 C1.34 5 0.68 5 0 5 C0 3.35 0 1.7 0 0 Z " fill="#6F757C" transform="translate(253,91)"/>
<path d="M0 0 C0.66 0.33 1.32 0.66 2 1 C0.02 3.31 -1.96 5.62 -4 8 C-4.33 7.01 -4.66 6.02 -5 5 C-3.35 3.35 -1.7 1.7 0 0 Z " fill="#EDFDFE" transform="translate(30,51)"/>
</svg>
