<?xml version="1.0" standalone="no"?>
<!DOCTYPE svg PUBLIC "-//W3C//DTD SVG 20010904//EN"
 "http://www.w3.org/TR/2001/REC-SVG-20010904/DTD/svg10.dtd">
<svg version="1.0" xmlns="http://www.w3.org/2000/svg"
 width="640.000000pt" height="640.000000pt" viewBox="0 0 640.000000 640.000000"
 preserveAspectRatio="xMidYMid meet">

<g transform="translate(0.000000,640.000000) scale(0.100000,-0.100000)"
fill="#000000" stroke="none">
<path d="M1865 5638 c-16 -5 -38 -6 -47 -4 -11 2 -18 -2 -18 -10 0 -10 -10
-14 -32 -12 -18 1 -33 -3 -36 -10 -2 -6 -8 -12 -14 -12 -12 0 -70 -42 -124
-91 -22 -20 -57 -42 -77 -48 -21 -7 -37 -16 -37 -21 0 -25 133 52 193 112 20
20 81 50 142 69 56 17 162 16 215 -3 25 -9 74 -19 110 -22 l65 -5 -38 20 c-22
11 -45 18 -52 15 -7 -2 -35 2 -62 10 -57 18 -146 24 -188 12z"/>
<path d="M2639 5605 c-3 -2 -51 -5 -107 -6 -56 -1 -98 -5 -92 -9 19 -12 -81
-19 -153 -11 -38 4 -70 4 -73 -1 -5 -8 17 -12 50 -9 10 0 24 -4 31 -9 7 -6 15
-7 18 -3 6 10 252 9 370 -1 56 -5 87 -5 87 2 0 12 -30 26 -52 23 -9 -1 -30 5
-46 13 -16 8 -31 13 -33 11z"/>
<path d="M1829 5546 c-47 -13 -100 -33 -117 -44 -69 -47 -89 -59 -133 -79 -40
-19 -178 -49 -301 -66 -47 -7 -240 -68 -234 -74 3 -3 -7 -16 -22 -29 -15 -13
-22 -24 -16 -24 6 0 17 7 24 14 25 31 149 77 180 69 13 -4 13 -3 0 7 -12 9 -9
10 15 6 21 -5 26 -4 16 3 -11 7 -6 11 20 15 81 13 166 16 194 7 29 -9 29 -10
8 -16 -13 -4 -23 -13 -23 -20 0 -7 -10 -16 -22 -20 -20 -7 -18 -9 17 -15 45
-7 33 -16 -32 -23 -42 -5 -60 7 -25 16 10 3 6 5 -10 6 -16 0 -28 -4 -28 -10 0
-20 -44 -48 -67 -42 -17 4 -23 1 -23 -11 0 -9 -7 -16 -15 -16 -8 0 -15 5 -15
10 0 6 -4 10 -10 10 -5 0 -10 -9 -10 -20 0 -13 -5 -18 -15 -14 -9 4 -15 0 -15
-10 0 -21 29 -21 58 0 13 9 32 14 43 11 10 -3 19 -1 19 3 0 10 55 20 123 22
45 2 61 12 35 20 -7 3 7 5 31 6 24 1 49 7 56 12 7 6 20 7 29 4 11 -4 29 2 46
15 16 11 38 21 48 21 11 0 25 7 32 15 16 19 30 19 30 1 0 -8 -8 -17 -17 -19
-14 -4 -12 -5 5 -6 12 0 22 4 22 10 0 5 8 10 18 9 24 -3 62 10 62 21 0 5 -4 9
-10 9 -22 0 -8 19 21 29 43 15 45 14 18 -9 l-24 -19 32 -7 c23 -4 31 -11 30
-25 -2 -24 -22 -25 -37 -1 -9 15 -10 14 -5 -5 5 -18 3 -22 -9 -17 -9 3 -16 1
-16 -4 0 -16 23 -27 28 -14 2 7 11 12 20 12 32 1 55 27 48 54 -4 15 -2 26 4
26 5 0 10 -18 10 -39 0 -23 5 -41 13 -44 6 -2 2 -2 -10 0 -24 4 -32 -12 -10
-20 6 -3 -6 -3 -28 0 -22 3 -37 2 -33 -2 4 -4 0 -14 -10 -21 -16 -12 -16 -15
2 -48 28 -52 44 -63 38 -26 -2 17 -14 37 -25 45 -12 8 -16 15 -10 15 7 0 21
-9 32 -21 l19 -21 11 21 c7 12 17 21 24 20 9 0 9 -2 0 -6 -8 -3 -11 -15 -7
-31 4 -20 3 -23 -4 -13 -8 11 -10 8 -9 -12 2 -34 27 -36 27 -2 0 16 6 25 15
25 9 0 15 -9 15 -25 0 -14 5 -25 10 -25 6 0 10 11 10 25 0 31 25 33 41 4 8
-16 13 -18 19 -9 4 7 13 9 20 5 7 -4 8 -10 3 -14 -5 -3 -1 -14 10 -24 12 -12
18 -13 16 -5 -4 30 2 59 11 53 5 -3 6 -13 3 -22 -5 -13 -1 -15 20 -11 19 4 27
1 27 -9 0 -8 -4 -11 -10 -8 -5 3 -10 -1 -10 -9 0 -15 11 -20 37 -17 6 1 14 -3
18 -9 3 -5 -2 -10 -11 -10 -10 0 -14 -3 -11 -7 4 -3 -1 -12 -11 -19 -15 -12
-15 -12 6 -7 12 3 22 9 22 14 0 5 5 9 11 9 6 0 9 -9 6 -19 -3 -15 -1 -18 11
-14 10 4 13 2 8 -5 -3 -6 3 -14 16 -18 26 -8 55 -34 38 -34 -6 0 2 -12 17 -26
23 -21 29 -23 31 -10 2 9 8 16 13 16 12 0 12 -33 -1 -46 -6 -6 -6 -15 0 -24 8
-12 10 -10 10 10 l1 25 18 -22 c18 -22 19 -22 24 -3 3 11 13 20 22 20 13 0 15
6 10 30 -5 25 -3 30 11 30 14 0 15 3 6 12 -7 7 -8 17 -2 28 5 9 5 33 -1 58 -5
23 -11 76 -13 119 -2 43 -5 84 -5 91 -1 6 -8 12 -16 12 -8 0 -15 8 -15 18 0
14 2 15 10 2 8 -13 10 -13 10 1 0 9 -7 22 -16 30 -14 11 -14 13 0 21 9 5 21 6
26 3 6 -3 10 -2 10 4 0 5 -6 11 -12 14 -10 3 -10 8 -2 17 9 9 23 -12 58 -84
25 -53 46 -102 46 -110 0 -8 6 -21 13 -28 36 -36 122 -368 138 -537 16 -160
15 -467 -1 -631 -14 -132 -17 -402 -7 -475 3 -16 6 -48 7 -70 1 -31 7 -13 26
75 21 101 25 141 25 330 1 229 -5 547 -16 825 -8 214 -33 353 -87 489 -11 26
-17 59 -14 71 4 14 0 28 -9 35 -8 7 -13 16 -10 20 5 7 -21 106 -33 125 -4 6
-7 16 -8 23 -2 8 -10 22 -20 33 -23 26 -16 30 50 32 46 1 59 -3 76 -21 12 -12
18 -26 15 -32 -3 -5 4 -14 15 -20 11 -6 20 -19 20 -29 0 -11 6 -21 13 -24 7
-3 26 -45 42 -93 16 -49 35 -93 42 -97 7 -4 13 -13 13 -20 0 -7 -4 -6 -10 3
-6 9 -10 10 -10 3 0 -6 7 -18 15 -27 8 -8 12 -21 9 -29 -3 -9 0 -26 7 -39 7
-13 13 -27 14 -33 0 -5 13 -48 28 -95 46 -143 70 -325 64 -470 -10 -206 -25
-400 -36 -449 -6 -25 -25 -106 -42 -179 -29 -121 -31 -142 -25 -235 3 -56 10
-127 14 -157 6 -48 9 -53 19 -35 11 19 12 19 17 -5 3 -14 7 -34 8 -45 2 -12
12 -21 26 -23 20 -3 22 1 22 45 0 26 9 116 20 198 21 154 25 213 35 440 3 72
8 164 11 207 4 42 9 188 13 325 4 179 9 247 18 246 7 -2 14 21 18 60 4 34 13
69 20 77 7 8 16 38 20 65 4 28 11 55 17 62 5 7 7 17 3 23 -3 5 1 10 10 10 13
0 14 4 5 20 -8 14 -8 26 0 40 9 16 8 20 -5 20 -8 0 -15 7 -15 15 0 8 -8 15
-17 16 -12 1 -9 4 7 8 39 12 56 -2 54 -46 -1 -21 3 -43 8 -50 5 -7 7 -17 3
-23 -9 -14 7 -12 29 5 30 22 42 18 15 -5 -19 -15 -21 -19 -7 -20 11 0 15 -6
11 -19 -5 -20 26 -30 96 -32 29 0 32 -2 16 -9 -15 -7 -9 -9 25 -9 50 -1 95 18
50 20 -14 1 -28 1 -32 0 -4 0 -31 4 -59 10 -34 7 -47 14 -38 19 7 5 20 5 28 1
9 -5 46 -11 83 -14 37 -3 92 -14 124 -23 31 -9 69 -13 85 -10 16 3 41 1 56 -5
20 -7 28 -6 35 3 6 10 8 10 8 1 0 -7 12 -16 28 -19 15 -4 41 -18 58 -31 17
-12 46 -28 64 -34 18 -7 41 -20 52 -31 16 -16 45 -22 98 -21 8 0 30 -17 49
-39 28 -32 32 -41 20 -49 -8 -5 -9 -9 -4 -9 13 0 35 -50 40 -87 14 -128 15
-222 0 -276 -8 -32 -15 -74 -15 -93 0 -19 -4 -42 -9 -52 -5 -9 -15 -37 -22
-62 -7 -25 -17 -51 -22 -57 -5 -7 -6 -13 -3 -13 4 0 0 -10 -8 -22 -9 -12 -16
-28 -16 -35 0 -7 -9 -32 -19 -56 -31 -70 -51 -127 -44 -127 3 0 -1 -8 -9 -17
-9 -10 -19 -29 -22 -43 -10 -34 -39 -104 -47 -110 -3 -3 -13 -21 -22 -40 -49
-110 -94 -205 -130 -278 -32 -65 -38 -85 -28 -91 10 -6 10 -10 2 -12 -7 -3 -9
-12 -5 -23 7 -19 21 4 93 164 19 41 44 98 57 125 20 45 116 287 179 455 14 36
34 97 45 135 11 39 25 84 30 101 5 16 14 50 20 75 41 187 58 232 46 124 -3
-33 -8 -85 -11 -115 l-5 -55 19 70 c26 89 30 113 38 203 5 60 9 72 24 72 16 0
17 -8 15 -67 -5 -97 -16 -180 -33 -243 -8 -30 -18 -68 -22 -85 -12 -45 -110
-341 -138 -415 -24 -65 -30 -77 -93 -220 -44 -96 -167 -337 -191 -372 -28 -38
-23 -60 17 -86 29 -19 38 -21 45 -10 5 7 9 17 9 21 0 4 20 42 44 85 24 42 47
88 51 102 4 14 34 80 66 146 33 67 59 125 59 129 0 5 20 43 44 85 24 42 63
112 85 156 43 83 63 114 75 114 10 0 45 42 46 53 0 5 9 21 19 36 11 15 27 59
36 97 9 38 21 89 27 114 6 25 18 51 26 58 12 9 13 15 5 23 -9 9 -7 22 7 53 10
22 21 49 24 58 3 10 12 15 24 11 15 -3 21 2 26 21 7 28 26 36 26 11 0 -8 5
-15 10 -15 6 0 10 -9 10 -19 0 -11 9 -23 20 -26 11 -3 20 -10 20 -15 0 -5 7
-6 17 -3 10 4 14 2 9 -5 -3 -6 7 -18 23 -28 17 -10 28 -20 26 -23 -2 -3 7 -7
20 -7 13 -1 34 -11 46 -23 13 -12 28 -21 35 -21 7 0 19 -8 26 -18 7 -11 30
-27 51 -37 21 -10 53 -35 71 -56 18 -22 37 -39 42 -39 5 0 15 -9 22 -20 7 -11
17 -20 23 -20 11 0 58 -50 59 -64 0 -4 22 -36 49 -70 51 -66 76 -106 65 -106
-4 0 0 -8 8 -17 9 -10 21 -52 27 -93 7 -41 17 -77 22 -81 7 -4 6 -25 -4 -65
-10 -36 -12 -63 -6 -68 6 -6 9 -5 9 5 1 7 16 31 35 52 33 38 34 38 45 17 6
-12 9 -26 6 -33 -2 -7 -5 -3 -7 8 -2 18 -5 3 -23 -115 -3 -19 -3 -28 0 -20 4
8 14 24 24 35 10 11 23 37 29 57 7 21 17 40 22 43 5 4 9 17 9 30 0 13 5 27 10
30 6 3 10 19 10 35 0 16 5 32 11 35 6 4 9 1 8 -6 -5 -22 33 -91 52 -96 17 -5
35 -50 24 -61 -3 -3 -5 1 -5 10 0 21 -36 52 -45 38 -3 -6 3 -18 14 -28 23 -18
46 -82 30 -82 -5 0 -9 7 -9 16 0 18 -23 44 -40 44 -8 0 -7 -6 1 -22 19 -37 45
-58 57 -46 7 7 19 7 39 0 19 -7 22 -11 9 -11 -14 -1 -16 -4 -8 -14 6 -7 9 -24
6 -38 l-6 -24 21 24 c12 13 21 18 21 12 0 -7 5 -9 12 -5 7 4 8 3 4 -5 -4 -6
-12 -8 -18 -5 -7 5 -9 1 -5 -9 4 -12 1 -17 -9 -17 -11 0 -14 -6 -10 -16 3 -9
6 -21 6 -27 0 -7 4 -6 10 3 5 8 12 11 16 7 4 -4 2 -13 -4 -19 -16 -16 -15 -31
1 -25 10 4 13 -2 10 -21 -9 -55 -15 -56 -29 -4 -8 30 -21 63 -29 75 -21 29
-19 18 6 -37 11 -26 19 -52 16 -59 -2 -7 7 -31 19 -53 23 -40 23 -42 5 -58
-16 -15 -19 -15 -24 -1 -4 8 -11 15 -17 15 -7 0 -8 -6 -2 -17 5 -10 6 -27 2
-38 -4 -11 -6 -38 -4 -60 3 -36 3 -37 -5 -10 -8 28 -9 26 -12 -20 -2 -27 -3
-62 -2 -77 1 -16 -3 -25 -9 -22 -6 4 -8 23 -4 45 4 24 2 39 -4 39 -5 0 -10 9
-10 20 0 11 5 20 10 20 6 0 10 5 10 11 0 5 -5 7 -11 3 -6 -3 -15 -1 -19 6 -5
7 -7 2 -7 -15 0 -15 -5 -30 -10 -34 -5 -3 -12 -17 -16 -29 -5 -22 -5 -23 12
-7 16 14 19 14 24 1 4 -10 1 -13 -9 -9 -9 3 -14 -2 -14 -16 0 -14 -5 -19 -15
-15 -10 4 -15 0 -15 -15 0 -12 -6 -21 -15 -21 -9 0 -12 -6 -8 -17 4 -11 3 -14
-5 -9 -8 5 -12 0 -12 -13 0 -24 -16 -37 -23 -19 -3 7 -3 -4 -1 -24 4 -41 -12
-53 -19 -15 l-4 22 -2 -23 c0 -12 -8 -25 -16 -28 -8 -4 -15 -10 -15 -16 0 -5
4 -6 10 -3 13 8 13 -8 1 -21 -5 -5 -11 -20 -13 -34 -1 -14 -9 -25 -15 -25 -7
0 -12 -4 -11 -10 2 -5 7 -9 13 -7 5 1 2 -4 -8 -12 -13 -10 -15 -16 -7 -21 14
-9 -5 -25 -29 -25 -11 0 -11 3 -1 15 9 10 9 15 1 15 -11 0 -13 -5 -15 -32 -1
-7 -5 -16 -11 -20 -5 -4 -1 -8 10 -8 22 0 45 -17 45 -34 0 -6 -5 -5 -12 2 -18
18 -31 15 -24 -5 4 -11 -2 -8 -13 7 -11 14 -23 21 -27 17 -4 -4 -2 -7 4 -7 7
0 12 -5 12 -11 0 -5 -4 -7 -10 -4 -5 3 -10 0 -10 -9 0 -8 -6 -16 -12 -19 -7
-2 -10 -7 -7 -11 4 -4 14 1 24 10 16 16 19 16 29 3 6 -9 17 -14 25 -11 12 4
12 3 0 -11 -13 -14 -15 -14 -26 0 -11 15 -13 15 -19 0 -9 -24 2 -34 42 -41 19
-4 41 -9 48 -12 7 -3 23 4 36 16 13 11 27 20 31 20 10 0 59 48 59 59 0 4 18
17 40 30 22 12 40 25 40 29 0 4 19 29 43 55 23 26 50 58 60 72 10 14 24 25 32
25 8 0 15 7 15 15 0 17 16 21 22 5 4 -12 48 -22 48 -12 0 4 -15 16 -34 26 -36
19 -61 14 -52 -11 3 -8 1 -11 -4 -8 -6 3 -10 33 -10 66 0 47 3 59 16 59 14 0
14 1 0 16 -20 20 -20 40 0 48 10 4 14 12 10 23 -4 9 -2 19 3 23 14 8 21 130 7
130 -6 0 -5 4 3 9 9 6 11 18 7 34 -3 14 -2 29 4 32 11 7 4 46 -16 84 -8 14
-14 31 -14 37 0 25 -49 121 -76 150 -16 17 -29 39 -28 50 0 10 -9 38 -22 61
-12 23 -30 65 -39 92 -9 28 -21 53 -26 56 -5 4 -9 15 -9 26 0 10 -5 19 -11 19
-5 0 -16 15 -24 33 -18 41 -40 66 -90 102 -35 25 -93 76 -142 124 -18 18 -51
69 -93 146 -51 93 -53 98 -80 135 -69 97 -211 202 -692 512 -40 26 -104 70
-143 98 -67 48 -201 120 -224 120 -6 0 -19 5 -29 10 -20 13 -260 100 -386 141
-93 30 -194 68 -211 80 -5 4 -26 10 -45 14 -19 4 -48 17 -65 29 -16 11 -32 20
-35 19 -3 0 -20 5 -39 13 -40 17 -44 17 -36 4 3 -5 -1 -10 -10 -10 -9 0 -15 7
-13 17 2 13 -13 23 -67 41 -130 43 -216 54 -465 57 -133 2 -289 10 -360 19
-210 26 -228 26 -321 2z m552 -96 c6 0 8 -4 5 -9 -8 -12 -46 -2 -46 11 0 6 7
7 16 4 9 -3 20 -6 25 -6z m23 -39 c-14 -14 -39 -17 -42 -6 -2 6 7 13 20 16 27
7 36 3 22 -10z m687 -39 c-7 -2 -18 1 -23 6 -8 8 -4 9 13 5 13 -4 18 -8 10
-11z m-691 -8 c0 -2 -9 -4 -21 -4 -11 0 -18 4 -14 10 5 8 35 3 35 -6z m729
-79 c-9 -9 -23 -13 -32 -9 -28 10 -19 24 15 24 29 0 31 -2 17 -15z m-1219 -71
c0 -2 -9 -4 -20 -4 -11 0 -20 4 -20 9 0 5 9 7 20 4 11 -3 20 -7 20 -9z m1275
-43 c3 -5 1 -12 -5 -16 -5 -3 -10 1 -10 9 0 18 6 21 15 7z m-968 -77 c-3 -3
-12 -4 -19 -1 -8 3 -5 6 6 6 11 1 17 -2 13 -5z m3193 -1344 c0 -5 -2 -10 -4
-10 -3 0 -8 5 -11 10 -3 6 -1 10 4 10 6 0 11 -4 11 -10z m80 -154 c-14 -14
-22 -2 -14 18 5 14 9 15 15 4 4 -7 4 -17 -1 -22z m76 -323 c-10 -10 -19 5 -10
18 6 11 8 11 12 0 2 -7 1 -15 -2 -18z m8 -69 c17 -7 22 -34 6 -34 -5 0 -10 7
-10 15 0 8 -4 15 -8 15 -5 0 -7 -15 -5 -32 l4 -33 -15 25 c-8 14 -15 21 -16
16 0 -5 -3 -6 -7 -3 -3 4 2 14 13 22 23 17 19 16 38 9z m2 -90 c-9 -9 -20 -14
-23 -10 -4 3 2 13 13 20 25 18 31 12 10 -10z m-9 -60 c-9 -9 -27 6 -27 22 0
13 2 13 16 -1 9 -9 14 -18 11 -21z m-12 -34 c-3 -5 -11 -10 -16 -10 -6 0 -7 5
-4 10 3 6 11 10 16 10 6 0 7 -4 4 -10z m-108 -82 c-3 -7 -5 -2 -5 12 0 14 2
19 5 13 2 -7 2 -19 0 -25z m-20 -60 c-3 -8 -6 -5 -6 6 -1 11 2 17 5 13 3 -3 4
-12 1 -19z m-140 -100 c-3 -8 -6 -5 -6 6 -1 11 2 17 5 13 3 -3 4 -12 1 -19z
m158 -38 c3 -5 1 -10 -4 -10 -6 0 -11 5 -11 10 0 6 2 10 4 10 3 0 8 -4 11 -10z
m-35 -50 c0 -5 -9 -6 -20 -3 -11 3 -20 9 -20 13 0 5 9 6 20 3 11 -3 20 -9 20
-13z m-157 -37 c-7 -2 -21 -2 -30 0 -10 3 -4 5 12 5 17 0 24 -2 18 -5z m67
-17 c0 -8 6 -16 13 -19 10 -4 10 -7 0 -18 -11 -11 -13 -10 -13 4 0 9 -4 17 -8
17 -5 0 -9 7 -9 15 0 8 4 15 9 15 4 0 8 -6 8 -14z m50 0 c0 -11 -19 -15 -25
-6 -3 5 1 10 9 10 9 0 16 -2 16 -4z m-65 -46 c3 -5 1 -10 -4 -10 -6 0 -11 5
-11 10 0 6 2 10 4 10 3 0 8 -4 11 -10z m-28 -16 c-3 -3 -12 -4 -19 -1 -8 3 -5
6 6 6 11 1 17 -2 13 -5z m-7 -34 c0 -5 -4 -10 -9 -10 -5 0 -16 -3 -25 -6 -11
-4 -16 -1 -16 10 0 10 9 16 25 16 14 0 25 -4 25 -10z"/>
<path d="M2780 5555 c0 -11 8 -13 32 -8 23 4 29 3 24 -6 -7 -10 14 -11 54 -1
3 0 -10 7 -29 15 -43 19 -81 19 -81 0z"/>
<path d="M2919 5534 c-18 -9 -20 -14 -9 -17 8 -3 39 -13 69 -22 30 -9 100 -39
157 -66 57 -27 108 -49 114 -49 5 0 24 -9 42 -20 37 -22 48 -25 48 -10 0 6 -6
10 -14 10 -7 0 -30 11 -50 25 -20 14 -42 25 -49 25 -7 0 -23 9 -37 20 -14 11
-32 20 -39 20 -8 0 -27 12 -43 27 -15 14 -36 27 -47 28 -11 1 -26 7 -35 14 -9
7 -23 11 -31 7 -8 -3 -15 -2 -15 3 0 15 -36 19 -61 5z"/>
<path d="M1215 5429 c-3 -4 -12 -6 -20 -2 -23 8 -123 -7 -138 -21 -7 -8 -25
-13 -40 -13 -14 0 -40 -9 -57 -20 -30 -19 -30 -21 -11 -26 12 -3 21 -1 21 4 0
5 11 9 25 9 14 0 25 5 25 10 0 6 7 10 15 10 8 0 23 4 33 10 9 5 56 12 105 15
84 7 109 17 67 28 -11 3 -22 1 -25 -4z"/>
<path d="M1288 5433 c6 -2 10 -8 7 -13 -7 -11 43 -22 57 -14 7 5 -2 13 -23 20
-32 12 -68 18 -41 7z"/>
<path d="M1383 5423 c-21 -8 -15 -18 11 -19 17 -1 23 2 19 12 -5 15 -10 16
-30 7z"/>
<path d="M1430 5420 c0 -6 7 -10 15 -10 8 0 15 2 15 4 0 2 -7 6 -15 10 -8 3
-15 1 -15 -4z"/>
<path d="M873 5330 c-18 -11 -33 -24 -33 -30 0 -5 -6 -7 -12 -5 -7 3 -24 -4
-37 -14 -20 -15 -22 -21 -12 -37 12 -18 12 -18 8 4 -3 12 -2 22 1 23 4 0 20 2
35 3 16 1 33 10 39 19 5 10 14 14 20 11 7 -4 8 -2 4 4 -4 7 3 14 19 18 13 3
22 10 19 15 -8 13 -15 11 -51 -11z"/>
<path d="M3350 5341 c0 -5 32 -17 71 -26 39 -10 93 -28 120 -41 27 -13 52 -23
56 -22 5 1 18 -3 30 -10 17 -9 22 -9 27 3 3 10 -6 17 -32 25 -20 5 -43 10 -49
10 -7 0 -13 4 -13 10 0 5 -16 12 -35 16 -19 3 -35 10 -35 14 0 7 -42 17 -112
26 -16 2 -28 0 -28 -5z"/>
<path d="M2420 5326 c0 -8 4 -17 9 -20 5 -4 7 3 4 14 -6 23 -13 26 -13 6z"/>
<path d="M1308 5283 c7 -3 16 -2 19 1 4 3 -2 6 -13 5 -11 0 -14 -3 -6 -6z"/>
<path d="M979 5250 c-19 -16 -30 -30 -26 -30 11 0 -19 -30 -30 -30 -4 0 -19
-12 -32 -25 -20 -22 -40 -30 -63 -26 -13 2 -9 -17 4 -21 8 -3 5 -13 -10 -33
-12 -15 -22 -37 -22 -48 0 -17 -5 -19 -46 -14 -31 3 -54 13 -74 32 -27 26 -28
30 -15 55 9 18 10 30 3 41 -8 11 -9 11 -4 -3 3 -10 2 -18 -2 -18 -4 0 -13 -14
-21 -32 -15 -33 -16 -31 36 -65 16 -10 13 -12 -20 -12 -24 -1 -40 -6 -44 -16
-8 -24 4 -30 22 -11 30 29 155 -14 155 -54 0 -11 4 -20 9 -20 14 0 22 -48 26
-156 3 -87 1 -103 -21 -148 -13 -27 -24 -58 -24 -68 0 -10 -4 -18 -10 -18 -5
0 -10 -4 -10 -9 0 -10 -60 -112 -71 -121 -6 -5 -62 -122 -81 -170 -5 -14 -16
-38 -24 -53 -7 -15 -9 -25 -4 -22 7 4 10 -21 8 -73 -2 -44 -6 -78 -10 -76 -4
3 -10 -6 -14 -20 -3 -13 -15 -26 -27 -29 -12 -3 -49 -12 -82 -22 -33 -9 -72
-17 -87 -17 -24 -1 -28 -5 -28 -30 0 -32 20 -45 47 -29 10 6 12 11 6 11 -7 0
-13 5 -13 10 0 6 6 10 12 8 7 -1 23 3 36 10 16 9 27 10 42 2 16 -8 20 -8 20 4
0 17 21 26 65 26 31 0 33 -2 40 -47 4 -25 13 -57 22 -69 8 -13 12 -27 9 -32
-7 -12 47 -125 71 -150 10 -10 25 -30 33 -46 37 -71 214 -238 331 -312 100
-63 346 -180 357 -170 2 3 -33 23 -79 44 -46 22 -120 62 -164 90 -44 29 -94
58 -111 66 -18 8 -36 21 -40 29 -5 8 -30 31 -56 50 -48 37 -182 172 -215 217
-10 14 -26 41 -36 60 -16 31 -16 32 -1 12 l17 -24 14 24 c14 23 14 23 8 1 -7
-24 10 -33 18 -10 2 6 4 -3 4 -20 0 -18 -4 -33 -9 -33 -5 0 -6 -4 -3 -10 3 -5
11 -10 16 -10 6 0 7 5 3 11 -4 7 -1 10 7 7 8 -3 14 -12 14 -20 0 -13 70 -88
82 -88 2 0 18 -16 35 -35 17 -20 33 -34 35 -31 3 3 16 -8 30 -25 14 -16 30
-26 36 -22 5 3 20 -5 31 -19 12 -13 53 -46 93 -72 63 -42 74 -46 95 -36 22 10
22 10 4 -4 -18 -15 -18 -16 10 -28 16 -7 43 -23 60 -35 17 -13 36 -23 42 -23
6 0 28 -10 49 -22 36 -21 37 -21 20 -2 -9 12 -14 24 -10 27 3 4 -1 7 -10 7 -9
0 -17 4 -17 9 0 4 -14 7 -31 5 -28 -3 -32 0 -46 36 -9 22 -22 40 -30 40 -7 0
-16 7 -19 15 -4 8 -11 15 -18 15 -14 0 -76 55 -76 68 0 5 -12 18 -27 27 -14
10 -38 30 -51 44 -14 14 -22 20 -18 14 14 -25 -6 -13 -42 25 -20 21 -36 46
-34 55 2 9 -2 17 -8 17 -6 0 -8 -5 -4 -11 4 -7 1 -10 -7 -7 -8 3 -13 13 -11
22 2 11 -5 20 -17 23 -14 3 -21 14 -21 29 0 12 -4 25 -9 29 -14 8 -41 65 -41
84 0 13 2 13 9 2 5 -7 14 -10 20 -6 8 4 1 17 -21 37 -18 16 -28 28 -23 26 27
-10 71 -34 76 -41 4 -5 9 -4 13 1 3 6 -3 17 -14 25 -20 14 -20 15 -1 38 17 21
17 24 2 35 -9 7 -13 16 -9 20 4 4 14 1 23 -6 13 -11 15 -9 15 10 0 13 -3 20
-7 17 -4 -4 -13 7 -20 24 -7 18 -11 34 -8 37 3 3 5 0 5 -6 0 -7 7 -12 16 -12
9 0 12 -5 8 -12 -6 -10 -3 -9 9 0 12 10 14 19 7 38 -9 22 -8 24 14 18 16 -4
25 0 30 12 6 16 8 16 26 -1 22 -20 42 -13 22 7 -7 7 -12 17 -12 22 0 6 5 5 12
-2 7 -7 21 -12 33 -12 11 0 31 -7 43 -16 31 -21 28 -6 -4 18 -20 16 -23 23
-12 30 10 7 8 12 -9 25 -13 8 -23 20 -23 26 0 6 -10 21 -22 34 -26 28 -6 31
22 3 16 -16 20 -17 20 -5 0 8 -4 15 -9 15 -5 0 -8 8 -7 18 1 12 -5 16 -21 15
-15 -2 -21 2 -17 11 3 8 1 17 -5 21 -6 3 -11 -1 -11 -11 0 -25 -10 -12 -16 21
-3 17 -1 24 6 20 5 -3 10 -2 10 3 0 15 -28 22 -34 9 -3 -8 -9 -7 -19 6 -8 9
-19 17 -26 17 -6 0 -11 7 -11 15 0 9 6 12 18 9 9 -3 5 4 -11 16 -15 12 -25 26
-22 30 3 5 1 11 -5 15 -6 4 -10 -5 -10 -22 0 -40 -15 -62 -32 -45 -17 17 -58
15 -58 -2 0 -27 -40 -5 -41 23 -1 22 -3 21 -9 -9 -4 -19 -8 -29 -9 -22 -1 17
-21 5 -21 -14 0 -8 10 -14 23 -14 22 0 22 -1 -3 -13 -20 -11 -26 -11 -28 0 -2
7 -10 13 -18 13 -8 0 -14 8 -14 18 0 14 -2 15 -10 2 -8 -13 -10 -13 -10 2 0 9
6 19 13 21 8 4 8 6 0 6 -13 1 57 134 88 167 21 23 35 25 140 25 81 0 190 -40
261 -97 58 -46 179 -165 211 -207 12 -16 31 -39 43 -51 29 -30 93 -128 142
-218 41 -74 54 -108 29 -78 -7 8 -17 16 -22 17 -13 2 -14 -36 -2 -54 12 -19
21 -110 11 -115 -15 -9 -76 12 -72 25 2 7 -11 27 -30 46 -31 32 -32 32 -22 6
5 -14 10 -32 10 -38 0 -14 -56 -53 -71 -49 -5 1 -9 -2 -9 -8 0 -5 -10 -10 -22
-11 -21 0 -21 -1 -4 -8 20 -8 33 -51 15 -51 -5 0 -7 5 -4 10 3 6 -1 10 -10 10
-13 0 -14 -3 -3 -22 7 -13 12 -27 13 -33 0 -5 7 -30 15 -55 15 -50 15 -46 5
-79 -5 -17 -4 -21 5 -16 9 6 11 -4 9 -38 -2 -25 -1 -43 3 -41 4 3 13 -4 20
-16 7 -11 19 -20 26 -20 7 0 11 -4 8 -8 -15 -25 83 -63 143 -55 29 4 41 2 41
-7 0 -10 3 -10 15 0 8 7 30 10 51 7 59 -8 69 16 46 111 -9 40 -1 65 13 41 4
-5 13 -8 21 -5 7 3 16 1 19 -4 4 -6 11 -10 16 -10 6 0 7 5 3 11 -9 16 46 -22
76 -51 14 -14 41 -44 59 -68 18 -23 37 -40 42 -37 5 4 6 0 3 -8 -3 -8 -1 -18
5 -22 23 -13 9 30 -32 104 -23 42 -60 112 -82 156 -22 44 -42 82 -45 85 -3 3
-16 25 -30 50 -13 25 -33 59 -45 77 -24 38 -140 222 -200 318 -61 99 -80 124
-170 233 -121 147 -222 234 -350 303 -75 41 -85 43 -162 44 -46 0 -83 4 -83 8
0 4 6 20 14 35 8 15 17 45 21 66 7 33 11 37 31 33 13 -2 24 -1 24 3 0 12 105
-9 155 -30 26 -11 51 -18 55 -15 5 3 29 -11 54 -30 26 -19 51 -35 56 -35 6 0
10 -4 10 -10 0 -5 14 -17 31 -26 47 -24 247 -233 268 -279 10 -22 36 -60 59
-84 40 -44 92 -134 92 -160 0 -8 7 -19 16 -25 9 -7 26 -41 39 -77 41 -117 228
-473 316 -601 11 -15 19 -32 19 -39 0 -6 7 -8 16 -5 9 4 13 2 8 -5 -3 -6 5
-21 20 -34 15 -13 26 -27 24 -31 -4 -15 13 -54 23 -54 5 0 9 -6 9 -12 0 -7 8
-22 16 -33 16 -19 16 -19 9 5 -4 14 -14 32 -21 41 -19 22 -18 34 2 18 15 -12
16 -11 9 11 -4 14 -15 36 -24 50 -40 61 -62 125 -59 175 l3 50 43 -3 c31 -3
50 2 74 19 25 19 46 23 102 24 70 1 101 9 91 25 -3 4 2 13 10 20 8 7 15 23 15
36 0 34 37 33 46 -1 3 -14 15 -32 26 -40 18 -12 23 -11 41 6 19 17 21 33 24
186 2 93 0 173 -4 180 -5 6 -20 14 -34 18 -22 5 -27 2 -32 -16 -4 -15 -11 -20
-25 -17 -12 4 -24 -2 -32 -15 -12 -19 -13 -19 -25 17 -16 45 -24 54 -34 38 -4
-7 -12 1 -20 23 -7 20 -19 35 -28 35 -9 0 -14 3 -10 6 5 5 -28 44 -38 44 -3 0
-5 -10 -6 -22 l0 -23 -10 24 c-8 20 -14 23 -44 18 -23 -4 -35 -2 -35 6 -1 7
-6 5 -13 -5 -7 -9 -24 -18 -37 -20 -16 -2 -27 -12 -31 -28 -4 -14 -7 -19 -8
-12 -2 22 -20 13 -27 -13 -3 -14 -12 -25 -20 -25 -7 0 -16 -11 -20 -24 -3 -15
-11 -23 -19 -20 -8 4 -16 -6 -20 -27 -5 -20 -10 -27 -15 -19 -6 10 -8 10 -12
0 -2 -7 -25 -14 -51 -16 -43 -4 -48 -2 -59 21 -6 14 -16 25 -22 25 -14 0 -43
46 -86 135 -19 39 -39 75 -46 80 -7 6 -26 35 -42 65 -38 71 -95 163 -105 171
-4 3 -22 27 -40 52 -84 121 -120 166 -171 215 -31 30 -56 58 -56 63 0 5 -7 9
-15 9 -8 0 -15 5 -15 11 0 6 -7 9 -15 5 -8 -3 -15 -2 -15 2 0 5 -16 14 -36 21
-19 7 -33 15 -30 19 3 3 -4 10 -17 17 -12 6 -21 16 -20 21 1 6 -11 8 -28 6
-22 -3 -29 0 -29 12 0 9 -4 16 -10 16 -5 0 -10 -7 -10 -15 0 -13 -3 -13 -20
-3 -18 11 -18 15 -5 35 9 14 11 24 5 28 -6 3 -10 1 -10 -5 0 -6 -7 -18 -15
-26 -9 -10 -15 -11 -15 -4 0 7 -8 9 -19 5 -30 -9 -71 15 -71 42 0 12 -4 23
-10 23 -5 0 -7 -13 -3 -30 7 -35 -4 -40 -17 -7 -8 20 -9 18 -10 -13 l-1 -35
-14 25 c-8 14 -14 34 -15 44 0 11 -16 52 -35 93 -37 78 -40 87 -26 79 5 -3 12
6 15 19 4 14 11 23 16 20 5 -3 8 0 5 7 -6 16 60 88 104 114 17 10 29 23 27 29
-2 5 6 20 17 33 29 31 16 27 -24 -8z m-32 -482 c-3 -7 -5 -2 -5 12 0 14 2 19
5 13 2 -7 2 -19 0 -25z m72 -580 c0 -13 -3 -18 -5 -11 -3 7 -13 9 -22 6 -13
-4 -12 -2 3 10 26 21 25 21 24 -5z m-649 -318 c0 -5 -4 -10 -10 -10 -5 0 -10
5 -10 10 0 6 5 10 10 10 6 0 10 -4 10 -10z m545 -66 c-7 -8 -21 -11 -29 -8
-25 10 -19 19 13 20 25 1 27 -1 16 -12z m-201 -80 c3 -8 2 -12 -4 -9 -6 3 -10
10 -10 16 0 14 7 11 14 -7z m806 -54 c0 -5 -7 -7 -15 -4 -8 4 -15 8 -15 10 0
2 7 4 15 4 8 0 15 -4 15 -10z m-80 -40 c0 -5 -2 -10 -4 -10 -3 0 -8 5 -11 10
-3 6 -1 10 4 10 6 0 11 -4 11 -10z m-536 -96 c5 -14 4 -15 -9 -4 -17 14 -19
20 -6 20 5 0 12 -7 15 -16z m40 -30 c9 -3 16 -12 16 -20 0 -7 8 -17 17 -22 13
-8 29 -42 18 -42 -1 0 -20 16 -41 35 -22 21 -32 35 -23 36 8 0 6 4 -6 9 -23
10 -5 13 19 4z m96 -96 c0 -6 -6 -5 -15 2 -8 7 -15 14 -15 16 0 2 7 1 15 -2 8
-4 15 -11 15 -16z m110 -38 c8 -5 11 -10 5 -10 -5 0 -17 5 -25 10 -8 5 -10 10
-5 10 6 0 17 -5 25 -10z m140 -124 c0 -2 -7 -7 -16 -10 -8 -3 -12 -2 -9 4 6
10 25 14 25 6z"/>
<path d="M1655 5270 c-4 -6 6 -10 22 -10 22 0 25 2 13 10 -19 12 -27 12 -35 0z"/>
<path d="M1770 5260 c0 -5 5 -10 10 -10 6 0 10 5 10 10 0 6 -4 10 -10 10 -5 0
-10 -4 -10 -10z"/>
<path d="M3666 5241 c-7 -10 82 -43 94 -36 5 3 10 0 12 -6 4 -11 72 -39 97
-39 8 0 22 -7 32 -16 20 -18 41 -11 32 11 -3 8 -16 15 -28 15 -13 0 -30 6 -37
13 -7 7 -33 19 -58 27 -25 7 -51 18 -57 23 -7 5 -20 7 -28 3 -8 -3 -15 -1 -15
4 0 13 -37 13 -44 1z"/>
<path d="M729 5217 c-8 -7 -24 -25 -34 -41 l-19 -29 23 12 c13 7 41 11 62 9
21 -2 39 0 39 4 0 5 -6 9 -12 9 -7 1 -17 2 -23 4 -5 1 -14 3 -20 4 -6 1 -5 5
2 9 7 4 9 13 5 19 -5 8 -11 8 -23 0z"/>
<path d="M2690 5220 c0 -5 7 -10 16 -10 8 0 12 5 9 10 -3 6 -10 10 -16 10 -5
0 -9 -4 -9 -10z"/>
<path d="M1790 5180 c0 -17 39 -54 47 -45 5 4 2 10 -4 12 -7 3 -13 13 -13 24
0 10 -7 19 -15 19 -8 0 -15 -5 -15 -10z"/>
<path d="M2720 5169 c0 -5 5 -7 10 -4 6 3 10 8 10 11 0 2 -4 4 -10 4 -5 0 -10
-5 -10 -11z"/>
<path d="M1760 5154 c0 -8 5 -12 10 -9 6 3 10 10 10 16 0 5 -4 9 -10 9 -5 0
-10 -7 -10 -16z"/>
<path d="M1460 5149 c0 -5 5 -7 10 -4 6 3 10 8 10 11 0 2 -4 4 -10 4 -5 0 -10
-5 -10 -11z"/>
<path d="M2001 5134 c0 -11 3 -14 6 -6 3 7 2 16 -1 19 -3 4 -6 -2 -5 -13z"/>
<path d="M3956 5137 c2 -7 35 -28 72 -47 37 -19 84 -47 105 -63 21 -16 40 -27
43 -25 2 3 24 -15 49 -40 28 -28 50 -42 60 -38 8 3 14 0 12 -6 -1 -6 8 -16 19
-23 12 -6 28 -16 36 -23 9 -7 36 -23 61 -36 25 -14 88 -52 139 -84 51 -33 123
-80 161 -103 37 -24 67 -47 67 -51 0 -5 9 -8 21 -8 22 0 43 -16 111 -87 23
-24 51 -43 62 -43 15 0 17 -3 8 -9 -10 -6 -10 -10 3 -21 27 -22 56 -68 61 -96
3 -15 11 -39 19 -53 l14 -26 0 35 c1 20 -12 57 -29 88 -16 29 -26 60 -23 68 3
8 -1 14 -10 14 -8 0 -21 14 -29 30 -15 35 -39 41 -31 8 4 -18 3 -20 -6 -12
-11 10 -18 31 -20 60 -1 7 -21 18 -45 25 -25 7 -42 17 -40 21 3 4 -1 8 -9 8
-8 0 -27 11 -43 25 -16 14 -35 25 -42 25 -7 0 -25 12 -40 27 -30 31 -87 65
-95 57 -3 -3 -8 4 -12 15 -3 12 -15 21 -26 21 -10 0 -19 5 -19 10 0 6 -5 10
-11 10 -6 0 -29 13 -52 28 -51 34 -98 56 -114 53 -6 -1 -14 3 -18 9 -3 6 0 7
9 4 9 -3 16 -2 16 4 0 5 -12 13 -27 17 -14 3 -37 16 -49 28 -13 12 -25 20 -27
17 -2 -3 -22 11 -44 31 -55 50 -149 111 -203 133 -25 10 -53 22 -62 27 -24 12
-28 11 -22 -4z"/>
<path d="M1110 5120 c6 -11 15 -18 21 -15 5 4 3 12 -5 21 -21 20 -28 17 -16
-6z"/>
<path d="M1056 5121 c-3 -5 1 -14 9 -21 10 -9 15 -9 15 -1 0 6 -5 11 -11 11
-5 0 -7 5 -4 10 3 6 4 10 1 10 -3 0 -7 -4 -10 -9z"/>
<path d="M1665 5120 c-3 -5 -1 -10 4 -10 6 0 11 5 11 10 0 6 -2 10 -4 10 -3 0
-8 -4 -11 -10z"/>
<path d="M1690 5115 c0 -9 6 -12 15 -9 8 4 15 10 15 15 0 5 -7 9 -15 9 -8 0
-15 -7 -15 -15z"/>
<path d="M1828 5113 c7 -3 16 -2 19 1 4 3 -2 6 -13 5 -11 0 -14 -3 -6 -6z"/>
<path d="M1765 5090 c3 -5 13 -10 21 -10 8 0 14 5 14 10 0 6 -9 10 -21 10 -11
0 -17 -4 -14 -10z"/>
<path d="M1600 5079 c0 -5 5 -7 10 -4 6 3 10 8 10 11 0 2 -4 4 -10 4 -5 0 -10
-5 -10 -11z"/>
<path d="M1700 5080 c0 -5 7 -10 16 -10 8 0 12 5 9 10 -3 6 -10 10 -16 10 -5
0 -9 -4 -9 -10z"/>
<path d="M1635 5060 c-3 -5 1 -10 10 -10 9 0 13 5 10 10 -3 6 -8 10 -10 10 -2
0 -7 -4 -10 -10z"/>
<path d="M1026 5035 c4 -8 8 -15 10 -15 2 0 4 7 4 15 0 8 -4 15 -10 15 -5 0
-7 -7 -4 -15z"/>
<path d="M1070 4999 c0 -5 5 -7 10 -4 6 3 10 8 10 11 0 2 -4 4 -10 4 -5 0 -10
-5 -10 -11z"/>
<path d="M610 4940 c0 -5 7 -10 16 -10 8 0 12 5 9 10 -3 6 -10 10 -16 10 -5 0
-9 -4 -9 -10z"/>
<path d="M624 4871 c13 -44 33 -71 23 -32 -3 14 -1 32 6 40 9 12 9 13 -1 7 -7
-4 -15 -1 -18 8 -13 34 -21 14 -10 -23z"/>
<path d="M3978 4863 c7 -3 16 -2 19 1 4 3 -2 6 -13 5 -11 0 -14 -3 -6 -6z"/>
<path d="M660 4846 c0 -8 5 -18 10 -21 6 -3 10 1 10 9 0 8 -4 18 -10 21 -5 3
-10 -1 -10 -9z"/>
<path d="M636 4760 c6 -43 15 -58 77 -124 25 -28 29 -29 43 -14 15 15 14 17
-7 23 -13 4 -26 10 -29 14 -3 3 -14 11 -25 18 -11 6 -19 17 -17 24 2 7 -2 15
-7 19 -6 3 -17 24 -26 45 l-15 40 6 -45z"/>
<path d="M705 4741 c-2 -5 4 -11 15 -14 11 -3 20 -2 20 3 0 12 -28 21 -35 11z"/>
<path d="M607 4638 c-12 -30 -14 -45 -6 -52 7 -8 8 -6 4 5 -6 16 18 49 36 49
5 0 9 5 9 11 0 5 -4 8 -9 4 -5 -3 -11 1 -13 10 -2 8 -11 -4 -21 -27z"/>
<path d="M606 4536 c-3 -14 -10 -26 -15 -26 -12 0 -81 -70 -81 -82 0 -6 7 -7
16 -4 9 3 18 6 20 6 2 0 4 5 4 11 0 7 16 26 35 45 19 18 35 37 35 42 0 6 17 8
40 5 26 -4 40 -2 40 6 0 6 -6 11 -14 11 -7 0 -27 3 -43 6 -27 5 -31 3 -37 -20z"/>
<path d="M740 4549 c0 -5 5 -7 10 -4 6 3 10 8 10 11 0 2 -4 4 -10 4 -5 0 -10
-5 -10 -11z"/>
<path d="M480 4395 c-10 -12 -10 -19 -2 -27 8 -8 13 -6 18 8 4 10 12 22 18 26
7 5 5 8 -5 8 -9 0 -22 -7 -29 -15z"/>
<path d="M431 4346 c-9 -11 -9 -15 1 -20 7 -3 4 -4 -6 -3 -10 1 -21 -4 -23
-10 -3 -7 0 -13 7 -13 6 0 9 -4 5 -9 -3 -5 -1 -12 4 -16 14 -8 60 41 57 62 -4
23 -29 28 -45 9z"/>
<path d="M875 4328 c2 -12 -3 -18 -17 -18 -10 0 -16 -5 -13 -10 4 -7 13 -7 26
0 15 9 19 7 19 -5 0 -8 5 -15 10 -15 6 0 10 9 10 20 0 11 -6 20 -14 20 -8 0
-16 6 -19 13 -2 6 -3 4 -2 -5z"/>
<path d="M731 4274 c0 -11 3 -14 6 -6 3 7 2 16 -1 19 -3 4 -6 -2 -5 -13z"/>
<path d="M5080 4245 c0 -10 40 -75 47 -75 2 0 -6 17 -18 38 -28 45 -29 47 -29
37z"/>
<path d="M5161 4247 c2 -1 13 -9 24 -17 19 -14 19 -14 6 3 -7 9 -18 17 -24 17
-6 0 -8 -1 -6 -3z"/>
<path d="M357 4174 c-16 -21 -16 -26 -3 -39 16 -17 36 -20 36 -6 0 5 2 15 5
23 3 7 0 21 -7 30 -12 16 -15 15 -31 -8z"/>
<path d="M330 4180 c0 -5 5 -10 10 -10 6 0 10 5 10 10 0 6 -4 10 -10 10 -5 0
-10 -4 -10 -10z"/>
<path d="M5150 4126 c8 -10 48 -44 90 -76 41 -32 83 -67 94 -78 10 -12 22 -19
27 -16 5 2 15 -11 23 -31 9 -20 20 -34 26 -30 6 4 7 -1 3 -12 -3 -10 -2 -15 2
-10 5 4 21 -19 36 -50 l27 -58 0 38 c-1 21 -4 33 -8 27 -5 -7 -9 -4 -13 9 -6
23 12 28 31 9 18 -18 25 -3 10 21 -14 23 -33 27 -44 10 -4 -7 -12 1 -20 21
-10 22 -19 30 -29 26 -8 -3 -15 -1 -15 3 0 5 7 11 15 15 22 8 19 26 -4 26 -11
0 -23 5 -26 10 -4 6 -10 8 -15 5 -5 -3 -19 5 -32 17 -13 13 -17 17 -8 11 9 -7
21 -13 26 -13 15 1 -37 40 -53 40 -8 0 -11 4 -8 10 4 6 -1 7 -11 3 -13 -5 -15
-3 -9 7 6 10 4 12 -8 7 -9 -3 -18 -3 -21 1 -2 4 -26 23 -53 42 -26 19 -41 26
-33 16z"/>
<path d="M340 4013 c1 -27 1 -27 15 -9 14 19 12 36 -6 36 -5 0 -9 -12 -9 -27z"/>
<path d="M4460 4008 c0 -11 4 -17 9 -13 5 3 13 1 16 -5 4 -6 15 -8 26 -5 13 4
19 2 19 -9 0 -23 -14 -27 -48 -14 -25 10 -34 10 -44 0 -10 -10 -10 -15 1 -21
11 -7 10 -13 -7 -31 -24 -26 -21 -40 8 -33 11 3 20 1 20 -5 0 -6 7 -18 16 -26
21 -21 -3 -22 -33 -1 -18 12 -22 13 -26 1 -3 -8 2 -16 14 -19 12 -3 19 -14 19
-30 0 -14 5 -29 10 -32 6 -3 10 -1 10 4 0 17 37 13 43 -4 4 -8 2 -17 -3 -20
-16 -10 -11 -22 13 -30 12 -4 25 -7 29 -6 4 0 18 -17 30 -39 13 -22 26 -40 31
-40 15 0 7 39 -10 49 -10 5 -14 13 -10 17 5 5 12 2 17 -6 8 -13 11 -12 23 4
14 19 15 19 52 -4 26 -16 37 -19 33 -9 -20 52 -20 62 -4 56 9 -4 16 -2 16 3 0
6 -8 10 -17 11 -10 0 -13 3 -6 6 10 3 10 9 0 25 -17 29 -45 58 -57 58 -5 0
-10 9 -10 20 0 14 -7 20 -24 20 -13 0 -29 7 -36 15 -10 12 -10 15 3 15 9 0 19
-5 22 -10 8 -14 25 -3 25 16 0 8 -11 19 -24 24 -13 5 -27 14 -31 20 -3 5 -11
8 -16 5 -5 -4 -9 0 -9 7 0 19 -32 44 -63 50 -22 4 -27 1 -27 -14z m127 -84
c-3 -3 -12 -4 -19 -1 -8 3 -5 6 6 6 11 1 17 -2 13 -5z m-29 -184 c-7 -11 -16
-20 -20 -20 -5 0 -3 9 4 20 7 11 16 20 20 20 5 0 3 -9 -4 -20z m27 -9 c3 -5 1
-12 -5 -16 -5 -3 -10 1 -10 9 0 18 6 21 15 7z"/>
<path d="M321 3984 c0 -11 3 -14 6 -6 3 7 2 16 -1 19 -3 4 -6 -2 -5 -13z"/>
<path d="M1020 3939 c0 -5 9 -9 19 -9 11 0 22 4 25 9 3 5 -6 9 -19 9 -14 0
-25 -4 -25 -9z"/>
<path d="M3005 3930 c-3 -5 -1 -10 4 -10 6 0 11 5 11 10 0 6 -2 10 -4 10 -3 0
-8 -4 -11 -10z"/>
<path d="M1011 3911 c-7 -5 -9 -11 -4 -14 5 -3 15 -2 22 2 7 5 9 11 4 14 -5 3
-15 2 -22 -2z"/>
<path d="M4641 3904 c0 -11 3 -14 6 -6 3 7 2 16 -1 19 -3 4 -6 -2 -5 -13z"/>
<path d="M2996 3863 c-3 -25 -6 -89 -5 -142 l0 -96 15 45 c15 49 19 226 5 234
-4 3 -11 -15 -15 -41z"/>
<path d="M5540 3890 c-9 -6 -10 -10 -3 -10 6 0 15 5 18 10 8 12 4 12 -15 0z"/>
<path d="M980 3880 c0 -5 5 -10 11 -10 5 0 7 5 4 10 -3 6 -8 10 -11 10 -2 0
-4 -4 -4 -10z"/>
<path d="M455 3840 c3 -5 8 -10 11 -10 2 0 4 5 4 10 0 6 -5 10 -11 10 -5 0 -7
-4 -4 -10z"/>
<path d="M374 3805 c5 -11 13 -32 18 -47 5 -16 16 -28 23 -28 8 0 11 -8 8 -20
-3 -12 0 -20 8 -20 7 0 9 3 6 7 -4 3 -2 11 3 18 7 8 2 15 -16 24 -14 6 -24 17
-21 24 3 7 -5 24 -16 37 -16 20 -19 21 -13 5z"/>
<path d="M970 3810 c0 -5 5 -10 10 -10 6 0 10 5 10 10 0 6 -4 10 -10 10 -5 0
-10 -4 -10 -10z"/>
<path d="M950 3793 c0 -5 9 -18 20 -28 11 -10 20 -15 20 -11 0 4 -9 16 -20 28
-11 12 -20 17 -20 11z"/>
<path d="M5480 3750 c0 -8 14 -42 30 -75 16 -33 27 -49 24 -35 -9 36 -54 128
-54 110z"/>
<path d="M5553 3748 c-27 -13 -40 -41 -17 -36 9 2 23 13 32 26 16 25 16 25
-15 10z"/>
<path d="M940 3710 c0 -6 7 -10 15 -10 8 0 15 2 15 4 0 2 -7 6 -15 10 -8 3
-15 1 -15 -4z"/>
<path d="M910 3690 c0 -5 5 -10 11 -10 5 0 7 5 4 10 -3 6 -8 10 -11 10 -2 0
-4 -4 -4 -10z"/>
<path d="M4640 3672 c0 -14 6 -22 16 -22 14 0 15 3 3 18 -7 9 -15 19 -16 21
-2 2 -3 -5 -3 -17z"/>
<path d="M440 3665 c24 -32 40 -47 40 -37 0 4 -12 19 -27 33 -20 18 -23 19
-13 4z"/>
<path d="M501 3574 c13 -17 26 -30 28 -27 3 2 -8 16 -24 31 l-28 27 24 -31z"/>
<path d="M5575 3590 c3 -5 8 -10 11 -10 2 0 4 5 4 10 0 6 -5 10 -11 10 -5 0
-7 -4 -4 -10z"/>
<path d="M5565 3566 c10 -14 19 -26 22 -26 7 0 -17 39 -28 46 -6 3 -3 -5 6
-20z"/>
<path d="M5385 3539 c9 -17 19 -29 21 -26 7 7 -18 57 -28 57 -5 0 -1 -14 7
-31z"/>
<path d="M5467 3504 c3 -7 9 -14 14 -14 14 0 10 17 -5 23 -10 4 -13 1 -9 -9z"/>
<path d="M5610 3489 c0 -5 4 -8 9 -4 6 3 14 -3 20 -12 6 -10 11 -13 11 -7 0
12 -20 34 -32 34 -4 0 -8 -5 -8 -11z"/>
<path d="M5440 3486 c0 -2 8 -10 18 -17 15 -13 16 -12 3 4 -13 16 -21 21 -21
13z"/>
<path d="M5390 3451 c0 -6 4 -13 10 -16 6 -3 7 1 4 9 -7 18 -14 21 -14 7z"/>
<path d="M5680 3424 c0 -10 44 -69 57 -77 7 -4 13 -18 13 -29 0 -29 13 -14 15
17 0 18 -5 25 -17 25 -10 0 -18 4 -18 10 0 5 -11 20 -25 34 -14 14 -25 23 -25
20z"/>
<path d="M725 3410 c-11 -5 -16 -9 -11 -9 5 -1 2 -9 -5 -18 -7 -10 -1 -7 14 6
15 14 27 26 27 28 0 4 0 4 -25 -7z"/>
<path d="M680 3400 c0 -5 5 -10 10 -10 6 0 10 5 10 10 0 6 -4 10 -10 10 -5 0
-10 -4 -10 -10z"/>
<path d="M1410 3370 c0 -5 5 -10 10 -10 6 0 10 5 10 10 0 6 -4 10 -10 10 -5 0
-10 -4 -10 -10z"/>
<path d="M743 3351 c-1 -14 3 -18 13 -14 11 4 12 9 3 19 -15 18 -14 18 -16 -5z"/>
<path d="M5440 3356 c0 -8 4 -17 9 -20 5 -4 7 3 4 14 -6 23 -13 26 -13 6z"/>
<path d="M3620 3296 c-15 -29 -14 -31 16 -40 29 -9 38 17 16 44 l-18 22 -14
-26z m17 -18 c-3 -8 -6 -5 -6 6 -1 11 2 17 5 13 3 -3 4 -12 1 -19z"/>
<path d="M810 3275 c0 -9 5 -15 11 -13 6 2 11 8 11 13 0 5 -5 11 -11 13 -6 2
-11 -4 -11 -13z"/>
<path d="M5506 3277 c3 -10 9 -15 12 -12 3 3 0 11 -7 18 -10 9 -11 8 -5 -6z"/>
<path d="M5821 3264 c0 -11 3 -14 6 -6 3 7 2 16 -1 19 -3 4 -6 -2 -5 -13z"/>
<path d="M827 3254 c-3 -3 1 -13 9 -21 8 -9 18 -12 21 -9 4 4 0 13 -8 21 -8 9
-18 13 -22 9z"/>
<path d="M4778 3159 c-63 -61 -82 -85 -60 -72 34 18 172 144 172 156 0 20 -28
-2 -112 -84z"/>
<path d="M5652 3225 c0 -16 2 -22 5 -12 2 9 2 23 0 30 -3 6 -5 -1 -5 -18z"/>
<path d="M5788 3202 c5 -9 8 -25 7 -34 -2 -10 1 -18 6 -18 4 0 6 -6 3 -14 -3
-8 -1 -17 5 -21 17 -10 24 21 11 45 -9 18 -9 24 0 30 12 8 8 12 -23 23 -14 5
-16 3 -9 -11z"/>
<path d="M875 3200 c3 -5 8 -10 11 -10 2 0 4 5 4 10 0 6 -5 10 -11 10 -5 0 -7
-4 -4 -10z"/>
<path d="M1070 3195 c0 -8 7 -15 15 -15 8 0 15 4 15 9 0 5 -7 11 -15 15 -9 3
-15 0 -15 -9z"/>
<path d="M4970 3189 c0 -5 5 -7 10 -4 6 3 10 8 10 11 0 2 -4 4 -10 4 -5 0 -10
-5 -10 -11z"/>
<path d="M5481 3174 c0 -11 3 -14 6 -6 3 7 2 16 -1 19 -3 4 -6 -2 -5 -13z"/>
<path d="M935 3129 c7 -10 53 -42 131 -91 23 -15 64 -30 91 -34 26 -3 52 -9
58 -12 5 -3 21 -7 35 -8 93 -10 199 -42 179 -55 -9 -6 -10 -9 -2 -9 22 0 43
12 36 22 -4 7 4 9 21 6 34 -7 45 9 11 18 -13 3 -23 10 -20 14 3 4 -15 13 -39
19 -24 6 -44 16 -43 23 1 30 -3 51 -9 45 -4 -3 -15 -2 -25 4 -16 8 -19 6 -19
-11 0 -14 6 -20 16 -18 10 2 19 -3 22 -11 4 -11 0 -12 -14 -6 -11 5 -43 11
-72 13 -57 4 -74 21 -54 52 16 27 -5 43 -32 25 -13 -9 -32 -12 -46 -8 -14 3
-50 5 -80 4 -95 -2 -104 -1 -109 7 -9 13 -43 24 -36 11z m228 -74 c1 -6 -10
-11 -25 -13 -31 -4 -39 14 -10 21 23 6 33 4 35 -8z"/>
<path d="M5803 3073 c-11 -31 -7 -53 9 -53 6 0 8 13 6 30 -3 17 -1 30 4 30 4
0 8 5 8 10 0 21 -18 9 -27 -17z"/>
<path d="M1300 3075 c-11 -13 -10 -14 4 -9 9 3 16 10 16 15 0 13 -6 11 -20 -6z"/>
<path d="M2250 3084 c0 -10 69 -104 77 -104 3 0 -24 45 -40 65 -4 6 -14 19
-22 30 -8 11 -15 15 -15 9z"/>
<path d="M1242 3069 c2 -7 10 -15 17 -17 8 -3 12 1 9 9 -2 7 -10 15 -17 17 -8
3 -12 -1 -9 -9z"/>
<path d="M1402 3049 c2 -7 10 -15 17 -17 8 -3 12 1 9 9 -2 7 -10 15 -17 17 -8
3 -12 -1 -9 -9z"/>
<path d="M5788 2993 c7 -3 16 -2 19 1 4 3 -2 6 -13 5 -11 0 -14 -3 -6 -6z"/>
<path d="M4950 2980 c0 -5 -9 -19 -19 -29 -18 -18 -20 -18 -24 -3 -3 12 -8 8
-16 -15 -7 -18 -18 -31 -24 -30 -7 1 -11 -6 -11 -15 1 -12 -5 -18 -18 -18 -14
0 -18 -5 -14 -16 3 -9 6 -18 6 -20 0 -3 12 -9 26 -14 23 -9 25 -14 20 -44 l-6
-33 45 7 c28 4 46 3 48 -4 2 -6 6 -6 11 2 4 7 2 12 -3 12 -21 0 -11 19 12 22
14 2 22 10 22 22 0 25 22 32 29 9 3 -10 3 -1 1 21 -4 41 -15 59 -22 39 -10
-27 -18 -16 -48 62 -5 11 -7 28 -6 38 1 9 0 17 -3 17 -3 0 -6 -4 -6 -10z"/>
<path d="M5661 2954 c0 -11 3 -14 6 -6 3 7 2 16 -1 19 -3 4 -6 -2 -5 -13z"/>
<path d="M5790 2939 c0 -5 5 -7 10 -4 6 3 10 8 10 11 0 2 -4 4 -10 4 -5 0 -10
-5 -10 -11z"/>
<path d="M1340 2936 c0 -2 15 -6 34 -8 19 -2 32 0 30 4 -5 8 -64 12 -64 4z"/>
<path d="M4465 2920 c-8 -13 5 -13 25 0 13 8 13 10 -2 10 -9 0 -20 -4 -23 -10z"/>
<path d="M5765 2909 c-4 -5 -4 -21 -1 -35 10 -37 -18 -41 -62 -8 -20 15 -40
33 -44 38 -4 6 -9 8 -12 5 -7 -7 83 -99 97 -99 16 0 -15 -20 -31 -20 -7 0 -10
4 -7 10 3 6 -1 7 -10 4 -14 -6 -14 -8 1 -19 22 -16 12 -47 -13 -39 -13 4 -14
3 -5 -3 7 -5 10 -17 6 -26 -5 -14 -10 -15 -27 -5 -21 10 -21 10 -7 -7 11 -14
12 -19 3 -22 -7 -3 -13 -11 -13 -19 0 -8 -23 -37 -51 -64 -28 -28 -47 -50 -41
-50 24 0 44 14 53 36 4 13 15 24 24 24 8 0 15 6 15 14 0 7 10 21 23 30 17 12
18 14 3 9 -13 -4 -17 -3 -12 5 4 7 13 12 21 12 18 0 55 48 55 72 0 11 4 16 10
13 6 -3 7 1 4 9 -3 9 0 18 8 21 15 6 18 18 20 68 0 15 5 27 9 27 5 0 9 7 9 15
0 17 -16 20 -25 4z m-59 -187 c-18 -16 -18 -16 -6 6 6 13 14 21 18 18 3 -4 -2
-14 -12 -24z"/>
<path d="M1796 2895 c-3 -9 -14 -15 -23 -13 -10 2 -17 -2 -15 -9 1 -7 1 -13
-1 -13 -1 0 -17 -4 -35 -10 -29 -8 -33 -7 -28 6 4 10 1 14 -6 11 -7 -2 -12
-10 -10 -16 1 -6 -2 -11 -8 -11 -5 0 -10 5 -10 11 0 5 -5 7 -12 3 -15 -10
-121 -5 -128 5 -3 5 -26 11 -52 15 -26 4 -50 11 -53 17 -8 11 -25 12 -25 1 0
-5 26 -17 58 -27 31 -10 76 -24 100 -32 24 -8 52 -13 62 -10 11 3 33 -5 51
-19 36 -26 59 -24 93 7 11 11 23 19 28 19 4 0 8 7 8 15 0 8 6 15 13 15 8 0 22
9 32 20 10 11 13 20 7 20 -6 0 -17 3 -25 6 -8 3 -17 -2 -21 -11z"/>
<path d="M2020 2873 c-31 -6 -96 -27 -132 -44 -40 -18 -34 -31 6 -14 89 37
297 25 342 -20 l22 -22 17 30 c17 29 17 31 0 43 -37 27 -172 41 -255 27z"/>
<path d="M4395 2870 c-3 -6 1 -7 9 -4 18 7 21 14 7 14 -6 0 -13 -4 -16 -10z"/>
<path d="M5040 2870 c0 -5 5 -10 11 -10 5 0 7 5 4 10 -3 6 -8 10 -11 10 -2 0
-4 -4 -4 -10z"/>
<path d="M5245 2810 c-3 -5 -1 -18 4 -27 9 -16 10 -14 11 10 0 28 -5 34 -15
17z"/>
<path d="M4808 2798 c9 -9 15 -9 24 0 9 9 7 12 -12 12 -19 0 -21 -3 -12 -12z"/>
<path d="M1800 2785 c-33 -19 -21 -19 21 0 19 8 27 14 19 14 -8 0 -26 -6 -40
-14z"/>
<path d="M4203 2777 c-42 -20 -55 -37 -30 -37 30 0 53 13 64 36 6 13 10 24 10
23 -1 0 -21 -10 -44 -22z"/>
<path d="M1990 2784 c-42 -7 -154 -45 -174 -60 -30 -22 -13 -26 30 -8 109 46
303 47 365 4 27 -20 27 -20 32 1 4 16 -2 24 -31 36 -58 24 -158 36 -222 27z"/>
<path d="M1584 2760 c50 -25 54 -25 31 0 -10 11 -30 20 -44 20 -24 -1 -22 -3
13 -20z"/>
<path d="M1755 2760 c-3 -5 -1 -10 4 -10 6 0 11 5 11 10 0 6 -2 10 -4 10 -3 0
-8 -4 -11 -10z"/>
<path d="M4078 2699 c-36 -18 -45 -29 -32 -41 6 -7 91 38 99 53 10 15 -27 8
-67 -12z"/>
<path d="M1732 2670 c-29 -16 -56 -30 -60 -31 -4 -1 -21 -8 -39 -16 -18 -7
-37 -13 -43 -13 -5 0 -10 -5 -10 -11 0 -14 32 -4 105 32 53 27 118 69 105 68
-3 0 -29 -13 -58 -29z"/>
<path d="M1985 2693 c-54 -11 -105 -36 -110 -54 -4 -10 -13 -19 -21 -19 -8 0
-14 -5 -14 -11 0 -5 -4 -7 -10 -4 -5 3 -10 2 -10 -2 0 -5 19 -9 41 -10 23 -1
58 -10 78 -19 19 -9 67 -19 106 -22 64 -5 109 -21 127 -47 5 -6 8 -4 8 5 1 9
6 6 14 -9 12 -22 14 -18 20 50 4 41 9 83 12 94 4 16 -1 20 -23 22 -15 1 -53 9
-83 17 -53 16 -94 18 -135 9z"/>
<path d="M4170 2640 c-30 -16 -63 -29 -72 -30 -23 0 -47 -37 -41 -61 7 -25 12
-24 53 6 19 14 39 25 46 25 7 0 25 10 41 23 15 12 41 28 56 35 15 7 25 17 22
22 -11 17 -48 10 -105 -20z"/>
<path d="M1769 2615 c-12 -12 -134 -38 -212 -45 -72 -7 -91 -12 -107 -30 -31
-36 -16 -49 48 -44 60 5 125 20 154 35 10 5 24 9 32 9 7 0 29 13 47 30 19 16
36 25 37 20 6 -18 22 -10 22 10 0 19 -11 26 -21 15z"/>
<path d="M5513 2527 c-7 -7 -22 -21 -33 -31 -11 -11 -20 -24 -20 -29 0 -6 8
-1 18 9 9 10 26 24 37 30 20 11 33 34 18 34 -4 -1 -14 -6 -20 -13z"/>
<path d="M663 2513 c9 -2 23 -2 30 0 6 3 -1 5 -18 5 -16 0 -22 -2 -12 -5z"/>
<path d="M1060 2474 c-14 -7 -41 -20 -61 -29 -37 -16 -56 -41 -63 -85 -3 -14
-5 -27 -6 -30 -2 -3 -2 -8 -2 -11 1 -3 -12 -19 -28 -34 l-28 -27 -21 47 c-12
26 -21 51 -21 56 0 5 -9 13 -20 19 -11 6 -20 15 -20 21 0 15 -41 71 -47 65 -3
-2 4 -17 15 -33 11 -15 24 -43 27 -62 6 -29 5 -33 -9 -28 -10 4 -19 1 -23 -8
-7 -20 -38 -11 -76 21 -22 19 -40 24 -80 24 -37 0 -48 -3 -37 -10 11 -7 11
-10 2 -10 -20 0 5 -39 31 -49 12 -5 31 -18 41 -30 11 -11 27 -21 38 -21 10 0
18 -3 18 -8 0 -4 31 -41 70 -82 38 -41 72 -82 75 -90 7 -21 122 -71 122 -54 0
7 -4 11 -9 8 -4 -3 -8 0 -8 5 0 6 -7 11 -15 11 -8 0 -15 5 -15 11 0 6 7 9 15
6 10 -5 9 3 -6 30 -20 36 -22 84 -4 90 6 1 26 -30 45 -70 19 -39 41 -76 47
-80 7 -4 13 -15 13 -24 0 -13 -3 -14 -12 -5 -18 18 -33 15 -18 -3 7 -9 20 -15
29 -14 23 3 51 -11 51 -25 0 -7 14 -23 31 -35 28 -21 30 -21 20 -3 -6 11 -9
29 -6 40 2 14 -1 19 -10 16 -8 -3 -12 1 -12 13 1 10 -4 17 -10 15 -16 -3 -17
30 -1 46 9 9 9 15 0 24 -14 14 -17 158 -4 158 5 0 14 11 20 25 7 14 24 30 38
35 15 6 24 13 20 17 -3 3 4 11 17 18 18 9 23 8 29 -4 5 -12 7 -9 8 9 2 14 2
29 1 33 -1 5 3 6 9 2 5 -3 10 0 10 7 0 9 3 9 10 -2 8 -13 10 -12 10 3 0 11 -6
17 -17 15 -12 -2 -19 9 -28 42 l-11 45 -54 1 c-30 1 -66 -5 -80 -12z m130 -54
c8 -15 8 -18 -3 -14 -8 3 -14 11 -14 19 0 20 4 19 17 -5z"/>
<path d="M4052 2434 c-7 -31 -12 -70 -12 -86 0 -16 -4 -27 -9 -24 -5 3 -17
-27 -27 -66 -13 -55 -19 -68 -25 -53 -7 17 -8 16 -8 -7 -1 -15 -5 -29 -10 -33
-5 -3 -15 -22 -22 -43 -12 -39 -107 -161 -174 -225 -79 -75 -284 -178 -383
-193 -26 -4 -58 -11 -72 -16 -13 -5 -63 -12 -110 -16 -279 -23 -492 21 -637
129 -59 44 -73 47 -91 19 -7 -11 -18 -20 -25 -20 -22 0 -96 -44 -100 -60 -3
-14 5 -49 22 -95 38 -101 116 -205 155 -205 17 0 18 -2 6 -10 -13 -8 -12 -10
3 -10 10 0 25 -7 34 -15 8 -9 29 -19 46 -22 27 -5 28 -7 12 -14 -29 -11 188
-10 270 1 39 6 146 17 239 25 188 16 221 13 496 -44 161 -34 203 -38 155 -16
l-30 13 48 1 c28 1 46 5 42 11 -3 5 13 14 35 21 22 7 45 18 51 26 6 7 17 13
23 13 12 0 88 61 121 97 11 13 53 55 93 94 39 40 72 78 72 85 0 7 10 21 23 31
23 19 77 128 77 157 0 9 8 44 17 77 14 51 15 71 5 127 -6 37 -10 68 -8 69 7 8
144 33 176 33 22 0 64 -15 111 -39 67 -35 85 -40 175 -46 117 -8 102 -8 139
-6 24 1 27 3 15 12 -12 8 -12 10 5 8 11 -1 28 1 38 6 10 4 39 5 65 1 29 -4 42
-2 33 3 -13 9 -65 15 -298 40 -97 10 -148 27 -122 41 8 4 51 13 97 20 85 13
101 23 35 23 -57 -1 -142 -14 -200 -32 -21 -6 -35 -6 -39 0 -3 5 -10 7 -15 3
-5 -3 -48 -6 -94 -7 -66 -2 -85 1 -85 12 0 9 7 11 21 8 14 -4 19 -2 15 8 -4
11 0 11 21 0 23 -12 28 -11 47 6 18 17 21 18 24 5 2 -9 7 -16 12 -16 5 0 16
-3 24 -6 13 -5 15 -2 8 17 -11 28 -49 40 -123 38 -30 -1 -61 1 -68 6 -8 4 -17
2 -21 -5 -6 -10 -12 -7 -26 9 -15 17 -25 20 -51 15 -25 -5 -33 -3 -33 8 0 16
-63 28 -147 28 -24 0 -43 5 -43 10 0 11 10 13 57 10 42 -2 73 8 73 24 0 8 14
16 30 20 17 3 30 9 30 14 0 11 -94 49 -141 57 l-36 7 -11 -58z"/>
<path d="M5420 2467 c-14 -6 -31 -17 -37 -23 -7 -7 -18 -14 -25 -17 -7 -2 -10
-8 -6 -12 4 -4 19 2 34 14 14 11 30 18 35 15 5 -3 9 0 9 6 0 6 5 8 10 5 6 -3
10 1 10 9 0 9 -1 16 -2 15 -2 0 -14 -6 -28 -12z"/>
<path d="M620 2446 c0 -2 7 -7 16 -10 8 -3 12 -2 9 4 -6 10 -25 14 -25 6z"/>
<path d="M5318 2403 c-24 -6 -23 -23 2 -23 11 0 20 7 20 15 0 8 -1 14 -2 14
-2 -1 -11 -3 -20 -6z"/>
<path d="M3210 2372 c-8 -4 -14 -16 -14 -27 1 -11 2 -26 3 -32 1 -16 25 -16
70 -1 49 17 49 16 17 43 -29 25 -48 29 -76 17z"/>
<path d="M5260 2370 l-25 -8 28 -1 c15 -1 27 4 27 9 0 6 -1 10 -2 9 -2 -1 -14
-5 -28 -9z"/>
<path d="M5215 2350 c11 -5 27 -9 35 -9 9 0 8 4 -5 9 -11 5 -27 9 -35 9 -9 0
-8 -4 5 -9z"/>
<path d="M5167 2330 c-3 -11 -1 -20 4 -20 5 0 9 9 9 20 0 11 -2 20 -4 20 -2 0
-6 -9 -9 -20z"/>
<path d="M5101 2329 c-18 -6 -32 -12 -30 -13 8 -7 69 7 69 15 0 5 -1 9 -2 8
-2 0 -18 -5 -37 -10z"/>
<path d="M4965 2310 c-4 -6 -11 -8 -16 -5 -5 4 -9 2 -9 -4 0 -6 -6 -9 -12 -7
-7 1 -10 1 -5 -1 11 -7 8 -31 -5 -36 -7 -3 -3 -6 10 -6 19 -1 22 3 17 19 -5
17 -2 20 22 21 15 0 22 3 15 6 -6 2 -10 9 -6 14 3 5 3 9 0 9 -3 0 -8 -5 -11
-10z"/>
<path d="M5010 2312 c0 -7 6 -12 13 -13 6 0 2 -4 -11 -10 -13 -5 -21 -13 -18
-18 7 -11 46 -3 46 10 0 4 15 10 33 12 l32 4 -35 1 c-20 1 -41 7 -48 14 -9 9
-12 9 -12 0z"/>
<path d="M1390 2300 c0 -5 10 -20 23 -32 l22 -23 3 24 c4 23 -11 41 -35 41 -7
0 -13 -4 -13 -10z"/>
<path d="M4665 2280 c-17 -7 -14 -9 13 -9 20 -1 31 3 27 9 -7 12 -13 12 -40 0z"/>
<path d="M4572 2254 c2 -12 13 -19 30 -21 20 -1 25 2 21 13 -3 8 -9 14 -13 14
-5 0 -16 3 -25 6 -13 5 -16 2 -13 -12z"/>
<path d="M510 2230 c0 -5 5 -10 11 -10 5 0 7 5 4 10 -3 6 -8 10 -11 10 -2 0
-4 -4 -4 -10z"/>
<path d="M530 2206 c0 -2 8 -10 18 -17 15 -13 16 -12 3 4 -13 16 -21 21 -21
13z"/>
<path d="M428 2183 c7 -3 16 -2 19 1 4 3 -2 6 -13 5 -11 0 -14 -3 -6 -6z"/>
<path d="M466 2117 c3 -10 9 -15 12 -12 3 3 0 11 -7 18 -10 9 -11 8 -5 -6z"/>
<path d="M5228 2123 c7 -3 16 -2 19 1 4 3 -2 6 -13 5 -11 0 -14 -3 -6 -6z"/>
<path d="M5270 2108 c0 -10 9 -9 35 2 17 8 16 8 -7 7 -16 -1 -28 -5 -28 -9z"/>
<path d="M490 2103 c0 -5 14 -17 30 -28 16 -11 30 -23 30 -27 0 -5 5 -8 11 -8
6 0 18 -7 27 -16 15 -15 16 -15 23 2 7 19 10 17 13 -8 1 -7 7 -12 14 -10 7 1
12 -2 12 -7 0 -4 11 -7 25 -5 14 1 32 -4 39 -12 17 -16 26 -18 26 -5 0 18 -32
42 -49 36 -11 -3 -28 4 -42 17 -14 13 -36 22 -49 22 -14 -1 -32 4 -40 10 -30
24 -70 46 -70 39z"/>
<path d="M750 2106 c0 -2 7 -7 16 -10 8 -3 12 -2 9 4 -6 10 -25 14 -25 6z"/>
<path d="M5465 2060 c-3 -5 -1 -10 4 -10 6 0 11 5 11 10 0 6 -2 10 -4 10 -3 0
-8 -4 -11 -10z"/>
<path d="M5495 2020 c-3 -5 1 -10 9 -10 8 0 18 5 21 10 3 6 -1 10 -9 10 -8 0
-18 -4 -21 -10z"/>
<path d="M788 1993 c7 -3 16 -2 19 1 4 3 -2 6 -13 5 -11 0 -14 -3 -6 -6z"/>
<path d="M5526 1991 c-3 -4 6 -6 19 -3 14 2 25 6 25 8 0 8 -39 4 -44 -5z"/>
<path d="M755 1980 c3 -5 8 -10 11 -10 2 0 4 5 4 10 0 6 -5 10 -11 10 -5 0 -7
-4 -4 -10z"/>
<path d="M900 1984 c0 -9 28 -34 37 -34 5 0 10 10 10 22 2 19 0 20 -8 8 -8
-11 -12 -12 -16 -2 -5 12 -23 17 -23 6z"/>
<path d="M5544 1965 c-16 -13 -16 -14 -1 -9 20 7 24 -15 5 -34 -9 -9 -9 -12 3
-12 7 0 20 4 28 9 13 8 13 12 1 26 -12 14 -12 18 1 26 12 7 12 9 -2 9 -8 0
-24 -7 -35 -15z"/>
<path d="M780 1956 c0 -10 9 -16 24 -16 36 0 55 -10 49 -26 -3 -8 1 -14 11
-14 20 0 21 -16 2 -23 -8 -3 -17 1 -20 9 -5 12 -14 14 -38 8 -18 -4 -38 -7
-45 -7 -6 0 -9 -6 -6 -14 3 -8 13 -11 24 -8 14 5 17 2 13 -8 -4 -11 9 -16 58
-22 35 -5 68 -7 74 -6 6 0 17 -6 24 -14 10 -12 10 -15 -4 -15 -16 0 -56 -34
-56 -48 0 -4 -18 -6 -40 -4 -49 5 -52 -9 -5 -31 44 -21 46 -21 39 1 -5 15 -4
15 6 -1 9 -14 9 -22 0 -33 -10 -11 -9 -14 9 -14 12 0 19 -4 16 -10 -3 -5 -2
-10 3 -10 6 0 12 7 15 14 5 12 13 13 36 6 17 -5 31 -5 31 0 0 11 -26 20 -61
20 -16 0 -29 5 -29 11 0 6 8 8 19 4 11 -3 26 1 35 10 9 9 16 12 16 6 0 -6 11
-11 26 -11 l25 0 -35 64 c-19 35 -33 66 -30 68 2 3 -2 11 -11 18 -8 7 -15 19
-15 26 0 8 -7 14 -15 14 -8 0 -15 4 -15 10 0 5 -6 7 -14 4 -8 -3 -17 0 -22 7
-4 8 -3 10 4 5 7 -4 12 -5 12 -2 0 3 -18 14 -40 25 -22 10 -40 15 -40 9 0 -6
-6 -5 -15 2 -12 10 -15 10 -15 -4z m130 -76 c0 -5 -2 -10 -4 -10 -3 0 -8 5
-11 10 -3 6 -1 10 4 10 6 0 11 -4 11 -10z m-76 -15 c-4 -8 -11 -12 -16 -9 -6
4 -5 10 3 15 19 12 19 11 13 -6z"/>
<path d="M1105 1870 c-4 -6 -2 -17 4 -23 15 -15 25 -2 13 19 -7 12 -11 13 -17
4z"/>
<path d="M5554 1864 c-18 -14 -18 -15 4 -4 12 6 22 13 22 15 0 8 -5 6 -26 -11z"/>
<path d="M1016 1835 c4 -8 10 -12 15 -9 14 8 10 24 -6 24 -9 0 -12 -6 -9 -15z"/>
<path d="M1160 1840 c8 -5 20 -10 25 -10 6 0 3 5 -5 10 -8 5 -19 10 -25 10 -5
0 -3 -5 5 -10z"/>
<path d="M1208 1798 c5 -5 16 -8 23 -6 8 3 3 7 -10 11 -17 4 -21 3 -13 -5z"/>
<path d="M5534 1799 c-3 -6 -14 -9 -24 -6 -11 3 -21 -1 -23 -8 -7 -16 39 -7
54 11 6 8 9 14 6 14 -3 0 -9 -5 -13 -11z"/>
<path d="M1050 1796 c0 -2 7 -6 15 -10 8 -3 15 -1 15 4 0 6 -7 10 -15 10 -8 0
-15 -2 -15 -4z"/>
<path d="M5590 1743 c-33 -13 -35 -16 -37 -66 l-1 -52 13 38 c16 48 33 67 56
67 11 0 19 4 19 9 0 17 -14 18 -50 4z"/>
<path d="M5525 1690 c-3 -5 -1 -10 4 -10 6 0 11 5 11 10 0 6 -2 10 -4 10 -3 0
-8 -4 -11 -10z"/>
<path d="M1020 1680 c0 -6 7 -10 16 -8 10 2 19 -3 22 -11 3 -8 0 -11 -7 -7
-20 13 -33 -5 -14 -20 17 -13 17 -13 -4 -14 -12 0 -27 -9 -33 -20 -6 -11 -18
-20 -28 -21 -33 -2 32 -17 78 -18 25 -1 52 -5 60 -11 12 -7 12 -12 -4 -29 -11
-12 -15 -21 -10 -21 5 0 2 -5 -6 -10 -26 -16 3 -33 45 -26 20 4 34 10 31 13
-3 3 -1 12 5 20 15 18 -6 44 -29 36 -15 -6 -15 -4 -4 9 9 12 10 18 2 23 -10 6
-19 24 -31 60 -2 6 -17 22 -33 38 -31 28 -56 35 -56 17z m150 -164 c0 -11 -19
-15 -25 -6 -3 5 1 10 9 10 9 0 16 -2 16 -4z"/>
<path d="M1420 1675 c0 -13 82 -45 117 -45 7 0 13 -5 13 -10 0 -6 19 -9 49 -6
33 3 55 0 68 -9 10 -8 26 -15 35 -15 9 0 18 -5 20 -11 2 -5 11 -11 20 -13 27
-3 30 -12 5 -13 -12 -1 -25 3 -29 10 -6 9 -12 8 -21 -5 -10 -12 -26 -16 -65
-13 -29 2 -52 -1 -52 -6 0 -5 7 -9 16 -9 9 0 14 -6 12 -12 -3 -8 -31 -15 -74
-18 l-69 -5 52 -18 c29 -10 66 -16 83 -13 39 6 100 -4 100 -15 0 -5 -3 -8 -7
-8 -27 4 -35 -1 -23 -16 14 -17 9 -18 -41 -6 -32 7 -41 5 -65 -15 -15 -13 -31
-24 -36 -24 -5 0 -6 -5 -3 -10 4 -6 -8 -13 -26 -17 -28 -5 -30 -7 -14 -14 11
-4 34 -8 51 -8 43 -1 95 -21 88 -33 -4 -6 2 -8 17 -3 15 4 19 3 11 -3 -14 -10
-6 -42 12 -43 6 0 -5 -6 -24 -14 -28 -10 -32 -14 -17 -20 27 -11 20 -24 -13
-23 -17 1 -33 -2 -37 -5 -3 -4 10 -7 30 -7 48 0 73 -10 55 -21 -10 -7 -9 -9 5
-9 12 0 16 -4 11 -12 -4 -7 -4 -10 1 -6 4 4 16 3 26 -3 26 -14 72 -1 64 19 -5
12 -3 13 10 2 15 -12 15 -14 -2 -23 -10 -6 -20 -13 -23 -17 -3 -3 -13 -9 -22
-13 -27 -10 -22 -26 10 -33 40 -10 43 -13 32 -35 -6 -11 -14 -18 -18 -16 -4 3
-16 1 -27 -3 -13 -5 -2 -8 34 -8 29 0 56 -4 60 -10 3 -5 13 -12 21 -15 8 -3
-8 -6 -37 -6 -28 -1 -54 -5 -58 -10 -6 -10 1 -11 77 -11 48 0 79 -19 36 -21
-13 -1 -30 -3 -38 -4 -8 -1 -22 -3 -30 -4 -26 -3 51 -31 160 -58 58 -14 110
-30 115 -36 7 -6 0 -8 -20 -4 -28 5 -29 4 -10 -10 19 -13 18 -14 -10 -7 -25 5
-28 4 -17 -7 6 -7 12 -26 12 -41 0 -16 7 -42 15 -59 17 -31 89 -89 112 -89 7
0 13 -4 13 -8 0 -10 116 -57 238 -97 24 -7 53 -20 65 -28 12 -7 31 -16 42 -19
11 -3 58 -17 105 -31 391 -112 928 -105 1323 18 105 33 250 126 255 165 6 37
-19 100 -45 113 -22 12 -21 14 57 81 44 38 80 72 80 76 0 5 12 23 27 42 25 31
26 32 3 12 -14 -11 -41 -35 -60 -52 -50 -45 -49 -31 1 30 57 69 66 78 76 78 5
0 26 18 48 40 21 21 42 37 47 34 4 -3 8 5 7 18 0 13 -3 17 -6 10 -2 -6 -9 -10
-14 -6 -5 3 -9 1 -9 -5 0 -11 -39 -34 -80 -46 -25 -8 -25 -7 -6 13 l19 21 -41
-19 c-23 -11 -49 -20 -59 -20 -10 0 -25 -5 -33 -11 -11 -8 -5 -9 23 -4 23 4
37 2 37 -5 0 -5 -6 -10 -14 -10 -7 0 -19 -6 -25 -14 -6 -7 -32 -19 -57 -26
-29 -8 -41 -16 -33 -21 10 -6 10 -11 -2 -25 -13 -16 -12 -17 4 -11 10 4 21 7
23 7 2 0 4 7 4 15 0 10 10 15 32 15 l32 0 -32 -33 c-17 -18 -54 -46 -82 -62
-27 -17 -50 -36 -50 -42 0 -7 -9 -13 -19 -13 -11 0 -23 -4 -26 -10 -8 -12 1
-13 43 -1 39 12 42 0 5 -16 -84 -36 -138 -53 -168 -53 -19 0 -35 -5 -35 -11 0
-6 8 -8 18 -5 9 2 37 7 62 11 25 4 54 9 65 12 17 5 18 4 6 -11 -7 -9 -21 -16
-31 -16 -10 0 -37 -7 -60 -15 -73 -26 -231 -21 -215 6 4 5 -3 9 -14 9 -13 0
-21 7 -21 18 0 13 -2 14 -9 4 -7 -11 -9 -11 -14 2 -5 12 0 16 20 16 25 0 25 1
9 19 -13 15 -14 20 -4 24 10 4 10 6 1 6 -7 1 -13 6 -13 11 0 6 18 1 40 -10 23
-12 40 -16 40 -10 0 7 8 9 20 5 29 -9 25 14 -4 25 -26 10 -69 63 -59 74 3 3
15 6 27 6 18 0 18 1 4 13 -24 18 -29 80 -5 73 6 -3 26 -7 42 -11 l30 -7 -22
24 c-13 14 -23 32 -23 41 0 19 -15 23 -26 6 -4 -7 -17 1 -35 20 -29 32 -44 38
-53 22 -12 -19 -49 4 -117 70 -38 37 -69 70 -69 72 0 3 10 3 22 -1 l22 -5 -20
26 c-12 14 -35 38 -52 52 -20 16 -32 36 -32 51 0 13 -6 25 -12 25 -7 1 -27 3
-45 5 -26 3 -30 1 -26 -15 6 -23 -54 -85 -128 -133 -47 -30 -67 -57 -33 -44
15 6 15 4 3 -15 -23 -33 -220 -150 -245 -144 -35 8 -131 -32 -167 -70 -17 -18
-48 -41 -67 -49 -41 -18 -31 -20 40 -6 58 11 77 6 59 -16 -7 -9 -8 -19 -2 -26
17 -24 8 -42 -25 -50 -18 -5 -30 -13 -27 -18 3 -4 -3 -11 -12 -13 -11 -3 -6
-5 12 -6 l30 -2 -25 -15 c-23 -14 -24 -15 -2 -10 12 3 31 9 42 12 26 8 28 -23
3 -43 -16 -13 -15 -14 12 -8 l30 6 -25 -20 c-14 -11 -32 -22 -40 -24 -8 -3 0
-3 19 -1 32 3 33 2 19 -13 -17 -16 -148 -35 -148 -21 0 4 -12 5 -27 2 -16 -3
-54 2 -86 10 -32 8 -63 13 -70 11 -16 -6 -44 12 -33 22 5 4 11 2 13 -4 3 -7
10 -13 16 -13 6 0 -4 16 -23 35 -19 19 -38 35 -42 35 -5 0 -27 19 -49 43 -25
26 -43 37 -46 30 -6 -17 -4 -28 5 -28 8 0 82 -74 82 -82 0 -2 -21 12 -47 30
-69 49 -187 165 -220 217 -15 25 -34 51 -41 59 -19 20 -33 61 -26 73 4 7 2 8
-4 4 -7 -4 -12 -3 -12 3 0 6 -16 35 -35 65 -38 60 -44 76 -20 56 13 -11 14
-10 9 4 -3 9 -12 16 -20 16 -8 0 -14 6 -14 13 0 7 -13 31 -30 53 -16 21 -30
45 -30 52 0 6 -4 12 -8 12 -5 0 -29 30 -53 68 -37 56 -44 76 -45 118 -1 40 -6
56 -25 75 -13 13 -28 24 -34 24 -5 0 -32 11 -60 23 -32 15 -65 22 -92 21 -28
-2 -48 3 -61 14 -14 13 -21 14 -30 5 -9 -9 -15 -9 -24 0 -16 16 -28 15 -28 -3z
m225 -155 c3 -5 2 -10 -4 -10 -5 0 -13 5 -16 10 -3 6 -2 10 4 10 5 0 13 -4 16
-10z m207 -212 c-1 -8 7 -23 18 -33 11 -10 20 -24 20 -32 0 -7 4 -13 8 -13 11
0 35 -51 27 -58 -2 -3 0 -11 7 -19 15 -19 5 -25 -27 -17 -15 4 -22 10 -16 13
6 4 7 12 1 21 -6 8 -10 10 -10 5 0 -18 -70 -39 -83 -26 -8 8 -5 11 11 11 12 0
22 6 22 14 0 8 4 18 10 21 6 4 7 -1 4 -12 -5 -14 -4 -15 4 -4 6 8 8 20 5 27
-3 9 2 11 16 7 18 -4 20 -2 14 13 -3 11 -17 29 -29 40 -13 12 -20 24 -17 27 3
4 -6 9 -21 13 -30 7 -31 10 -13 29 10 11 15 11 32 0 11 -7 19 -19 17 -27z
m-129 5 c-7 -2 -19 -2 -25 0 -7 3 -2 5 12 5 14 0 19 -2 13 -5z m29 -44 c-23
-9 -27 -3 -11 14 10 11 16 12 21 3 4 -6 0 -14 -10 -17z m-55 15 c-3 -3 -12 -4
-19 -1 -8 3 -5 6 6 6 11 1 17 -2 13 -5z m1633 -64 c0 -5 -5 -10 -11 -10 -5 0
-7 5 -4 10 3 6 8 10 11 10 2 0 4 -4 4 -10z m-1517 -34 c4 -10 1 -13 -8 -9 -8
3 -12 9 -9 14 7 12 11 11 17 -5z m1636 -60 c-3 -3 -11 5 -18 17 -13 21 -12 21
5 5 10 -10 16 -20 13 -22z m-1579 8 c0 -8 -5 -12 -10 -9 -6 4 -8 11 -5 16 9
14 15 11 15 -7z m73 -37 c-12 -13 -13 -17 -3 -12 23 14 49 13 61 -2 8 -9 8
-13 0 -13 -6 0 -11 6 -11 13 0 8 -3 8 -9 -2 -7 -10 -4 -23 8 -40 33 -49 34
-51 5 -51 -22 0 -24 3 -15 14 10 12 9 14 -7 9 -16 -4 -19 1 -17 26 1 24 -2 31
-16 31 -9 0 -19 5 -21 12 -4 10 -13 10 -41 1 -42 -13 -50 -8 -11 7 14 6 22 14
19 20 -3 5 -2 10 4 10 5 0 13 -5 16 -10 4 -6 12 -4 21 5 23 23 39 7 17 -18z
m1375 -64 c-2 -29 -8 -39 -23 -41 -16 -3 -18 -1 -7 9 6 7 12 26 12 41 0 15 5
28 11 28 6 0 9 -16 7 -37z m197 17 c-6 -9 8 -14 28 -11 5 1 6 -2 3 -7 -7 -12
38 -61 75 -81 41 -22 48 -39 14 -37 -14 0 -25 5 -25 9 0 5 -5 5 -12 1 -7 -5
-8 -3 -3 5 5 9 -11 30 -44 62 -44 41 -57 69 -35 69 3 0 2 -4 -1 -10z m-439
-35 c-8 -8 -18 -15 -22 -15 -3 0 -1 7 6 15 7 8 17 15 22 15 5 0 3 -7 -6 -15z
m27 -25 c-23 -22 -47 -40 -52 -40 -6 0 9 18 32 40 23 22 47 39 52 39 6 0 -9
-17 -32 -39z m68 16 c-9 -11 -9 -20 -2 -34 9 -17 7 -21 -17 -27 -15 -3 -35
-14 -44 -22 -10 -9 -18 -13 -18 -9 0 4 12 18 26 31 23 22 24 25 8 25 -14 0
-10 6 16 25 41 28 47 30 31 11z m299 -38 c0 -4 7 -8 15 -8 9 0 12 6 8 17 -4
10 -2 14 4 10 17 -11 23 -46 7 -40 -17 6 -18 -9 -2 -25 8 -8 15 -8 24 -1 9 8
16 5 25 -9 7 -11 19 -18 28 -15 13 4 14 3 2 -5 -12 -9 -13 -13 -1 -26 7 -9 10
-19 6 -23 -3 -3 -6 -1 -6 5 0 6 -7 9 -17 5 -11 -4 -14 -3 -9 5 5 8 2 10 -8 6
-9 -3 -16 -1 -16 5 0 6 -3 10 -7 10 -19 -3 -33 2 -48 17 -24 25 -30 9 -6 -17
11 -12 24 -19 28 -16 7 8 43 -21 43 -36 0 -5 -9 1 -21 14 -18 21 -20 21 -14 4
5 -17 3 -17 -21 5 -54 49 -64 60 -64 70 0 6 -4 10 -8 10 -5 0 -14 11 -20 25
-14 31 -15 38 -3 31 5 -3 11 4 14 15 6 21 6 21 36 -2 17 -13 31 -26 31 -31z
m-1416 -7 c4 -5 -5 -8 -19 -6 -35 3 -44 15 -12 15 14 0 28 -4 31 -9z m1096
-83 c-29 -28 -30 -33 -16 -43 20 -15 20 -21 2 -28 -11 -4 -13 -1 -9 11 6 15 5
15 -10 3 -13 -11 -15 -17 -6 -28 10 -11 8 -12 -5 -7 -12 4 -16 14 -12 27 5 19
4 19 -15 -2 -22 -23 -34 -28 -23 -8 12 22 119 122 122 115 2 -4 -11 -22 -28
-40z m-207 -2 c-18 -15 -30 -20 -35 -13 -3 5 8 20 25 32 40 27 48 13 10 -19z
m477 -1 c7 -9 8 -15 2 -15 -5 0 -12 7 -16 15 -3 8 -4 15 -2 15 2 0 9 -7 16
-15z m2 -53 c-7 -2 -10 -8 -7 -12 3 -5 1 -11 -4 -14 -5 -3 -11 1 -15 9 -3 8
-1 15 5 15 6 0 7 4 4 10 -4 6 1 7 11 3 11 -4 13 -8 6 -11z m768 3 c-7 -9 -15
-13 -19 -10 -3 3 1 10 9 15 21 14 24 12 10 -5z m-65 -5 c-3 -5 -12 -10 -18
-10 -7 0 -6 4 3 10 19 12 23 12 15 0z m-555 -15 c0 -8 -2 -15 -4 -15 -2 0 -6
7 -10 15 -3 8 -1 15 4 15 6 0 10 -7 10 -15z m565 -25 c-16 -16 -31 -27 -34
-24 -5 5 48 54 58 54 3 0 -8 -13 -24 -30z m-685 0 c0 -5 -7 -7 -15 -4 -8 4
-15 8 -15 10 0 2 7 4 15 4 8 0 15 -4 15 -10z m-459 -23 c-11 -11 -41 -3 -41
11 0 5 12 7 26 4 17 -3 22 -8 15 -15z m89 9 c0 -7 -9 -16 -21 -19 -20 -5 -20
-5 -3 14 20 23 24 23 24 5z m-36 -45 c3 -5 -3 -11 -13 -14 -14 -3 -18 -1 -14
9 6 16 19 18 27 5z m80 1 c2 -4 -4 -9 -15 -9 -11 -1 -17 2 -14 8 7 11 22 12
29 1z m-59 -32 c-3 -5 -14 -10 -23 -10 -15 0 -15 2 -2 10 20 13 33 13 25 0z
m-534 -79 c3 0 6 -7 6 -15 0 -11 -6 -12 -29 -4 -38 13 -43 24 -10 22 15 -1 30
-2 33 -3z m71 -25 c10 6 10 4 0 -9 -12 -14 -16 -14 -28 -2 -19 18 -18 31 1 15
8 -6 20 -8 27 -4z m88 0 c0 -11 -19 -15 -25 -6 -3 5 1 10 9 10 9 0 16 -2 16
-4z"/>
<path d="M5409 1683 c-1 -5 -1 -16 0 -25 1 -10 -13 -31 -31 -48 -34 -31 -15
-31 28 0 25 18 38 80 17 80 -7 0 -14 -3 -14 -7z"/>
<path d="M1390 1664 c0 -8 5 -12 10 -9 6 3 10 10 10 16 0 5 -4 9 -10 9 -5 0
-10 -7 -10 -16z"/>
<path d="M5436 1545 c-3 -8 -3 -15 0 -15 3 0 12 7 20 15 13 13 13 15 1 15 -8
0 -17 -7 -21 -15z"/>
<path d="M1796 1532 c-3 -6 -1 -14 5 -17 14 -9 20 -2 10 14 -6 8 -11 9 -15 3z"/>
<path d="M5335 1519 c-38 -11 -78 -18 -89 -15 -11 3 -25 2 -30 -3 -19 -13
-145 -37 -318 -59 -31 -4 -60 -11 -64 -15 -9 -9 105 -8 174 2 48 7 52 6 52
-13 1 -20 1 -20 21 3 11 13 22 21 25 18 3 -3 20 -1 37 4 18 6 48 12 67 14 19
2 52 11 73 20 20 8 37 12 37 8 0 -5 6 -1 13 7 7 8 17 15 22 16 23 3 55 17 55
25 0 5 -1 9 -2 8 -2 0 -34 -9 -73 -20z"/>
<path d="M1180 1481 c0 -6 -12 -16 -27 -23 l-28 -11 30 -8 c35 -10 73 -55 69
-82 -2 -15 3 -17 24 -14 15 2 21 2 14 0 -21 -7 -9 -38 15 -36 13 2 20 -3 19
-13 -1 -10 17 -23 47 -35 l48 -19 -37 45 c-21 24 -44 47 -51 49 -7 3 -13 11
-13 18 0 7 -10 19 -21 26 -14 9 -18 17 -12 23 7 7 1 20 -16 37 -40 42 -61 56
-61 43z m46 -68 c-4 -4 -11 -1 -16 7 -16 25 -11 35 7 17 9 -9 13 -20 9 -24z"/>
<path d="M1854 1445 c21 -19 40 -35 43 -35 3 0 36 -25 73 -54 37 -30 70 -52
74 -49 13 13 5 32 -18 45 -40 22 -111 71 -117 80 -6 9 -75 48 -85 48 -4 0 10
-16 30 -35z"/>
<path d="M1040 1466 c0 -2 7 -7 16 -10 8 -3 12 -2 9 4 -6 10 -25 14 -25 6z"/>
<path d="M4717 1449 c8 -8 4 -18 -15 -35 -24 -21 -25 -25 -11 -37 16 -12 15
-37 -2 -37 -6 0 -7 6 -3 13 17 29 -39 -30 -58 -62 -12 -19 -28 -42 -35 -51
-26 -31 -89 -103 -103 -119 -9 -9 -25 -32 -37 -52 -12 -19 -33 -45 -47 -58
-14 -13 -23 -28 -20 -32 3 -5 -2 -6 -10 -3 -11 4 -16 0 -16 -13 0 -10 -20 -38
-45 -63 -24 -25 -44 -49 -45 -53 0 -9 75 -1 173 19 77 15 267 82 267 94 0 4 9
10 21 13 23 6 22 28 -2 35 -11 3 -11 2 1 -7 13 -9 12 -11 -5 -10 -11 0 -29 4
-40 9 l-20 9 20 1 c18 1 17 2 -5 15 -14 8 -31 14 -39 15 -11 0 -11 -3 0 -17 9
-11 10 -14 2 -9 -7 4 -17 15 -22 24 -7 14 -4 17 17 18 15 0 36 4 47 9 20 8 20
7 1 -7 -19 -15 -18 -16 15 -23 19 -3 42 -9 53 -12 13 -4 16 -1 11 7 -6 10 -1
11 18 6 21 -5 26 -2 29 16 2 15 10 23 23 23 11 0 20 6 19 13 -1 6 -2 19 -2 27
-1 9 -13 15 -29 16 -18 1 -21 3 -10 6 9 2 15 9 12 14 -8 11 -3 11 29 0 19 -8
28 -6 38 6 11 14 11 16 -4 10 -10 -3 -20 -2 -23 4 -4 6 12 8 42 5 34 -4 59 0
88 14 22 11 33 19 25 19 -36 -3 -50 2 -50 16 0 8 -7 15 -16 15 -9 0 -12 5 -8
12 5 8 2 9 -11 5 -9 -4 -23 -3 -30 3 -7 6 -27 15 -44 20 -26 7 -31 6 -31 -8 0
-15 -2 -15 -10 -2 -15 25 12 31 117 26 113 -6 173 1 173 20 0 7 10 15 23 17
12 3 -30 5 -93 4 -155 0 -170 1 -170 14 0 5 5 7 10 4 6 -3 10 -1 10 4 0 6 -9
11 -21 11 -31 0 -59 18 -53 35 4 8 2 15 -4 15 -6 0 -19 3 -29 6 -10 3 -7 -2 7
-10 14 -8 19 -15 12 -16 -7 0 -10 -4 -7 -10 8 -13 2 -13 -29 1 -19 9 -23 16
-16 28 6 12 2 19 -18 29 -17 8 -22 8 -15 1z m-17 -313 c0 -2 -7 -6 -15 -10 -8
-3 -15 -1 -15 4 0 6 7 10 15 10 8 0 15 -2 15 -4z m35 -14 c-3 -3 -11 0 -18 7
-9 10 -8 11 6 5 10 -3 15 -9 12 -12z m-165 -152 c0 -5 -5 -10 -11 -10 -5 0 -7
5 -4 10 3 6 8 10 11 10 2 0 4 -4 4 -10z"/>
<path d="M4590 1360 c-14 -11 -33 -20 -42 -20 -10 0 -18 -4 -18 -10 0 -5 2
-10 5 -10 13 0 95 45 95 52 0 13 -13 9 -40 -12z"/>
<path d="M3225 1335 c-22 -8 -50 -15 -62 -15 -12 0 -25 -4 -28 -10 -3 -5 -16
-9 -28 -9 -12 1 -71 -13 -132 -29 -162 -45 -239 -60 -345 -67 -119 -7 -160
-14 -160 -24 0 -10 51 -21 63 -14 16 10 207 13 207 3 0 -16 43 -11 88 10 22
11 48 20 56 20 8 0 17 4 20 9 3 5 22 12 43 16 20 4 46 13 57 21 14 10 23 10
32 3 10 -8 21 -5 43 10 16 12 36 21 44 21 37 0 147 42 147 55 0 8 -1 15 -2 15
-2 -1 -21 -7 -43 -15z"/>
<path d="M3465 1320 c52 -24 66 -24 36 0 -13 11 -35 20 -50 19 -24 0 -22 -2
14 -19z"/>
<path d="M2060 1314 c0 -10 32 -33 69 -49 45 -20 49 -19 23 6 -24 22 -92 54
-92 43z"/>
<path d="M3550 1310 c-7 -4 0 -12 19 -19 16 -7 34 -10 40 -7 5 3 22 -5 38 -18
19 -16 37 -23 50 -20 18 5 123 -17 218 -46 55 -16 100 -16 100 0 0 11 -12 15
-43 16 -23 1 -48 7 -55 13 -7 5 -33 13 -57 16 -42 6 -211 46 -271 64 -15 5
-32 5 -39 1z"/>
<path d="M4497 1313 c-12 -12 -7 -22 8 -17 8 4 15 10 15 15 0 11 -14 12 -23 2z"/>
<path d="M4420 1270 c0 -5 7 -10 16 -10 8 0 12 5 9 10 -3 6 -10 10 -16 10 -5
0 -9 -4 -9 -10z"/>
<path d="M4386 1260 c-11 -3 -15 -9 -10 -13 10 -6 42 9 34 16 -3 3 -14 1 -24
-3z"/>
<path d="M2180 1245 c0 -19 24 -30 41 -19 9 5 7 11 -6 21 -24 17 -35 17 -35
-2z"/>
<path d="M4221 1209 c-13 -5 -21 -12 -18 -15 8 -8 65 5 72 17 8 12 -23 11 -54
-2z"/>
<path d="M4030 1200 c0 -15 27 -23 47 -16 15 6 15 8 3 16 -20 13 -50 12 -50 0z"/>
<path d="M4110 1201 c0 -18 29 -25 53 -13 l22 11 -22 0 c-12 1 -28 4 -37 7 -9
3 -16 1 -16 -5z"/>
<path d="M2420 1191 c0 -6 5 -13 10 -16 6 -3 10 1 10 9 0 9 -4 16 -10 16 -5 0
-10 -4 -10 -9z"/>
<path d="M3542 1187 c4 -14 178 -101 186 -93 2 3 -7 10 -21 15 -15 6 -58 28
-97 51 -40 22 -70 34 -68 27z"/>
<path d="M3045 1152 c-16 -10 -55 -27 -85 -37 -30 -11 -66 -30 -79 -44 l-25
-24 44 7 c45 7 210 91 210 107 0 15 -33 10 -65 -9z"/>
<path d="M2018 1131 c17 -17 32 -34 33 -38 1 -11 69 -67 69 -56 0 17 -74 95
-104 109 l-31 15 33 -30z"/>
<path d="M2121 1137 c30 -26 130 -84 127 -75 -5 14 -105 78 -122 78 -5 0 -7
-2 -5 -3z"/>
<path d="M4440 1109 c0 -5 5 -7 10 -4 6 3 10 8 10 11 0 2 -4 4 -10 4 -5 0 -10
-5 -10 -11z"/>
<path d="M3766 1091 c5 -4 23 -11 39 -15 l30 -6 -25 15 c-27 16 -60 21 -44 6z"/>
<path d="M1658 1073 c6 -2 18 -2 25 0 6 3 1 5 -13 5 -14 0 -19 -2 -12 -5z"/>
<path d="M2120 1066 c0 -2 8 -10 18 -17 15 -13 16 -12 3 4 -13 16 -21 21 -21
13z"/>
<path d="M2711 1061 c-7 -5 -10 -14 -7 -20 4 -6 1 -11 -6 -11 -8 0 -22 -6 -33
-13 -16 -12 -12 -14 37 -16 38 -1 69 5 104 21 41 19 45 23 26 26 -13 2 -36 -1
-53 -7 -33 -11 -38 -5 -11 15 15 12 14 13 -13 14 -16 0 -36 -4 -44 -9z"/>
<path d="M2151 1024 c-1 -15 78 -124 90 -124 6 0 8 -4 5 -9 -3 -5 1 -22 9 -37
8 -16 15 -25 15 -20 0 4 18 -8 40 -28 22 -20 46 -36 54 -36 8 0 23 -3 33 -6
10 -3 2 5 -17 18 -68 44 -110 80 -110 94 0 10 6 8 20 -6 11 -11 25 -20 31 -20
5 0 -16 24 -48 54 -32 30 -65 66 -72 80 -8 14 -20 26 -27 26 -7 0 -15 6 -17
13 -3 7 -6 7 -6 1z"/>
<path d="M4105 1010 c-8 -13 25 -13 45 0 12 8 9 10 -12 10 -15 0 -30 -4 -33
-10z"/>
<path d="M2221 993 c0 -22 55 -67 64 -54 6 11 -42 71 -57 71 -4 0 -8 -8 -7
-17z"/>
<path d="M4760 990 c0 -5 5 -10 10 -10 6 0 10 5 10 10 0 6 -4 10 -10 10 -5 0
-10 -4 -10 -10z"/>
<path d="M1700 970 c0 -6 7 -10 15 -10 8 0 15 2 15 4 0 2 -7 6 -15 10 -8 3
-15 1 -15 -4z"/>
<path d="M2220 841 c0 -5 5 -13 10 -16 6 -3 10 -2 10 4 0 5 -4 13 -10 16 -5 3
-10 2 -10 -4z"/>
<path d="M3863 763 c9 -2 25 -2 35 0 9 3 1 5 -18 5 -19 0 -27 -2 -17 -5z"/>
<path d="M3785 700 c3 -5 8 -10 11 -10 2 0 4 5 4 10 0 6 -5 10 -11 10 -5 0 -7
-4 -4 -10z"/>
<path d="M2530 651 c0 -10 24 -21 43 -21 7 0 3 7 -7 15 -22 17 -36 19 -36 6z"/>
</g>
</svg>
