<svg width="100%" height="100%" viewBox="0 0 1440 320" xmlns="http://www.w3.org/2000/svg" preserveAspectRatio="none">
  <path fill="#00f0ff" fill-opacity="0.3" d="M0,64L48,90.7C96,117,192,171,288,176C384,181,480,139,576,144C672,149,768,203,864,208C960,213,1056,171,1152,149.3C1248,128,1344,128,1392,128L1440,128L1440,0L1392,0C1344,0,1248,0,1152,0C1056,0,960,0,864,0C768,0,672,0,576,0C480,0,384,0,288,0C192,0,96,0,48,0L0,0Z"></path>
  <path fill="#00ffff" fill-opacity="0.2" d="M0,160L60,160C120,160,240,160,360,149.3C480,139,600,117,720,128C840,139,960,181,1080,202.7C1200,224,1320,224,1380,224L1440,224L1440,0L1380,0C1320,0,1200,0,1080,0C960,0,840,0,720,0C600,0,480,0,360,0C240,0,120,0,60,0L0,0Z"></path>
</svg>
